<?xml version="1.0" standalone="no"?>
<!DOCTYPE svg PUBLIC "-//W3C//DTD SVG 1.1//EN" "http://www.w3.org/Graphics/SVG/1.1/DTD/svg11.dtd" >
<svg xmlns="http://www.w3.org/2000/svg" xmlns:xlink="http://www.w3.org/1999/xlink" version="1.1">
<metadata>
Created by FontForge 20150318 at Wed Sep 16 07:20:00 2015
 By uniteet7
Converted by ALLTYPE
</metadata>
<defs>
<font id="TimesRoman" horiz-adv-x="250" >
  <font-face 
    font-family="TimesRoman"
    font-weight="5"
    font-stretch="normal"
    units-per-em="1000"
    panose-1="0 0 0 0 0 0 0 0 0 0"
    ascent="800"
    descent="-200"
    x-height="450"
    cap-height="662"
    bbox="-168 -218 1000 897"
    underline-thickness="50"
    underline-position="-55"
    unicode-range="U+0020-F002"
  />
<missing-glyph 
 />
    <glyph glyph-name=".notdef" 
 />
    <glyph glyph-name="glyph1" horiz-adv-x="0" 
 />
    <glyph glyph-name="glyph2" 
 />
    <glyph glyph-name="space" unicode=" " 
 />
    <glyph glyph-name="space" unicode="&#xa0;" 
 />
    <glyph glyph-name="exclam" unicode="!" horiz-adv-x="333" 
d="M183 -9q-4 0 -8.5 0.5t-9.5 2.5q-13 4 -24 15t-11 32q0 23 15.5 38.5t37.5 15.5q23 0 39 -16t16 -38t-13 -33.5t-28 -14.5q-4 -1 -7.5 -1.5t-6.5 -0.5v0zM189 176h-13l-9 108q-2 22 -7 61t-11 81q-7 52 -13 99t-6 66v6.5v7.5q2 26 13.5 48t38.5 22q30 0 42 -22.5
t12 -58.5v-17t-2 -19l-45 -382v0z" />
    <glyph glyph-name="quotedbl" unicode="&#x22;" horiz-adv-x="408" 
d="M130 431h-21q-3 14 -6.5 33.5t-7.5 41.5q0 4 -1 7.5t-1 7.5q-6 36 -11 68.5t-5 44.5q0 18 11 28t25 12q2 1 3.5 1h3.5h4t5 -1q12 -3 22.5 -13t10.5 -27q0 -12 -5 -44.5t-11 -68.5q0 -4 -1 -7.5t-1 -7.5q-4 -22 -7.5 -41.5t-6.5 -34.5v1zM299 431h-21q-3 14 -6.5 33.5
t-7.5 41.5q0 4 -1 7.5t-1 7.5q-6 36 -11 68.5t-5 44.5q0 18 11 28t25 12q2 1 3.5 1h3.5h4t5 -1q12 -3 22.5 -13t10.5 -27q0 -12 -5 -44.5t-11 -68.5q0 -4 -1 -7.5t-1 -7.5q-4 -22 -7.5 -41.5t-6.5 -34.5v1z" />
    <glyph glyph-name="numbersign" unicode="#" horiz-adv-x="500" 
d="M471 271v-55h-109l-31 -216h-58l31 216h-134l-33 -216h-58l33 216h-107v55h116l21 134h-110v55h118l31 202h58l-31 -202h133l30 202h58l-30 -202h97v-55h-105l-20 -134h100v0zM333 405h-133l-21 -134h134l20 134v0z" />
    <glyph glyph-name="dollar" unicode="$" horiz-adv-x="500" 
d="M425 500h-15q-11 57 -38 85t-57 39q-14 5 -26.5 8t-24.5 4v-245q34 -20 61.5 -36.5t49.5 -32.5q41 -29 61.5 -62.5t20.5 -86.5q0 -86 -57 -124.5t-136 -48.5v-87h-34v87q-49 0 -86 9t-62 20q-12 6 -21.5 11.5t-16.5 9.5v131h15q17 -77 59 -115.5t112 -38.5v283
q-68 37 -123 82t-55 118v4.5v4.5q4 51 45.5 94.5t132.5 49.5v64h34v-63q17 -3 36.5 -6t39.5 -8q23 -5 45 -14.5t40 -25.5v-110v0zM264 293v-265q9 1 22.5 4t27.5 9q24 12 44 36.5t20 72.5q0 45 -24.5 72.5t-61.5 52.5q-7 4 -14 8.5t-14 8.5v1zM229 407v230q-39 -7 -60 -22.5
t-30 -32.5q-9 -15 -11 -29t-2 -22q0 -29 15.5 -51t42.5 -42q10 -8 21.5 -16t23.5 -16v1z" />
    <glyph glyph-name="percent" unicode="%" horiz-adv-x="833" 
d="M634 676l-385 -689h-48l349 622l-2 2q-2 -2 -4 -3t-4 -3q-17 -8 -39 -15.5t-58 -7.5q-26 0 -39 2t-23 6q-1 1 -2 1.5t-2 0.5q1 -3 1.5 -5.5t1.5 -5.5q2 -7 3 -14.5t1 -19.5q0 -19 -3.5 -40.5t-10.5 -42.5q-20 -66 -69.5 -121t-122.5 -55q-9 0 -19.5 2t-21.5 6
q-28 12 -52 42.5t-24 85.5q0 16 3 33t9 34q23 64 78 117t125 53q32 0 47 -7.5t26 -17.5q1 0 1.5 -0.5l1.5 -1.5l1.5 -1.5l1.5 -1.5q12 -9 29.5 -16.5t53.5 -7.5q52 0 84.5 16t54.5 36q5 4 9.5 8t8.5 8l39 1v0zM199 323q57 -1 105.5 66t53.5 147q1 4 1 8v8q0 5 -0.5 10
t-1.5 10q-1 6 -2.5 12.5t-4.5 14.5q-33 8 -43 16l-15 12q-2 2 -4.5 3t-6.5 1q-7 0 -13.5 -2t-13.5 -6q-28 -15 -54 -53.5t-43 -82.5q-9 -24 -14.5 -48t-5.5 -43q0 -41 16.5 -57.5t45.5 -16.5v1zM663 371q9 -1 20.5 -2t24.5 -5q24 -7 44 -30t20 -74q0 -17 -2.5 -35.5
t-7.5 -36.5q-18 -71 -68 -129.5t-122 -58.5q-70 0 -96.5 42t-26.5 94q0 12 1.5 24t4.5 24q19 69 78.5 127.5t129.5 58.5v1zM676 339q-41 -1 -71.5 -38.5t-49.5 -83.5q-15 -35 -22.5 -66.5t-7.5 -45.5q0 -6 0.5 -15t3.5 -20q4 -15 17.5 -28t42.5 -13q47 0 85 45t57 99
q7 21 11 41.5t4 38.5q0 37 -20 61t-50 24v1z" />
    <glyph glyph-name="ampersand" unicode="&#x26;" horiz-adv-x="778" 
d="M711 426v-21q-1 -1 -1.5 -1h-0.5q-27 -4 -49 -13t-43 -46l-26 -45q-10 -19 -17 -31.5t-14 -22.5q-1 -2 -2 -3.5t-2 -3.5q-10 -16 -24 -35t-41 -55q3 -5 14 -17.5t28 -27.5q21 -18 48.5 -32.5t57.5 -14.5q35 0 53.5 12t34.5 31q2 3 4 5.5t4 4.5l15 -10q0 -2 -8.5 -19.5
t-26.5 -37.5q-18 -22 -47 -39t-69 -17t-73 16.5t-58 36.5q-12 10 -22 19.5t-17 17.5q-8 -7 -17.5 -15t-21.5 -17q-30 -22 -74 -40t-109 -18q-13 0 -29 2t-32 7q-39 10 -71.5 43.5t-32.5 103.5q0 61 35 106.5t77 75.5q12 8 23 15.5t22 13.5l38 23q-11 29 -18.5 51.5
t-11.5 42.5q-3 12 -4 23t-1 24q0 7 0.5 14.5t2.5 14.5q9 48 46.5 88t103.5 40q55 0 95.5 -31.5t40.5 -88.5t-34 -91.5t-74 -57.5l-24 -12t-23 -11q27 -54 60.5 -106.5t71.5 -99.5q8 10 18 23.5t20 29.5q10 15 19.5 31.5t17.5 32.5q7 17 11.5 33t4.5 31q0 29 -18 36.5
t-46 9.5v22h216v0zM134 180q0 -59 38 -100.5t91 -41.5q17 0 53 11t88 54q-30 36 -57 77t-52 83l-22 40t-21 39q-9 -6 -20 -13t-22 -16q-28 -21 -52 -53.5t-24 -80.5v1zM281 557q0 -11 1 -20.5t3 -19.5q5 -27 15 -53t21 -49q8 4 23 12.5t32 21.5q23 19 42.5 46t19.5 64
q0 38 -23.5 61t-55.5 23q-31 0 -54.5 -20t-23.5 -67v1z" />
    <glyph glyph-name="quotesingle" unicode="'" horiz-adv-x="180" 
d="M101 431h-21q-3 14 -6.5 33.5t-7.5 41.5q0 4 -1 7.5t-1 7.5q-6 36 -11 68.5t-5 44.5q0 18 11 28t25 12q2 1 3.5 1h3.5h4t5 -1q12 -3 22.5 -13t10.5 -27q0 -12 -5 -44.5t-11 -68.5q0 -4 -1 -7.5t-1 -7.5q-4 -22 -7.5 -41.5t-6.5 -34.5v1z" />
    <glyph glyph-name="parenleft" unicode="(" horiz-adv-x="333" 
d="M295 676l9 -16q-10 -9 -21 -18t-22 -19q-48 -44 -87.5 -122t-39.5 -233q0 -39 3 -98t20 -122q17 -58 51 -113.5t96 -95.5l-12 -16q-10 5 -19.5 11.5t-19.5 14.5q-23 17 -45.5 39.5t-42.5 45.5q-10 11 -18.5 23t-16.5 23q-37 53 -59.5 115.5t-22.5 165.5q0 129 65.5 237
t181.5 177v1z" />
    <glyph glyph-name="parenright" unicode=")" horiz-adv-x="333" 
d="M38 -177l-9 16q10 8 21 17t22 19q48 44 87.5 121.5t39.5 232.5q0 39 -3 98t-20 122q-17 59 -51 114.5t-96 95.5l12 17q10 -6 19.5 -12.5t19.5 -14.5q23 -17 45.5 -39.5t42.5 -45.5q10 -11 18.5 -23t16.5 -23q37 -54 59.5 -116t22.5 -166q0 -129 -65.5 -236.5
t-181.5 -176.5v0z" />
    <glyph glyph-name="asterisk" unicode="*" horiz-adv-x="500" 
d="M69 383q0 23 14.5 31.5t38.5 13.5q23 5 52 13t60 29l-11 8q-9 5 -18 9t-18 7q-15 5 -29.5 8.5t-27.5 6.5q-26 5 -43.5 14t-17.5 33q0 2 1 6.5t3 9.5q4 7 10.5 12.5t18.5 5.5q11 0 19 -4t15 -11q14 -14 32.5 -36t58.5 -46q3 -2 6.5 -4t7.5 -4v14q0 29 -4 48.5t-8 33.5
l-4 10t-3 10q-3 8 -4.5 16.5t-1.5 18.5q0 17 6 25t13 11q6 2 11 2.5t7 0.5q13 0 20.5 -7t10.5 -16q2 -4 2.5 -8.5t0.5 -7.5q0 -10 -4 -24t-9 -30q-6 -17 -10 -35t-4 -38v-25l7 4q15 8 27.5 18.5t23.5 21.5q16 16 29 31t25 24q5 4 11 6.5t12 2.5q3 0 7 -0.5t8 -2.5
q8 -3 14.5 -11t6.5 -22q0 -24 -11 -31.5t-31 -11.5q-21 -4 -51.5 -12t-69.5 -32l8 -4q29 -19 56 -25.5t48 -11.5q24 -4 38 -12t14 -31q0 -18 -11 -27t-25 -9q-12 0 -21.5 6.5t-19.5 16.5q-7 7 -14 15.5t-15 17.5q-12 14 -26 26.5t-33 20.5l-7 4v-7q0 -38 4.5 -60.5
t9.5 -37.5q4 -10 7 -17t5 -14q1 -3 1.5 -6.5t0.5 -7.5v-4t-1 -5q-3 -12 -12.5 -22.5t-25.5 -10.5h-1.5h-1.5q-12 1 -22 11t-10 28q0 10 4.5 23.5t9.5 29.5t9.5 34.5t4.5 38.5v9.5t-1 9.5l-1 8q-21 -15 -32 -22.5t-18 -13.5l-3.5 -3.5t-3.5 -2.5q-4 -4 -8.5 -9t-10.5 -12
q-15 -17 -23.5 -26t-16.5 -13q-4 -2 -9 -3t-12 -1q-13 0 -20.5 6t-10.5 13q-2 4 -2.5 7t-0.5 6v1z" />
    <glyph glyph-name="plus" unicode="+" horiz-adv-x="564" 
d="M249 286v220h66v-220h219v-66h-219v-220h-66v220h-219v66h219v0z" />
    <glyph glyph-name="comma" unicode="," 
d="M83 -141l-9 19q5 3 10 6.5t9 6.5q38 29 50.5 54.5t12.5 38.5q0 7 -4.5 10.5t-9.5 3.5q-1 0 -3.5 -0.5t-5.5 -1.5q-2 -1 -6 -1.5t-9 -0.5q-4 0 -8.5 0.5t-9.5 1.5q-16 3 -30 13.5t-14 33.5q0 26 13.5 39t29.5 17q4 1 7.5 1.5t7.5 0.5q6 0 16 -2t20 -7q17 -8 31 -28t14 -59
q0 -32 -19 -61.5t-42 -50.5q-15 -13 -28.5 -22t-22.5 -12v0z" />
    <glyph glyph-name="hyphen" unicode="-" horiz-adv-x="333" 
d="M39 257h246v-63h-246v63v0z" />
    <glyph glyph-name="period" unicode="." 
d="M125 -11q-4 0 -9 1t-10 3q-14 5 -25 16.5t-11 32.5q0 24 16.5 40.5t38.5 16.5q23 0 39.5 -17t16.5 -40q0 -20 -11 -31.5t-25 -17.5q-5 -2 -10 -3t-10 -1v0z" />
    <glyph glyph-name="slash" unicode="/" horiz-adv-x="278" 
d="M287 676l-228 -690h-68l229 690h67v0z" />
    <glyph glyph-name="zero" unicode="0" horiz-adv-x="500" 
d="M250 676q93 -1 141.5 -66t67.5 -142q10 -38 13.5 -73.5t3.5 -64.5t-3.5 -64t-12.5 -71q-18 -79 -66.5 -144t-143.5 -65t-143.5 65t-66.5 144q-9 36 -12.5 71t-3.5 64t3.5 64.5t13.5 73.5q19 77 67.5 142t141.5 65v1zM250 650q-56 -1 -82.5 -53.5t-37.5 -115.5
q-7 -46 -8.5 -87.5t-1.5 -63.5q0 -24 1 -63.5t8 -82.5q9 -65 36 -119t85 -54q57 0 84 53.5t37 118.5q7 43 8 83t1 64q0 22 -1.5 63.5t-8.5 87.5q-11 63 -37.5 115.5t-82.5 52.5v1z" />
    <glyph glyph-name="one" unicode="1" horiz-adv-x="500" 
d="M118 0v15q44 1 69.5 11.5t25.5 65.5v454v4.5v4.5q-1 14 -7 25.5t-27 11.5h-3h-3q-6 -1 -16.5 -4.5t-45.5 -17.5v15l180 91l8 -2v-600q0 -37 19.5 -48.5t75.5 -11.5v-14h-276v0z" />
    <glyph glyph-name="two" unicode="2" horiz-adv-x="500" 
d="M475 137l-55 -137h-390v12l178 189q65 69 97.5 135t32.5 122q0 12 -2 26t-7 29q-11 33 -42 60.5t-92 27.5q-53 0 -81.5 -28.5t-44.5 -62.5q-5 -10 -9 -20t-8 -19l-21 6q21 103 75 147t114 50q6 0 11.5 0.5t11.5 0.5q68 0 124.5 -48t56.5 -132q0 -54 -24 -101.5t-53 -84.5
q-14 -17 -27 -32t-24 -26l-168 -175h239q13 -1 23.5 0.5t21.5 6.5q11 6 23 19.5t27 38.5l13 -4v0z" />
    <glyph glyph-name="three" unicode="3" horiz-adv-x="500" 
d="M153 330l-1 13q68 21 117 60t49 108v2.5v3.5q-2 36 -29.5 67t-80.5 31q-42 0 -70.5 -18t-46.5 -40q-11 -14 -19 -27t-12 -21l-15 5q21 67 56 102t73 48q18 6 34.5 8.5t32.5 2.5q62 0 95 -24t47 -53q8 -16 11 -31.5t3 -26.5q0 -40 -21.5 -74t-71.5 -66q11 -5 24.5 -11
t27.5 -16q28 -19 51.5 -55.5t23.5 -102.5q0 -106 -79.5 -167.5t-197.5 -61.5q-8 0 -22.5 1t-29.5 5q-22 5 -40.5 16t-18.5 34q0 16 8.5 23.5t18.5 10.5q3 0 6 0.5t6 0.5q10 0 19 -3t18 -7q7 -4 14.5 -8.5t15.5 -9.5q17 -10 35.5 -19t40.5 -9q66 0 98.5 44.5t35.5 98.5v5.5
v5.5q0 10 -3.5 29.5t-13.5 40.5q-9 18 -23 34.5t-36 27.5q-5 3 -10 5.5t-10 4.5q-17 7 -36 9.5t-49 2.5h-12h-13v1z" />
    <glyph glyph-name="four" unicode="4" horiz-adv-x="500" 
d="M472 231v-64h-102v-167h-77v167h-281v64l314 445h44v-445h102v0zM292 231v340h-2l-238 -340h240v0z" />
    <glyph glyph-name="five" unicode="5" horiz-adv-x="500" 
d="M181 583l-42 -85q17 -4 35 -7.5t36 -7.5q45 -11 87.5 -30.5t74.5 -58.5q9 -11 16 -20.5t13 -19.5q14 -24 19.5 -53t5.5 -77q0 -100 -74.5 -169t-193.5 -69q-59 0 -92.5 16t-33.5 43q0 3 0.5 8t1.5 10q3 8 11.5 14.5t26.5 6.5q24 0 42 -9.5t34 -21.5q3 -2 5.5 -3.5
t4.5 -3.5q14 -10 28 -17t31 -7q5 0 10.5 0.5t10.5 1.5q44 8 81 51t37 125q0 86 -57.5 132t-125.5 64q-27 7 -53 10.5t-49 4.5q-3 0 -5 2t-2 6v1.5v1.5l0.5 0.5t0.5 1.5l109 238h209q17 -1 26 5t17 15q0 2 1 3l2 2l9 -6l-38 -89q-2 -8 -8.5 -9t-14.5 -1l-196 1v0z" />
    <glyph glyph-name="six" unicode="6" horiz-adv-x="500" 
d="M446 684l2 -16q-119 -20 -191 -92t-96 -154q-3 -10 -5 -20l-4 -20q20 12 35.5 20.5t29.5 14.5q14 5 30 7.5t37 2.5q80 0 132 -54.5t52 -155.5q0 -19 -4 -45t-14 -53q-19 -50 -64 -91.5t-132 -41.5q-88 0 -154 73.5t-66 230.5q0 152 115.5 269.5t296.5 123.5v1zM242 382
q-4 -1 -8 -1t-8 -1q-22 -1 -42.5 -8.5t-36.5 -22.5q-7 -7 -13.5 -28t-6.5 -66q0 -126 43 -184t99 -58q47 0 78 40t31 125q0 77 -28 140t-108 63v1z" />
    <glyph glyph-name="seven" unicode="7" horiz-adv-x="500" 
d="M449 662v-16l-212 -654h-65l198 596h-217q-37 -1 -57 -13t-37 -35q-5 -8 -10.5 -16.5t-11.5 -17.5l-17 9l43 103l16 44h370v0z" />
    <glyph glyph-name="eight" unicode="8" horiz-adv-x="500" 
d="M56 146q0 38 11.5 64.5t34.5 51.5q16 15 36.5 32t47.5 37q-29 26 -51 46t-37 39q-18 23 -27 47t-9 57q0 66 48 104.5t105 47.5q9 2 17.5 2.5t16.5 0.5q85 0 130 -42.5t45 -99.5q0 -52 -28.5 -84.5t-62.5 -54.5q-11 -7 -22 -13t-21 -11q81 -58 113 -101t39 -82
q2 -10 2.5 -19t0.5 -19q0 -14 -3.5 -32t-12.5 -37q-17 -36 -59.5 -65t-123.5 -29q-89 0 -137 46t-53 102v5.5v5.5v1zM212 312q-6 -6 -12.5 -11.5t-13.5 -12.5q-20 -19 -37 -50.5t-17 -82.5q0 -58 33 -100t94 -42q47 0 78.5 30t31.5 82q0 25 -7 45t-22 38q-19 22 -50 46
t-78 57v1zM136 547q0 -38 22 -68t48 -52q16 -13 30.5 -23t24.5 -16q7 5 14.5 10t15.5 11q24 19 44 49t20 80q0 41 -27 75t-85 34q-51 0 -76.5 -27.5t-29.5 -61.5q-1 -3 -1 -6v-6v1z" />
    <glyph glyph-name="nine" unicode="9" horiz-adv-x="500" 
d="M59 -22l-3 20q87 13 144 54.5t91 88.5q36 51 51 94.5t17 53.5l-2 3q-25 -22 -53 -35t-56 -18q-10 -1 -19.5 -2t-18.5 -1q-78 0 -118.5 43.5t-53.5 95.5q-4 15 -6 30t-2 29q0 100 56.5 170.5t153.5 70.5q92 0 155.5 -77.5t63.5 -202.5q0 -159 -104.5 -282t-295.5 -135v0z
M362 355v39q0 17 -1 49.5t-8 68.5q-10 50 -37.5 92.5t-86.5 42.5q-56 0 -79.5 -46.5t-26.5 -102.5q-1 -6 -1 -12.5v-13.5q0 -15 1 -31.5t5 -33.5q8 -48 35.5 -88t86.5 -40q7 0 15 1t16 3q18 5 34 12.5t28 15.5q0 1 1 1.5t2 1.5q10 8 13 17.5t3 22.5v1z" />
    <glyph glyph-name="colon" unicode=":" horiz-adv-x="278" 
d="M136 -11q-4 0 -9 1t-10 3q-14 5 -25 16.5t-11 32.5q0 24 16.5 40.5t38.5 16.5q23 0 39.5 -17t16.5 -40q0 -20 -11 -31.5t-25 -17.5q-5 -2 -10 -3t-10 -1v0zM136 348q-4 -1 -9 0t-10 3q-14 5 -25 17t-11 33q0 24 16.5 40.5t38.5 16.5q23 0 39.5 -17t16.5 -40
q0 -20 -11 -32t-25 -18q-5 -2 -10 -3t-10 -1v1z" />
    <glyph glyph-name="semicolon" unicode=";" horiz-adv-x="278" 
d="M107 -141l-9 19q5 3 10 6.5t9 6.5q38 29 50.5 54.5t12.5 38.5q0 7 -4.5 10.5t-9.5 3.5q-1 0 -3.5 -0.5t-5.5 -1.5q-2 -1 -6 -1.5t-9 -0.5q-24 0 -43 10.5t-19 38.5q0 23 9.5 35t21.5 17q8 4 16 5t12 1q6 0 16 -2t20 -7q17 -9 30.5 -29t13.5 -58q0 -32 -19.5 -62.5
t-43.5 -51.5q-14 -12 -27 -20.5t-22 -11.5v0zM136 348q-4 -1 -9 0t-10 3q-14 5 -25 17t-11 33q0 24 16.5 40.5t38.5 16.5q23 0 39.5 -17t16.5 -40q0 -20 -11 -32t-25 -18q-5 -2 -10 -3t-10 -1v1z" />
    <glyph glyph-name="less" unicode="&#x3c;" horiz-adv-x="564" 
d="M536 60v-68l-508 230v62l508 230v-68l-425 -193l425 -193v0z" />
    <glyph glyph-name="equal" unicode="=" horiz-adv-x="564" 
d="M534 186v-66h-504v66h504v0zM534 386v-66h-504v66h504v0z" />
    <glyph glyph-name="greater" unicode="&#x3e;" horiz-adv-x="564" 
d="M28 60l425 193l-425 193v68l508 -230v-62l-508 -230v68v0z" />
    <glyph glyph-name="question" unicode="?" horiz-adv-x="444" 
d="M237 -8q-4 0 -8.5 0.5t-9.5 2.5q-13 4 -24 15t-11 32q0 23 15.5 38.5t37.5 15.5q23 0 39 -16t16 -38t-13 -33.5t-28 -14.5q-4 -1 -7.5 -1.5t-6.5 -0.5v0zM244 164h-17q0 6 0.5 13t1.5 14q2 19 5.5 37t8.5 34q4 16 8 27.5t6 15.5l28 65q1 1 1.5 2.5t1.5 2.5q6 15 12 32.5
t10 36.5q6 20 9 39.5t3 34.5v8.5t-1 8.5q-4 41 -30.5 75.5t-78.5 34.5q-5 0 -9.5 -0.5t-9.5 -1.5q-28 -5 -51 -21.5t-23 -37.5q0 -8 3.5 -14.5t9.5 -12.5q1 -2 2.5 -3.5l3.5 -3.5q7 -8 13 -17.5t6 -23.5q0 -3 -0.5 -6t-1.5 -6q-3 -11 -12 -20t-25 -9q-30 0 -40 19t-10 44
q0 60 36.5 93.5t80.5 44.5q12 3 23.5 4.5t22.5 1.5q8 0 15.5 -0.5t15.5 -2.5q36 -5 68.5 -21t47.5 -34q5 -6 9.5 -12t7.5 -12q11 -17 15 -36t4 -48q0 -13 -4 -28t-10 -31q-7 -17 -17 -33.5t-20 -31.5q-6 -9 -12 -17t-12 -15q-14 -16 -25.5 -31t-21.5 -29q-18 -28 -29.5 -58
t-18.5 -72v1z" />
    <glyph glyph-name="at" unicode="@" horiz-adv-x="921" 
d="M688 73l12 -30q-47 -23 -98.5 -40t-110.5 -17q-149 0 -236 70t-119 155q-10 27 -15 53t-5 50q0 162 108.5 261.5t256.5 99.5q138 0 233 -84t95 -211q0 -15 -2 -31.5t-6 -32.5q-16 -65 -61.5 -119.5t-116.5 -54.5q-28 0 -46 11.5t-28 25.5q-8 10 -11.5 19.5t-3.5 13.5v1v0
l-2 1q-3 -7 -11 -15.5t-19 -17.5q-16 -13 -37.5 -24t-47.5 -14h-1.5h-1.5q-8 0 -18 1.5t-21 7.5q-20 9 -37 35t-17 80q0 19 6.5 47t19.5 58q22 51 64.5 93t106.5 42q30 0 43.5 -13.5t22.5 -29.5q1 -2 2 -3.5t2 -3.5l0.5 -0.5t0.5 -1.5l10 39h69l-65 -254q-1 -5 -1.5 -10
t-0.5 -12v-5t1 -5q2 -12 10 -22.5t27 -10.5q48 0 80 45.5t43 100.5q4 15 5.5 29.5t1.5 28.5q0 17 -3 34.5t-9 35.5q-24 73 -95 134t-181 61q-115 0 -198 -86.5t-83 -253.5q0 -107 80 -193.5t210 -86.5q59 0 100 11.5t78 27.5q5 2 10 4.5t10 4.5v1zM572 399q0 31 -10 47.5
t-33 16.5q-11 0 -25 -5.5t-29 -15.5q-31 -22 -57 -66t-26 -106q0 -45 18.5 -64.5t44.5 -19.5q9 0 19 4.5t21 13.5q25 22 47.5 70.5t29.5 123.5v1z" />
    <glyph glyph-name="A" unicode="A" horiz-adv-x="722" 
d="M706 19v-19h-255v19q28 -1 49 4t21 33q0 6 -2 14t-5 16q-1 3 -2 6.5t-2 6.5q-2 6 -4 11t-4 9l-41 97h-262l-46 -117q-1 -3 -2 -5.5t-1 -5.5q-3 -7 -4 -14.5t-1 -13.5q0 -20 12 -29t27 -11q8 -2 15.5 -2h13.5v-18h-198v19q12 0 25 3.5t26 17.5q7 8 14.5 20.5t15.5 27.5
q5 9 9 18l8 18q8 16 14.5 31t11.5 27l208 492h20l249 -568q9 -22 16.5 -36t14.5 -24q12 -16 25 -21.5t34 -6.5v1zM216 257h231l-116 275l-115 -275v0z" />
    <glyph glyph-name="B" unicode="B" horiz-adv-x="667" 
d="M17 643v19h280q22 -1 50 -3t57 -7q58 -12 106.5 -47.5t48.5 -112.5q0 -56 -25 -84.5t-54 -42.5q-15 -6 -29 -10t-25 -7v-1q65 -14 116 -53.5t51 -118.5q0 -12 -4.5 -35t-19.5 -48q-21 -35 -71 -63.5t-147 -28.5h-334v19q63 1 79.5 18.5t16.5 70.5v445q0 55 -17 70.5
t-79 18.5v1zM215 326v-248q0 -29 16.5 -35.5t59.5 -6.5q15 0 34 1t39 5q43 9 78.5 38.5t35.5 98.5q0 62 -31 90.5t-70 40.5q-1 0 -1.5 0.5t-1.5 0.5q-25 7 -57 10.5t-102 3.5v1zM215 595v-230l95 1q9 -1 29 0.5t42 8.5q28 10 52 35t24 76q0 68 -37.5 97t-82.5 37
q-14 2 -28 3t-27 1h-14.5h-12.5q-5 -1 -9.5 -1h-8.5q-15 0 -18.5 -9t-3.5 -20v1z" />
    <glyph glyph-name="C" unicode="C" horiz-adv-x="667" 
d="M620 451h-23q-19 78 -73.5 131t-146.5 53q-12 0 -25.5 -1.5t-26.5 -5.5q-26 -6 -51.5 -19.5t-46.5 -34.5l-6 -6t-6 -7q-27 -29 -49 -82.5t-22 -150.5q0 -159 75.5 -229t169.5 -70q58 0 101.5 18t73.5 39q17 12 29.5 24t21.5 20l18 -17q0 -2 -16.5 -21.5t-49.5 -42.5
q-33 -24 -84 -43.5t-121 -19.5q-8 0 -16 0.5t-15 0.5q-114 9 -208.5 88.5t-94.5 254.5q0 168 105.5 256.5t234.5 88.5q33 0 62 -5t51 -11q23 -7 39 -12t24 -5q2 0 9 0.5t15 4.5q7 3 13 9.5t9 18.5l21 1l9 -225v0z" />
    <glyph glyph-name="D" unicode="D" horiz-adv-x="722" 
d="M16 0v19q57 2 72.5 19.5t15.5 69.5v445q0 55 -15 70t-73 19v20h270q180 -1 289.5 -83.5t109.5 -250.5q0 -24 -4 -50.5t-12 -54.5q-27 -84 -111 -153.5t-258 -69.5h-284v0zM206 586v-508q0 -26 12 -34t48 -8q20 0 61 3t86 19q61 23 112 83.5t51 185.5q0 63 -20.5 122
t-72.5 105q-36 32 -85.5 51t-144.5 19q-35 0 -41 -12t-6 -27v1z" />
    <glyph glyph-name="E" unicode="E" horiz-adv-x="611" 
d="M597 169l-45 -169h-540v19q48 2 67.5 16.5t19.5 72.5v445q0 58 -20 71.5t-67 17.5v20h531l3 -143h-25q-11 66 -40 85t-112 19l-135 1q-16 -1 -24.5 -5t-8.5 -30v-221h154q66 -1 83.5 19.5t26.5 71.5v1.5v1.5l23 1v-232h-23q-9 59 -28.5 76t-81.5 18l-154 3v-248
q0 -32 18.5 -37.5t130.5 -5.5q94 0 140 27.5t79 103.5l28 1v0z" />
    <glyph glyph-name="F" unicode="F" horiz-adv-x="556" 
d="M479 231h-23q-8 62 -31 77.5t-79 16.5l-145 3v-219q0 -57 19 -73t72 -18v-18h-280v19q56 2 71.5 20.5t15.5 79.5v434q0 58 -20 71.5t-67 17.5v20h531l3 -143h-25q-11 66 -40 85t-112 19l-136 1q-19 -1 -25.5 -6.5t-6.5 -28.5v-221h145q62 -1 82.5 18.5t27.5 75.5l23 1
v-232v0z" />
    <glyph glyph-name="G" unicode="G" horiz-adv-x="722" 
d="M709 354v-18q-1 -1 -2 -1h-2q-31 -3 -48.5 -14t-17.5 -63v-200q0 -6 -17 -15.5t-45 -19.5q-27 -11 -61.5 -20t-69.5 -14q-13 -1 -25.5 -2t-24.5 -1q-17 0 -34.5 1t-35.5 4q-59 9 -114.5 33t-96.5 68q-40 44 -61.5 97t-21.5 151q0 126 91.5 230.5t250.5 104.5q38 0 66 -5
t49 -11q21 -7 36.5 -12t27.5 -5q3 0 9.5 1t13.5 4q8 4 15 10.5t9 17.5l22 1l8 -211h-23q-4 11 -9.5 23t-11.5 25q-24 46 -69.5 84t-128.5 38q-19 0 -39.5 -3.5t-42.5 -11.5q-60 -23 -110 -92t-50 -209q0 -136 71.5 -215t187.5 -79h1.5h1.5q50 0 92 16t42 43v163
q0 58 -16.5 71t-62.5 16q-2 0 -4.5 0.5t-4.5 0.5v19h255v0z" />
    <glyph glyph-name="H" unicode="H" horiz-adv-x="722" 
d="M19 0v19q63 2 75.5 23t12.5 77v434q0 55 -16 70t-72 19v20h278v-19q-57 -5 -72.5 -21.5t-15.5 -69.5v-193h303v194q0 55 -16 70t-72 19v20h278v-19q-57 -5 -72.5 -21.5t-15.5 -69.5v-443q0 -50 15 -68.5t73 -22.5v-18h-278v19q63 2 75.5 23t12.5 77v196h-303v-206
q0 -50 15 -68.5t73 -22.5v-18h-278v0z" />
    <glyph glyph-name="I" unicode="I" horiz-adv-x="333" 
d="M18 0v19q64 1 80.5 18.5t16.5 70.5v445q0 55 -17.5 70.5t-79.5 18.5v20h297v-19q-55 -3 -76.5 -17t-21.5 -74v-443q0 -59 21.5 -74t76.5 -17v-18h-297v0z" />
    <glyph glyph-name="J" unicode="J" horiz-adv-x="389" 
d="M278 553v-370q0 -81 -27 -122t-59 -57q-26 -13 -49.5 -15.5t-32.5 -2.5q-29 0 -47.5 7t-27.5 14l-1.5 1.5l-1.5 1.5q-12 14 -17 26t-5 22q0 4 1 8t3 9q4 12 15 22t27 10q26 0 36.5 -13t15.5 -29l2 -6l2 -6q3 -12 8 -21t17 -9q18 0 28.5 13.5t10.5 52.5v464q0 52 -16 68.5
t-77 20.5v20h287v-19q-58 -5 -75 -20t-17 -71v1z" />
    <glyph glyph-name="K" unicode="K" horiz-adv-x="722" 
d="M413 643v19h262v-19q-1 -1 -2.5 -1h-2.5q-18 -2 -32 -4t-27 -7q-18 -7 -38 -22.5t-50 -44.5l-190 -187l233 -250q28 -32 49.5 -54t41.5 -36q15 -9 30 -14t32 -5h0.5h1.5h1.5h0.5v-18h-305v19q2 -1 3.5 -1h3.5q36 2 49.5 5.5t13.5 19.5q0 12 -16 35.5t-38 49.5
q-4 5 -8.5 10t-8.5 10q-17 19 -33 36t-26 27l-106 106l-26 -21v-187q0 -53 16 -70.5t74 -20.5v-18h-282v19q59 2 74.5 20.5t15.5 79.5v434q0 58 -19.5 71.5t-70.5 17.5v20h284v-19q-58 -5 -75 -20t-17 -71v-204q163 145 208 190t47 69v2v2q0 20 -15.5 25t-52.5 6v1z" />
    <glyph glyph-name="L" unicode="L" horiz-adv-x="611" 
d="M294 662v-19q-51 -4 -72 -18t-21 -73v-472q0 -31 19.5 -36.5t81.5 -5.5q113 0 170.5 18.5t100.5 116.5l25 1l-48 -174h-538v19q48 2 67.5 16.5t19.5 72.5v445q0 58 -20 71.5t-67 17.5v20h282v0z" />
    <glyph glyph-name="M" unicode="M" horiz-adv-x="889" 
d="M863 662v-19q-47 -5 -67 -18.5t-20 -72.5v-443q0 -59 19.5 -73.5t67.5 -17.5v-18h-280v19q59 2 75 20.5t16 79.5v450h-2l-254 -569h-14l-249 546h-2v-399q0 -78 19.5 -102.5t74.5 -26.5v-18h-235v19q57 3 77 24.5t20 102.5v407q0 58 -19.5 72t-75.5 17v20h198l231 -505
l221 505h199v0z" />
    <glyph glyph-name="N" unicode="N" horiz-adv-x="722" 
d="M707 662v-19q-1 -1 -2.5 -1t-2.5 -1q-45 -5 -67.5 -23.5t-22.5 -103.5v-525h-17l-440 548h-2v-390q0 -78 19.5 -102.5t74.5 -26.5v-18h-235v19q57 3 77 24.5t20 102.5v442q-16 18 -27.5 29t-22.5 17q-10 5 -21 6.5t-26 1.5v20h171l383 -481h2v334q0 85 -22.5 104
t-73.5 23v20h235v0z" />
    <glyph glyph-name="O" unicode="O" horiz-adv-x="722" 
d="M361 -14q-136 0 -231.5 91.5t-95.5 251.5q0 173 102 259.5t225 86.5t225 -86.5t102 -259.5q0 -160 -95.5 -251.5t-231.5 -91.5v0zM361 22q83 -1 148 71t65 237q0 158 -59.5 228.5t-130.5 79.5q-6 0 -11.5 0.5t-11.5 0.5t-11.5 -0.5t-11.5 -0.5q-71 -9 -130.5 -79.5
t-59.5 -228.5q0 -165 65 -237t148 -72v1z" />
    <glyph glyph-name="P" unicode="P" horiz-adv-x="556" 
d="M16 643v19h264q104 -1 183 -43.5t79 -137.5q0 -36 -10.5 -62t-23.5 -43q-8 -11 -15 -18l-12 -12q-32 -31 -82.5 -45t-129.5 -14h-17t-16 1q-9 0 -17 0.5t-17 1.5v-181q0 -56 18 -72.5t76 -18.5v-18h-280v19q63 4 73.5 25t10.5 75v434q0 52 -14.5 68t-69.5 21v1zM202 591
v-260q14 -2 29 -3t31 -1q12 0 34 1.5t47 9.5q34 12 62 43.5t28 97.5q0 63 -31.5 93t-69.5 41q-27 8 -51 9.5t-38 1.5q-22 0 -31.5 -4.5t-9.5 -29.5v1z" />
    <glyph glyph-name="Q" unicode="Q" horiz-adv-x="722" 
d="M701 -159v-18q-5 0 -10.5 -0.5t-11.5 -0.5h-13.5h-11.5q-100 0 -191.5 27.5t-150.5 94.5l-47 55q-17 4 -36 11.5t-38 19.5q-59 34 -108 106.5t-49 192.5q0 172 102 259t225 87t225 -86.5t102 -259.5q0 -127 -57 -204t-126 -109q-20 -10 -40 -15.5t-39 -7.5q3 -6 13 -17
t21 -24q2 -1 4 -3t3 -4q12 -11 22 -20.5t16 -14.5q35 -28 81 -48t115 -21v0zM361 640q-6 -1 -11.5 -1.5t-11.5 -0.5q-71 -9 -130.5 -79.5t-59.5 -229.5q0 -164 65 -236t148 -72t148 72t65 236q0 159 -59.5 229.5t-130.5 79.5q-6 0 -11.5 0.5t-11.5 0.5v1z" />
    <glyph glyph-name="R" unicode="R" horiz-adv-x="667" 
d="M659 19v-19h-161l-238 308l-56 -2v-197q0 -51 15 -69.5t75 -21.5v-18h-277v19q61 3 73 23.5t12 76.5v434q0 55 -16 69.5t-69 19.5v20h276q21 -1 47 -3t52 -8q58 -12 106.5 -49t48.5 -116q0 -63 -31.5 -96t-69.5 -49q-23 -10 -44.5 -15t-35.5 -8l206 -252
q17 -21 36.5 -33.5t50.5 -14.5v1zM204 589v-246q19 -1 42 0t47 4q55 8 100 37.5t45 103.5q0 59 -29 87t-63 39q-24 7 -45.5 8.5t-34.5 1.5q-40 0 -51 -7t-11 -29v1z" />
    <glyph glyph-name="S" unicode="S" horiz-adv-x="556" 
d="M447 676l22 -213h-25q-1 4 -2.5 9t-2.5 10q-17 57 -63 104.5t-118 47.5h-1.5h-1.5q-37 -1 -67.5 -24t-30.5 -69t37 -79t87 -62q10 -7 21 -13t22 -13q63 -37 115 -84t52 -124q0 -7 -0.5 -13.5t-1.5 -12.5q-10 -58 -61.5 -106t-147.5 -48q-28 0 -52 5.5t-43 10.5
q-19 6 -34 11.5t-26 5.5q-15 0 -22.5 -9.5t-8.5 -19.5v-1.5v-1.5h-22l-30 212h23q6 -15 15.5 -36.5t24.5 -44.5q24 -36 63.5 -66.5t101.5 -30.5q57 0 87 32t33 71v4v4q0 13 -1.5 25t-6.5 23q-11 26 -45 55t-110 74q-10 6 -19 11.5t-18 10.5q-54 33 -86.5 71.5t-32.5 102.5
q0 85 55.5 127t122.5 43h1.5h1.5q23 0 44 -5.5t39 -11.5t32.5 -11.5t23.5 -5.5q14 0 21 6t10 14q2 4 2.5 7.5t1.5 6.5l21 1v0z" />
    <glyph glyph-name="T" unicode="T" horiz-adv-x="611" 
d="M452 19v-19h-292v19q68 2 81 23.5t13 76.5v501h-54q-82 -1 -112 -24t-47 -105l-24 1l6 170h564l6 -170h-24q-16 82 -46 104.5t-113 22.5l-54 1v-511q0 -52 16.5 -70.5t79.5 -20.5v1z" />
    <glyph glyph-name="U" unicode="U" horiz-adv-x="722" 
d="M705 662v-19q-58 -7 -76 -28.5t-18 -100.5v-260q0 -23 -1.5 -54t-11.5 -63q-16 -57 -69.5 -104t-176.5 -47q-110 0 -161.5 42t-69.5 93q-13 36 -15 68.5t-2 50.5v313q0 55 -16.5 70t-73.5 19v20h283v-19q-59 -5 -75 -21.5t-16 -69.5v-319q0 -18 1 -40.5t6 -46.5
q11 -44 46.5 -80.5t120.5 -36.5q59 0 100.5 22t63.5 57q10 17 16.5 46t6.5 90v271q0 79 -20.5 101.5t-73.5 25.5v20h232v0z" />
    <glyph glyph-name="V" unicode="V" horiz-adv-x="722" 
d="M697 662v-19q-24 -3 -39 -10t-27 -28q-6 -10 -12.5 -24t-13.5 -32l-222 -560h-15l-246 549q-14 29 -24.5 48.5t-20.5 30.5q-13 15 -27 19.5t-34 5.5v20h266v-19q-1 -1 -2.5 -1h-2.5q-39 -2 -54.5 -8t-15.5 -29q0 -11 12 -40t29 -67l151 -337l147 367q1 1 3.5 8.5
l5.5 16.5q2 4 3 7.5t2 6.5q2 8 3.5 15.5t1.5 13.5q0 31 -22 38t-51 8v20h205v0z" />
    <glyph glyph-name="W" unicode="W" horiz-adv-x="944" 
d="M932 662v-19q-37 -7 -52.5 -20t-26.5 -42q-18 -48 -36.5 -98t-37.5 -102q-12 -34 -24.5 -68.5t-24.5 -68.5q-23 -65 -44.5 -129.5t-40.5 -125.5h-15q-13 39 -34.5 96.5t-44.5 117.5q-2 4 -3.5 8.5t-2.5 8.5q-21 53 -40.5 103.5t-34.5 87.5l-154 -422h-15
q-16 47 -37.5 108.5t-45.5 126.5q-1 5 -3 9.5t-3 9.5q-31 86 -59.5 163t-44.5 119q-7 18 -13 33t-12 27q-14 29 -31 41.5t-47 15.5v20h245v-19q-34 -2 -49.5 -8.5t-15.5 -26.5q0 -4 1 -9l2 -10t2.5 -10t3.5 -9q0 -2 0.5 -3.5t1.5 -2.5l144 -375l107 282l-33 82
q-8 19 -15 33.5t-13 24.5q-14 20 -30 25t-43 6v20h267v-19q-6 -1 -12 -1t-13 -1q-19 -1 -35.5 -9t-16.5 -28q0 -13 8 -31t19 -47l132 -340l125 339q3 7 6 16t5 19t3.5 19t1.5 17q0 28 -20.5 35.5t-45.5 10.5h-1.5h-1.5v20h198v0z" />
    <glyph glyph-name="X" unicode="X" horiz-adv-x="722" 
d="M696 662v-19q0 -1 -0.5 -1h-1.5q-14 -1 -26.5 -3t-24.5 -6q-20 -7 -41.5 -26t-54.5 -59l-146 -181l192 -274q11 -16 20 -27.5t18 -19.5q15 -14 32 -20t41 -8v-18h-297v19q3 -1 6.5 -0.5t6.5 0.5q31 2 47.5 7t16.5 26q0 7 -6.5 21t-15.5 29l-4 6t-3 6q-6 10 -12 18.5
t-10 14.5l-95 141l-119 -148q-4 -6 -8 -11t-9 -11q-2 -3 -4.5 -6.5t-5.5 -7.5q-10 -14 -17.5 -27t-7.5 -22q0 -24 23.5 -29.5t52.5 -7.5v-18h-233v19q16 0 28 3t23 9q17 11 37.5 34t56.5 67l157 194l-109 160q-53 76 -81.5 107t-52.5 41q-10 3 -20.5 5t-23.5 3h-1h-2v20h302
v-19q-39 -2 -57.5 -6t-18.5 -27q0 -15 17.5 -46t67.5 -102l42 -58l113 138q17 21 28.5 37t11.5 30q0 22 -20 27t-45 6h-2.5h-2.5v20h238v0z" />
    <glyph glyph-name="Y" unicode="Y" horiz-adv-x="722" 
d="M703 662v-19q-2 -1 -4 -1.5t-4 -0.5q-25 -3 -53.5 -21.5t-76.5 -91.5l-148 -225v-194q0 -55 18 -72.5t85 -18.5v-18h-306v19q74 1 87.5 22t13.5 78v175l-131 192q-57 83 -84 113t-47 38q-7 2 -14.5 3t-15.5 2h-0.5h-0.5v20h280v-19q-1 -1 -2.5 -1h-2.5q-32 -2 -49 -6.5
t-17 -24.5q0 -5 2 -11t5 -13q2 -5 4.5 -10t5.5 -9l148 -221l143 226q5 7 9.5 16.5t4.5 19.5q0 20 -17 26t-37 7h-7.5h-7.5v20h219v0z" />
    <glyph glyph-name="Z" unicode="Z" horiz-adv-x="611" 
d="M574 176h23l-24 -176h-564v15l437 609h-221q-106 -1 -132 -42t-36 -90v-1.5v-0.5l-26 1l20 171h526v-15l-432 -609h257q96 -1 125 38.5t45 92.5q1 2 1.5 3.5t0.5 2.5v1z" />
    <glyph glyph-name="bracketleft" unicode="[" horiz-adv-x="333" 
d="M299 637h-90q-22 -1 -31 -9t-12 -18q-2 -5 -2 -9.5v-8.5v-671q0 -4 0.5 -10.5t2.5 -13.5q4 -11 14 -19.5t32 -8.5h86v-25h-211v818h211v-25v0z" />
    <glyph glyph-name="backslash" unicode="\" horiz-adv-x="278" 
d="M-9 676h67l229 -690h-68l-228 690v0z" />
    <glyph glyph-name="bracketright" unicode="]" horiz-adv-x="333" 
d="M34 -131h90q22 0 31 8t12 18q2 5 2 9.5v8.5v672q0 3 -0.5 9.5t-2.5 13.5q-4 11 -14 19.5t-32 8.5l-86 1v25h211v-818h-211v25v0z" />
    <glyph glyph-name="asciicircum" unicode="^" horiz-adv-x="469" 
d="M92 297h-68l181 365h60l181 -365h-68l-143 289l-143 -289v0z" />
    <glyph glyph-name="underscore" unicode="_" horiz-adv-x="500" 
d="M500 -125h-500v50h500v-50v0z" />
    <glyph glyph-name="grave" unicode="`" horiz-adv-x="333" 
d="M242 507h-40l-154 97q-2 0 -4 2t-5 3q-7 7 -13.5 16t-6.5 21q0 1 0.5 5.5t3.5 9.5q3 6 9.5 11t18.5 5h7.5t6.5 -1q6 -2 12 -6.5t18 -15.5l147 -147v0z" />
    <glyph glyph-name="a" unicode="a" horiz-adv-x="444" 
d="M442 66v-26q-31 -38 -54 -44t-35 -6q-5 0 -13 0.5t-16 4.5q-12 5 -23 19.5t-13 47.5q-4 -4 -8.5 -7.5t-9.5 -7.5q-26 -22 -59 -39.5t-68 -17.5q-40 0 -73 26.5t-33 76.5q0 52 30.5 84t89.5 60q27 13 59.5 26t70.5 28v62q0 39 -16 56.5t-35 22.5q-7 2 -13.5 2.5t-12.5 0.5
h-6t-6 -1q-22 -2 -40.5 -14.5t-18.5 -33.5q0 -6 1 -11.5t2 -10.5q0 -5 1 -9.5t1 -7.5v-1.5v-1.5q-1 -15 -13.5 -27.5t-31.5 -12.5q-16 0 -25.5 8.5t-14.5 18.5q-1 5 -2 9t-1 8q0 9 3.5 20t10.5 22q16 26 52 47.5t97 21.5q80 0 109.5 -32t36.5 -70q2 -15 2.5 -30t0.5 -28
v-194q0 -23 3.5 -41t25.5 -18q14 0 24 5t18 12q1 0 1.5 0.5l1.5 1.5v1zM287 123v145q-24 -9 -43.5 -17t-35.5 -17q-57 -30 -70 -58.5t-13 -48.5v-1q0 -36 19 -57.5t47 -21.5q5 0 10 1t11 2t12 3t11 4q6 2 10.5 4.5t7.5 3.5q3 2 6 3.5t6 2.5q15 10 18.5 21t3.5 30v1z" />
    <glyph glyph-name="b" unicode="b" horiz-adv-x="500" 
d="M69 54v519q0 22 -5.5 36t-38.5 14h-5h-6t-6 -0.5t-5 -0.5v17q18 4 36 9t37 11q18 5 36 11l36 12l5 -1v-302h2q2 5 8.5 15t16.5 20q18 17 46 31t64 14q85 0 128.5 -63t48.5 -138q1 -5 1 -10.5v-10.5q0 -20 -4 -44.5t-14 -49.5q-22 -57 -75.5 -105t-150.5 -48
q-13 0 -30 2.5t-35 6.5q-33 7 -61.5 21.5t-28.5 32.5v1zM153 322v-252q0 -17 16.5 -27t35.5 -15q13 -4 25 -5.5t19 -1.5q61 0 88.5 35t36.5 78q3 17 4.5 34t1.5 32v12.5t-1 12.5q-4 64 -34 117.5t-92 53.5q-8 0 -19 -1.5t-22 -5.5q-21 -8 -39 -24t-20 -44v1z" />
    <glyph glyph-name="c" unicode="c" horiz-adv-x="444" 
d="M398 156l14 -9q-40 -86 -89.5 -121.5t-110.5 -35.5q-12 0 -25 2t-26 6q-51 16 -93.5 67.5t-42.5 146.5q0 115 63.5 176.5t139.5 69.5q5 0 10.5 0.5t10.5 0.5q8 0 17 -1t18 -3q20 -4 39 -11.5t32 -15.5q10 -7 17.5 -15t12.5 -16q7 -11 10 -21t3 -18q0 -17 -11.5 -29.5
t-34.5 -14.5h-1.5h-1.5q-16 0 -26.5 11.5t-16.5 25.5q-1 2 -1.5 4.5t-1.5 4.5l-6 23l-0.5 1.5t-0.5 2.5q-6 20 -17 31.5t-48 11.5q-10 0 -25.5 -4t-31.5 -13q-27 -17 -49.5 -54.5t-22.5 -106.5q0 -86 45 -138.5t108 -52.5q54 0 86 28t57 66v1z" />
    <glyph glyph-name="d" unicode="d" horiz-adv-x="500" 
d="M491 58v-16q-8 -4 -16 -6.5t-16 -5.5q-1 -1 -2 -1t-2 -1q-27 -9 -54 -18.5t-57 -19.5l-4 3v61h-2q-3 -5 -6.5 -9.5t-7.5 -9.5q-16 -17 -43.5 -31t-71.5 -14q-12 0 -36 4t-50 18q-36 20 -66 66t-30 135q0 98 61.5 172t145.5 74q26 0 47 -7t41 -21q4 -4 8.5 -7.5t9.5 -7.5
v157q0 22 -5.5 36t-38.5 14h-7h-9q-2 0 -4 -0.5t-4 -0.5v17q38 9 74.5 19.5t72.5 23.5l5 -1v-567q0 -29 6 -43.5t43 -14.5h3h3h1t2 1h4h5v1zM340 102v230q-5 48 -34 72.5t-63 26.5h-2.5h-3.5q-6 0 -12.5 -1t-13.5 -2q-37 -10 -67.5 -52.5t-30.5 -129.5q0 -103 38.5 -150.5
t84.5 -53.5q4 0 7.5 -0.5t7.5 -0.5q32 0 57.5 16.5t31.5 43.5v1z" />
    <glyph glyph-name="e" unicode="e" horiz-adv-x="444" 
d="M408 164l16 -7q-3 -11 -13.5 -33.5t-30.5 -47.5q-25 -33 -66 -59.5t-102 -26.5q-83 0 -135 58.5t-52 164.5q0 102 42 157t93 75q18 7 35.5 10.5t33.5 3.5q71 0 119.5 -42.5t56.5 -140.5l-311 1q7 -110 43.5 -157t79.5 -58q9 -2 18 -3t18 -1q46 0 76.5 20t50.5 44
q9 11 16 21.5t12 19.5v1zM97 309h206q-1 7 -2.5 15.5t-3.5 17.5q-7 30 -25.5 55.5t-64.5 25.5q-41 0 -69.5 -24.5t-40.5 -90.5v1z" />
    <glyph glyph-name="f" unicode="f" horiz-adv-x="333" 
d="M309 450v-32h-122v-314q0 -47 12 -67.5t81 -22.5v-14h-260v15q50 1 66.5 15.5t16.5 72.5v315h-82v32h82q0 16 1.5 45.5t10.5 61.5q13 47 50.5 86t117.5 39q42 0 71 -17.5t29 -43.5q0 -19 -11 -29t-25 -12q-2 -1 -3.5 -1h-3.5q-15 0 -24.5 10.5t-18.5 23.5q0 1 -1 2t-1 2
q-9 14 -20 25.5t-29 11.5q-32 0 -44 -19.5t-15 -43.5q0 -6 -0.5 -13t-0.5 -13v-115h123v0z" />
    <glyph glyph-name="g" unicode="g" horiz-adv-x="500" 
d="M470 388h-83q1 -3 2 -5t1 -4q7 -15 11.5 -33t4.5 -51q0 -56 -30.5 -88t-66.5 -47q-17 -6 -33 -9t-29 -3q-4 0 -11 0.5t-14 1.5h-2t-2 1q-9 0 -16 1t-9 1q-5 0 -11.5 -3.5t-12.5 -9.5q-7 -5 -13 -11t-11 -13t-8.5 -14t-3.5 -12q0 -13 16 -18t35 -7q7 -1 14 -1.5t13 -0.5
l129 -5q48 -3 73 -21t36 -38q7 -14 9.5 -27t2.5 -21q0 -58 -49 -96t-107 -56q-27 -9 -53 -13t-47 -4q-76 0 -126.5 28.5t-50.5 68.5q0 34 30 64.5t68 56.5q-1 1 -2.5 1.5t-2.5 0.5q-19 9 -33.5 20t-14.5 31v1.5v1.5q0 12 13 31t76 75q-44 20 -68.5 53.5t-24.5 76.5
q0 74 41 113t91 50q10 2 20 3t20 1q11 0 20.5 -1t18.5 -3q13 -3 27 -7.5t31 -11.5q16 -6 29.5 -8t25.5 -2l77 1v-39v0zM98 -90q0 -4 1 -8.5t3 -9.5q9 -20 42.5 -36.5t103.5 -16.5q88 0 136.5 28.5t48.5 68.5q0 34 -33.5 40.5t-89.5 8.5q-16 1 -29.5 1t-25.5 1q-25 1 -42 2
t-33 3q-8 1 -16 2.5t-17 3.5q-15 -18 -25.5 -31.5t-16.5 -26.5q-4 -7 -5.5 -14.5t-1.5 -15.5v0zM152 342v-13t1 -12q4 -54 27 -99t76 -45q30 0 45 16t21 35q5 14 6 26t1 19q0 9 -3 31.5t-11 46.5q-10 32 -31 58t-57 26h-4h-4q-25 -3 -46 -23t-21 -67v1z" />
    <glyph glyph-name="h" unicode="h" horiz-adv-x="500" 
d="M487 15v-15h-212v15q37 3 52.5 15.5t15.5 70.5v199q0 49 -18 77t-59 28q-22 0 -50 -13.5t-59 -49.5v-240q0 -59 15.5 -71.5t52.5 -16.5v-14h-216v15q41 4 52.5 17.5t11.5 68.5v472q0 22 -5.5 36t-38.5 14h-4h-4q-3 0 -6.5 -0.5t-4.5 -0.5v17q27 7 55.5 15.5t57.5 17.5
q7 3 14.5 5t14.5 5l5 -2v-302h2q26 37 62.5 59t81.5 22q55 0 81 -27t35 -59q6 -21 7 -41t1 -32v-198q0 -53 10 -66.5t42 -20.5q2 0 4 -0.5t4 -0.5v1z" />
    <glyph glyph-name="i" unicode="i" horiz-adv-x="278" 
d="M16 0v15q47 1 63 14.5t16 71.5v233q0 37 -9 47.5t-19 11.5h-3.5h-3.5q-10 0 -20 -1t-20 -3v16q20 5 39 12t39 14q19 7 38.5 14t38.5 14l4 -2v-355q0 -50 11 -67.5t63 -20.5v-14h-237v0zM78 632q0 3 1 8t3 10q5 12 16 22t30 10q23 0 37.5 -15t14.5 -36q0 -22 -14.5 -36.5
t-37.5 -14.5q-19 0 -30.5 10t-15.5 22q-2 5 -3 10t-1 9v1z" />
    <glyph glyph-name="j" unicode="j" horiz-adv-x="278" 
d="M109 -45v379q0 37 -9 47.5t-19 11.5h-3.5h-3.5h-6.5t-7.5 -1q-7 0 -13.5 -1t-14.5 -2v17q39 11 78 24.5t78 28.5l5 -2v-457q0 -88 -36.5 -153t-133.5 -65q-34 0 -63 14t-29 42q0 16 11 26t24 12h2.5h2.5q16 0 26.5 -9.5t19.5 -20.5q1 -1 2 -2.5t3 -2.5q8 -10 16.5 -17.5
t20.5 -7.5q38 0 44 38.5t6 100.5v0zM92 632q0 3 1 8t3 10q5 12 16 22t30 10q23 0 37.5 -15t14.5 -36q0 -22 -14.5 -36.5t-37.5 -14.5q-19 0 -30.5 10t-15.5 22q-2 5 -3 10t-1 9v1z" />
    <glyph glyph-name="k" unicode="k" horiz-adv-x="500" 
d="M7 0v15q7 0 13.5 1t12.5 2q32 7 40.5 17.5t8.5 45.5v483q0 33 -8 46.5t-37 13.5q-10 0 -17 -0.5t-13 -1.5v17q37 9 76 19.5t79 23.5l4 -1v-416l2 -2q14 11 32.5 28t38.5 34q0 1 0.5 1.5t1.5 0.5q16 15 32 29t30 26q11 11 17 19t6 15q0 8 -9 13.5t-41 5.5v15h204v-15
q-8 -1 -14.5 -1t-13.5 -1q-30 -3 -68 -25.5t-120 -99.5l-29 -26l153 -194q38 -49 67.5 -60.5t49.5 -13.5v-14h-218v15h19q2 -1 3.5 -1t3.5 1q6 1 10 4.5t4 10.5q0 5 -6 12.5t-15 20.5l-138 185h-2v-181q0 -32 15 -41t40 -11h20v-15h-234v0z" />
    <glyph glyph-name="l" unicode="l" horiz-adv-x="278" 
d="M21 0v15q44 2 60.5 16t16.5 55v478q0 33 -8 46.5t-37 13.5h-10.5t-9.5 -1q-3 0 -6.5 -0.5t-7.5 -0.5v17q40 9 79.5 19.5t79.5 23.5l4 -1v-597q0 -44 16 -56t59 -14v-14h-236v0z" />
    <glyph glyph-name="m" unicode="m" horiz-adv-x="778" 
d="M86 85v253q0 40 -9 51t-19 12h-3.5h-3.5q-10 0 -18 -1t-14 -3v18q35 9 70.5 20t69.5 24l7 -1v-75q26 19 47.5 34.5t43.5 26.5q15 7 30.5 11t32.5 4q49 0 74 -26t33 -58q6 7 16 17t23 20q23 18 54 32.5t68 14.5q61 0 85 -39t30 -86q2 -14 2.5 -27.5t0.5 -25.5v-205v-1.5
v-0.5v-8.5t1 -8.5q1 -13 9.5 -25t32.5 -16l26 -1v-15h-219v15q2 -1 4.5 -0.5t4.5 0.5q32 4 44.5 15t12.5 56v212v8.5v8.5q-1 35 -13 63.5t-60 28.5q-41 0 -67.5 -17.5t-43.5 -43.5v-251q0 -58 20.5 -69t51.5 -12v-14h-224v15q34 1 51 11t17 59v218q0 49 -15 76.5t-54 27.5
q-27 0 -49 -9.5t-37 -20.5q-14 -10 -21.5 -18.5t-7.5 -10.5v-281q0 -38 21 -45t47 -8v-14h-222v15q30 0 50 9.5t20 59.5v1z" />
    <glyph glyph-name="n" unicode="n" horiz-adv-x="500" 
d="M80 90v248q0 40 -9 51t-19 12h-3.5h-3.5q-10 0 -18 -1t-11 -3v18q23 6 46 13t46 15q11 4 23 8t23 8l7 -1v-79q13 11 24.5 21.5t23.5 20.5q22 17 45.5 27.5t52.5 10.5q9 0 19 -1.5t20 -5.5q29 -10 53.5 -42.5t24.5 -100.5v-228q0 -36 12 -50t49 -17v-14h-208v15
q28 1 45.5 13.5t17.5 69.5v210q0 45 -16.5 70.5t-60.5 25.5q-22 0 -46 -14.5t-53 -42.5v-280q0 -26 13.5 -38.5t52.5 -14.5v-14h-212v15q35 1 48.5 15.5t13.5 58.5v1z" />
    <glyph glyph-name="o" unicode="o" horiz-adv-x="500" 
d="M245 460q98 -1 161.5 -62.5t63.5 -170.5q0 -17 -2.5 -34.5t-8.5 -35.5q-18 -63 -70 -115t-141 -52q-97 0 -158 68t-61 169q0 92 58 162t158 70v1zM262 18q7 -1 15 0t16 4q32 10 59.5 49.5t27.5 126.5q0 93 -37 163t-106 70q-47 0 -82.5 -39t-35.5 -117q0 -21 3 -51.5
t11 -62.5q12 -54 42.5 -99t86.5 -45v1z" />
    <glyph glyph-name="p" unicode="p" horiz-adv-x="500" 
d="M75 -131v468q0 29 -6 42.5t-32 13.5h-6.5h-7.5t-7.5 -0.5t-6.5 -0.5v17q36 10 72 23t72 27l6 -1v-73l2 -2q5 5 11.5 12.5t14.5 15.5q19 18 48.5 33t69.5 15q67 0 116 -57.5t49 -157.5q0 -13 -1 -26.5t-4 -26.5q-14 -76 -65.5 -138.5t-139.5 -62.5q-21 0 -38.5 4.5
t-34.5 14.5q-7 4 -14 10t-14 13v-156q0 -48 17 -61.5t71 -13.5v-18h-242v17q50 4 60 20.5t10 48.5v0zM159 334v-246q0 -6 3.5 -13t9.5 -14q13 -15 37 -27.5t52 -12.5q10 0 25 3t31 13q25 17 46 57t21 120q0 8 -2 34.5t-12 56.5q-12 35 -38 64.5t-75 29.5q-8 0 -16.5 -1.5
t-17.5 -4.5q-22 -8 -41.5 -24t-22.5 -36v1z" />
    <glyph glyph-name="q" unicode="q" horiz-adv-x="500" 
d="M360 425l54 32l7 3l4 -4v-597q0 -32 11 -42t37 -17q3 0 7 -1l8 -2v-14h-236v17q56 2 72.5 20t16.5 56v186h-5q-3 -6 -7.5 -11.5t-11.5 -10.5q-17 -16 -44.5 -29t-57.5 -19q-7 -1 -13.5 -1.5t-13.5 -0.5q-67 0 -115.5 54t-48.5 167q0 104 64.5 176t158.5 72q24 0 41.5 -4
t33.5 -11q9 -4 18 -9t20 -11v1zM341 127v206q0 7 -0.5 18.5t-4.5 24.5q-7 21 -27 38t-64 17q-61 0 -98 -51.5t-37 -142.5v-4v-4q2 -67 32.5 -123t95.5 -56q11 0 24 2t26 7q6 2 11.5 4.5t9.5 4.5q23 11 27 24t5 32v1.5v0.5v1z" />
    <glyph glyph-name="r" unicode="r" horiz-adv-x="333" 
d="M76 84v250q0 37 -9 47.5t-19 11.5h-3.5h-3.5q-10 0 -18.5 -1t-15.5 -3v17q18 5 36.5 11.5t37.5 13.5q19 6 37.5 13.5t36.5 14.5l5 -1v-89h2q27 40 49 60t44 26q6 2 12.5 3t13.5 1q26 0 40 -14.5t14 -39.5q0 -19 -10 -31.5t-28 -12.5q-13 0 -22 5.5t-17 12.5q-2 1 -4 3
l-4 4q-5 4 -10.5 7t-11.5 3t-12.5 -3.5t-13.5 -9.5q-10 -7 -19 -18t-15 -23q-4 -7 -6 -14.5t-2 -13.5v-224q0 -53 23.5 -63.5t61.5 -12.5v-14h-240v15q5 0 9.5 1t8.5 1q30 6 41.5 17.5t11.5 48.5v1z" />
    <glyph glyph-name="s" unicode="s" horiz-adv-x="389" 
d="M315 314h-15q-16 72 -45 96.5t-60 25.5h-3.5h-2.5q-31 0 -48 -13.5t-24 -30.5q-2 -5 -3 -10.5t-1 -10.5q0 -8 2 -18.5t8 -20.5q5 -9 13 -17t20 -15l108 -63q2 -2 4 -3.5t4 -2.5q34 -21 55 -46t21 -67q0 -54 -34.5 -85t-76.5 -39q-8 -2 -17 -3t-17 -1q-16 0 -32 3t-31 6
q-15 2 -27.5 5t-23.5 3h-0.5h-0.5h-0.5h-0.5q-7 0 -11 -1.5t-8 -5.5l-1 -1.5t-2 -2.5h-13v156h16q3 -12 6 -25t7 -26q12 -34 37.5 -62t78.5 -28q6 0 11.5 0.5t11.5 2.5q22 4 40 20.5t18 49.5q0 24 -14 42.5t-38 31.5l-58 34q-46 25 -81.5 57.5t-35.5 87.5q0 6 0.5 11.5
t1.5 10.5q8 38 41.5 69t96.5 31q17 0 31 -3t25 -7l21 -7t15 -3q5 0 8 2t6 5q1 1 1.5 2t1.5 2l11 1l4 -137v0z" />
    <glyph glyph-name="t" unicode="t" horiz-adv-x="278" 
d="M255 450v-32h-101v-286v-17.5t2 -19.5q2 -20 12.5 -37t36.5 -17q17 0 29 7t20 15l7 7t5 6l13 -10q-17 -32 -47.5 -53t-63.5 -23h-3.5h-2.5q-38 0 -65 25.5t-27 100.5v302h-53q-1 0 -2.5 2t-1.5 4t1 4.5t3 4.5q6 6 17 12.5t23 18.5q10 10 18 19l16 18l6 8l6 8q10 12 20 27
t24 34q5 0 6 -3.5t1 -9.5v-115h101v0z" />
    <glyph glyph-name="u" unicode="u" horiz-adv-x="500" 
d="M479 50v-14q-26 -8 -48 -14.5t-43 -14.5q-11 -4 -23 -7.5t-25 -8.5l-2 2v83l-43 -43q-7 -8 -14 -13.5t-14 -9.5q-24 -13 -45.5 -16.5t-31.5 -3.5t-22 2t-25 7q-27 10 -49.5 38t-22.5 82v253q0 41 -17.5 51t-39.5 12h-2.5h-2.5v15h146v-326q0 -6 2 -16t7 -22
q7 -14 22.5 -26.5t43.5 -12.5q23 0 45 10t42 26q7 6 11.5 16t4.5 35v236q0 29 -10.5 45t-63.5 17v18h158v-343q0 -27 7.5 -42.5t47.5 -15.5h2h2h1h2v1z" />
    <glyph glyph-name="v" unicode="v" horiz-adv-x="500" 
d="M477 450v-15q-16 -2 -25 -8t-17 -20q-5 -9 -10.5 -21.5t-12.5 -29.5l-128 -320q-8 -21 -15 -35.5t-12 -14.5q-2 0 -4 0.5t-3 2.5q-4 3 -8 12.5t-12 30.5q-9 24 -30.5 76t-45.5 109q-2 4 -3.5 7.5t-2.5 6.5q-22 51 -42 96.5t-32 69.5q-11 23 -25.5 29.5t-29.5 7.5v16h196
v-15q-18 -2 -32 -7t-14 -24q0 -3 0.5 -5.5t0.5 -5.5q1 -4 2 -7.5t2 -6.5t2 -5.5t2 -4.5l102 -255q9 24 20.5 53t23.5 59q23 57 42 107t19 68q0 17 -14 24.5t-33 8.5v16h139v0z" />
    <glyph glyph-name="w" unicode="w" horiz-adv-x="722" 
d="M571 450h123v-15q-10 -4 -16 -9t-11 -14q-3 -6 -6.5 -13.5t-7.5 -18.5l-138 -345q-9 -23 -14 -33t-8 -14l-3 -1.5t-3 -0.5t-3.5 0.5t-3.5 2.5q-3 4 -6.5 12.5t-10.5 26.5l-91 237l-112 -240q-9 -20 -14 -28.5t-9 -10.5h-1.5h-0.5q-1 0 -2 0.5t-2 0.5q-4 3 -8.5 12
t-13.5 30l-135 343q-6 14 -11 24.5t-10 17.5q-6 10 -13.5 14.5t-18.5 5.5v16h180v-15q-17 -2 -31.5 -8t-14.5 -27q0 -22 25 -83.5t54 -137.5q7 -17 13.5 -34.5t12.5 -34.5l91 200q-13 38 -22.5 61.5t-17.5 36.5q-10 15 -21.5 19.5t-27.5 6.5v16h203v-15q-2 -1 -3.5 -1.5
t-3.5 -0.5q-22 -3 -36.5 -9.5t-14.5 -26.5v-5.5t1 -4.5q1 -10 6 -22.5t14 -35.5l80 -213l90 222q1 1 2 3.5t2 4.5q6 17 9.5 32t3.5 23q0 17 -12 23t-29 9l-1 0.5t-2 0.5v16v0z" />
    <glyph glyph-name="x" unicode="x" horiz-adv-x="500" 
d="M302 73l-81 124l-79 -123q-2 -3 -4 -6.5t-5 -8.5l-2 -4l-2 -4q-3 -5 -5 -10t-2 -9q1 -11 10.5 -14.5t20.5 -3.5h4.5h4.5v-14h-145v15q0 -1 0.5 -1h1.5q8 1 14.5 2.5t12.5 4.5q10 4 20 14t24 30l114 166l-94 144q-18 25 -29.5 37.5t-22.5 17.5q-5 2 -11 3t-13 1h-4.5h-5.5
v16h207v-15q-3 -1 -6 -1h-6q-12 -1 -21.5 -6t-9.5 -17q0 -8 8.5 -24.5t20.5 -34.5q1 -3 2.5 -5.5t3.5 -4.5q7 -11 13.5 -21t11.5 -18q45 64 56 81.5t11 25.5v0.5v0.5q0 12 -9 16.5t-20 5.5q-3 0 -5.5 0.5t-5.5 0.5v16h158v-15q-20 -1 -36.5 -9t-27.5 -17q-6 -5 -10.5 -10
t-6.5 -9l-83 -119l128 -196q29 -44 49 -52t33 -9v-14h-201v15q23 0 31.5 4.5t8.5 20.5q0 7 -2.5 12.5t-6.5 10.5q-2 3 -4 5.5t-3 3.5v1z" />
    <glyph glyph-name="y" unicode="y" horiz-adv-x="500" 
d="M475 450v-15q-6 -2 -13 -4t-15 -8q-5 -5 -10 -13t-10 -21l-154 -407q-7 -19 -14 -35.5t-14 -31.5q-30 -67 -63 -100t-79 -33q-32 0 -49.5 14t-21.5 31q-1 4 -1.5 7t-0.5 6q0 2 1 8.5t4 13.5q5 8 14.5 15t28.5 7q4 0 7.5 -0.5t7.5 -1.5q7 -1 13.5 -3t12.5 -4q9 -3 17 -6
t13 -3q21 0 38.5 24.5t29.5 53.5q12 26 18 47.5t6 27.5t-9.5 27.5t-21.5 45.5q0 1 -0.5 2.5t-1.5 2.5l-17 34t-12 26l-114 247q-5 9 -12 15t-14 9t-13.5 4.5t-11.5 2.5v15h206v-15q-4 -1 -9 -1.5t-10 -0.5q-15 -2 -27 -7.5t-12 -20.5q0 -2 0.5 -5t0.5 -5l2 -8t3 -7
q1 -4 2 -6.5t2 -4.5l115 -252l78 222q1 3 2.5 7t3.5 8q6 17 11.5 32t5.5 20q0 14 -11 21t-33 7h-2h-2v16h135v0z" />
    <glyph glyph-name="z" unicode="z" horiz-adv-x="444" 
d="M418 135l-14 -135h-377v15l266 405h-138q-52 -1 -65 -23t-18 -59q0 -2 -0.5 -3.5t-0.5 -3.5l-18 1l3 118h347v-15l-269 -405h138q72 -1 93 19.5t31 68.5l2 10l2 10l18 -3v0z" />
    <glyph glyph-name="braceleft" unicode="{" horiz-adv-x="480" 
d="M185 -41v177q0 47 -16.5 73t-68.5 40q52 14 68.5 39.5t16.5 73.5v179q0 88 44 113t121 25v-10q-53 -13 -72 -42.5t-19 -81.5v-167q0 -54 -16 -84.5t-75 -44.5v-1q59 -14 75 -44.5t16 -83.5v-167q0 -52 19 -81.5t72 -41.5v-11q-77 0 -121 25t-44 115v0z" />
    <glyph glyph-name="bar" unicode="|" horiz-adv-x="200" 
d="M67 -14v690h66v-690h-66v0z" />
    <glyph glyph-name="braceright" unicode="}" horiz-adv-x="480" 
d="M295 540v-177q0 -49 16.5 -74.5t68.5 -39.5q-52 -14 -68.5 -40t-16.5 -74v-177q0 -89 -44 -114t-121 -25v11q53 12 72 41.5t19 81.5v168q0 52 16.5 83t74.5 44v3q-58 12 -74.5 42.5t-16.5 83.5v169q0 51 -19 80.5t-72 41.5v12q77 -1 121 -26t44 -115v1z" />
    <glyph glyph-name="asciitilde" unicode="~" horiz-adv-x="541" 
d="M466 323l36 -50q-1 -2 -2 -3.5t-2 -2.5q-22 -31 -49.5 -56t-71.5 -25q-23 0 -44 7t-42 17q-4 2 -8 4.5t-8 4.5q-24 14 -52 24.5t-63 10.5q-31 0 -50 -21t-31 -46q-1 -1 -1.5 -2.5t-1.5 -2.5l-36 51q1 0 1.5 1.5t1.5 2.5q17 31 45.5 56t76.5 25q21 0 44.5 -7t47.5 -17
q5 -2 9.5 -4t9.5 -4q2 -1 4.5 -2t4.5 -2q3 -1 5 -2t5 -2q23 -11 44.5 -19.5t38.5 -8.5q28 0 48 21t36 46q1 1 2 2.5t2 2.5v1z" />
    <glyph glyph-name="glyph98" unicode="&#xa1;" horiz-adv-x="333" 
d="M144 282h13l9 -108q2 -24 7 -63t11 -81q7 -51 13 -98t6 -66v-6.5v-7.5q-2 -26 -13.5 -48t-38.5 -22q-30 0 -42 22.5t-12 58.5q0 8 0.5 17t1.5 19l45 383v0zM150 467q3 -1 6.5 -1.5t7.5 -1.5q15 -3 28 -15t13 -34t-16 -38t-39 -16q-22 0 -37.5 15.5t-15.5 38.5
q0 21 11 32.5t24 15.5q5 2 9.5 2.5t8.5 0.5v1z" />
    <glyph glyph-name="cent" unicode="&#xa2;" horiz-adv-x="500" 
d="M403 579l-47 -135q30 -11 50.5 -32t23.5 -44q1 -3 1 -5v-4q0 -19 -12 -32t-29 -13q-20 0 -33 11t-24 34q-1 2 -1.5 3.5t-1.5 3.5l-101 -290q5 -3 9.5 -4.5t8.5 -2.5q9 -3 18.5 -4.5t20.5 -1.5q38 0 67 15.5t56 48.5q6 8 12.5 17t13.5 19l13 -7q-35 -79 -81.5 -122
t-111.5 -43q-11 0 -20 1t-17 3q-4 1 -8 2.5t-9 2.5l-49 -138h-34l51 150q-34 16 -56 40.5t-34 50.5q-17 35 -21.5 66t-4.5 45q0 110 59.5 171t131.5 72q7 1 14.5 1.5t14.5 0.5q12 0 24.5 -1.5t26.5 -3.5l44 125h35v0zM198 98l115 323q-10 3 -20.5 5.5t-27.5 2.5
q-11 0 -23 -2t-24 -7q-33 -14 -60.5 -51t-27.5 -110q0 -50 16.5 -91.5t51.5 -70.5v1z" />
    <glyph glyph-name="sterling" unicode="&#xa3;" horiz-adv-x="500" 
d="M344 373v-45h-122l1 -27v-10.5t1 -7.5v-8v-7v-5.5v-5.5q-1 -21 -6.5 -50t-18.5 -97q47 -21 86.5 -28t63.5 -7q35 0 57 10t37 23q15 12 24 22t17 10q2 0 4 -0.5t2 -4.5q0 -5 -7 -25t-22 -43q-5 -7 -11 -14t-13 -14q-22 -22 -51.5 -34t-65.5 -12q-38 0 -73.5 18.5
t-68.5 41.5l-2 -2t-2 -3q-19 -22 -40.5 -39t-54.5 -17h-4h-4q-22 2 -40.5 16t-18.5 44q0 37 26 57t67 20q6 0 11.5 -0.5t10.5 -0.5q5 -1 10.5 -2t11.5 -2q0 1 0.5 2t0.5 3q0 1 0.5 2t0.5 2q0 2 0.5 4.5t0.5 3.5q0 26 -6 72.5t-15 113.5l-108 1v45h107q-1 3 -1.5 7.5
t-1.5 8.5q-2 10 -3 21.5t-1 28.5q0 122 58 179t137 57q62 0 95.5 -28t34.5 -62v-1.5v-1.5q0 -25 -15 -39t-34 -14q-29 0 -34.5 20t-5.5 44v1.5v1.5q0 23 -9 33.5t-20 14.5q-9 3 -16 3.5t-11 0.5q-39 0 -59 -23t-28 -51q-5 -18 -6.5 -35t-1.5 -27q0 -17 0.5 -31t1.5 -28
q2 -18 4 -37.5t5 -43.5l125 1v0zM78 20q20 -1 33 8t20 20q6 9 8.5 17t2.5 11v1.5t-1 0.5q-3 5 -15.5 9t-26.5 5q-4 1 -7.5 1h-6.5q-21 0 -34 -9t-13 -29q0 -16 12 -26t28 -10v1z" />
    <glyph glyph-name="Idieresis" unicode="&#xa4;" horiz-adv-x="500" 
d="M-22 108l98 96q-19 24 -30 56.5t-11 69.5q0 38 12 70.5t29 54.5l-98 99l50 48l96 -96q25 16 57.5 27t69.5 11q38 0 70.5 -11t54.5 -28l98 97l48 -48l-96 -98q17 -24 28 -56t11 -70q0 -37 -11 -69.5t-28 -57.5l96 -95l-48 -50l-98 98q-22 -18 -54.5 -30t-70.5 -12
q-37 0 -70.5 12t-56.5 29l-96 -97l-50 50v0zM251 481q-63 -1 -105.5 -46t-42.5 -105q0 -61 42.5 -106.5t105.5 -45.5t104.5 45.5t41.5 106.5q0 60 -41.5 105t-104.5 45v1z" />
    <glyph glyph-name="ae" unicode="&#xa5;" horiz-adv-x="500" 
d="M355 19v-19h-244v19q53 1 66 22t13 78v63h-174v40h174v76l-7 14h-167v40h144l-95 173q-16 27 -28.5 48t-23.5 35q-14 17 -29 25.5t-36 8.5l-1 20h243v-19q-1 -1 -2 -1h-1h-2h-2q-31 0 -44.5 -7.5t-13.5 -22.5q0 -6 2 -14t5 -17q1 -3 2.5 -6.5t3.5 -6.5l118 -220l112 220
q2 4 4.5 8t3.5 8q3 7 4.5 13.5t1.5 13.5q0 16 -15.5 24t-38.5 8h-2.5h-2.5q-2 -1 -3 -1h-3v20h195v-19q-36 -8 -64 -33t-54 -75l-92 -183h146v-40h-166l-7 -14v-76h173v-40h-173v-73q0 -57 18.5 -73.5t61.5 -17.5v1z" />
    <glyph glyph-name="brokenbar" unicode="&#xa6;" 
 />
    <glyph glyph-name="section" unicode="&#xa7;" horiz-adv-x="500" 
d="M70 282q0 51 31.5 86.5t85.5 35.5h9.5t8.5 -1l2 3q-11 8 -20.5 16.5t-18.5 16.5q-26 24 -42 50.5t-16 63.5q0 63 43.5 92.5t98.5 29.5q48 0 86.5 -26.5t38.5 -70.5q0 -22 -12.5 -38t-38.5 -16q-19 0 -29 8t-14 17q-2 5 -3 9.5t-1 8.5q0 12 5.5 21t11.5 15q6 7 11.5 11
t5.5 7q0 14 -16.5 23.5t-51.5 9.5q-30 0 -47 -13t-25 -28q-4 -8 -5.5 -15.5t-1.5 -13.5q0 -8 2 -17.5t6 -19.5t10.5 -18.5t15.5 -16.5l137 -112q36 -31 62.5 -70.5t26.5 -83.5q0 -47 -29 -85t-87 -38h-3.5t-3.5 1h-3.5h-3.5l-2 -1q25 -22 42.5 -39.5t28.5 -33.5
q11 -17 16 -34t5 -38q0 -47 -34.5 -86.5t-107.5 -39.5q-59 0 -99.5 28.5t-40.5 71.5q0 25 15 38t34 15h2.5h2.5q19 0 30.5 -8.5t15.5 -19.5q1 -3 1.5 -6t0.5 -6q0 -13 -5.5 -21.5t-11.5 -14.5q-5 -5 -9.5 -9t-6.5 -8q0 -1 -0.5 -2t-0.5 -2q0 -3 2 -7t6 -8q7 -7 23 -13.5
t43 -6.5q37 0 60.5 20.5t23.5 58.5q0 7 -0.5 13t-2.5 11q-7 22 -40 50.5t-119 94.5q-18 14 -33 28.5t-26 29.5q-20 26 -29.5 52t-9.5 50v1zM192 383q-4 -1 -8.5 -1.5t-9.5 -1.5q-19 -4 -35 -19.5t-16 -44.5q0 -27 11.5 -45.5t25.5 -33.5l4.5 -4.5l4.5 -4.5l8 -8l8 -8
q22 -20 46.5 -38.5t49.5 -25.5q6 -1 11.5 -2t10.5 -1q28 0 49.5 18.5t21.5 51.5q0 14 -8.5 30.5t-22.5 34.5q-15 18 -34 35.5t-38 31.5q-22 16 -43 25.5t-36 9.5v1z" />
    <glyph glyph-name="dieresis" unicode="&#xa8;" horiz-adv-x="333" 
d="M18 573q0 3 1 7.5t3 9.5q4 12 15 22t29 10q20 0 35 -15t15 -35q0 -21 -15 -35.5t-35 -14.5q-19 0 -30 10.5t-15 23.5q-2 4 -2.5 8t-0.5 8v1zM217 573q0 3 1 7.5t3 9.5q4 12 15 22t29 10q20 0 35 -15t15 -35q0 -21 -15 -35.5t-35 -14.5q-19 0 -30 10.5t-15 23.5
q-2 4 -2.5 8t-0.5 8v1z" />
    <glyph glyph-name="copyright" unicode="&#xa9;" horiz-adv-x="760" 
d="M382 676q143 -1 241.5 -102.5t98.5 -244.5t-98.5 -243t-241.5 -100q-145 0 -244.5 100t-99.5 243t99.5 244.5t244.5 101.5v1zM382 634q-122 -1 -205.5 -92.5t-83.5 -212.5q0 -120 84 -211t205 -91q119 0 202 91t83 211q0 122 -82.5 213t-202.5 91v1zM531 247h16l-16 -70
q0 -8 -4.5 -11t-12.5 -6q-2 -1 -4.5 -1.5t-4.5 -1.5q-4 -1 -10 -3t-13 -4q-16 -4 -37 -7t-45 -3q-86 0 -148 46t-62 152q0 12 2 25t6 26q16 53 66.5 97.5t142.5 44.5q35 0 56 -5t40 -12h0.5h0.5q2 -1 3.5 -1.5t2.5 -0.5q11 -3 16 -8.5t5 -11.5v-69h-17q0 2 -0.5 5t-1.5 6
q-6 29 -30.5 53t-77.5 24q-70 0 -103 -48t-34 -121q-1 -79 33 -130.5t110 -51.5q50 0 78 26t43 60v1z" />
    <glyph glyph-name="ellipsis" unicode="&#xaa;" horiz-adv-x="276" 
d="M270 442v-18q-20 -23 -35 -27t-23 -4q-4 0 -9.5 0.5t-11.5 2.5q-8 4 -15 13t-10 28l-4.5 -4.5l-4.5 -4.5q-16 -13 -37 -24t-44 -11h-2.5h-2.5q-25 2 -46 18.5t-21 48.5q0 34 23.5 54t65.5 37q15 6 30.5 12t33.5 12v31q0 18 -9 29.5t-26 11.5h-4.5t-4.5 -1
q-14 -1 -25.5 -7.5t-11.5 -13.5q0 -3 0.5 -6.5t1.5 -6.5q0 -3 0.5 -5t0.5 -4q0 -10 -8.5 -18t-23.5 -8q-13 0 -20.5 7.5t-9.5 17.5q-1 1 -1 2.5v3.5v4t1 4q3 22 29.5 40.5t78.5 18.5q49 0 70.5 -18t28.5 -40q3 -10 4 -20t1 -18v-114q0 -18 1.5 -27t11.5 -9q9 0 16 4t12 8v1z
M158 474v77q-51 -17 -71 -33.5t-20 -30.5q0 -22 11 -34.5t29 -12.5q3 0 6.5 0.5t7.5 1.5q3 1 7 2t7 2q4 1 7 2.5l5 2.5q7 6 8.5 11t2.5 9v1.5v0.5v1z" />
    <glyph glyph-name="ydieresis" unicode="&#xab;" horiz-adv-x="500" 
d="M42 227l31 27q23 18 63.5 54.5t84.5 79.5q4 4 8 7.5t8 7.5q7 7 9.5 9t4.5 3h0.5h1.5q6 0 8 -3t2 -8q0 -6 -19 -33t-42 -59q-2 -2 -3 -3.5t-2 -2.5q-20 -26 -37.5 -49t-24.5 -33q8 -11 19 -24.5t23 -27.5q11 -14 22 -27.5t19 -24.5q4 -5 8 -10.5t8 -10.5q1 -3 3 -5.5
t3 -4.5q10 -14 17 -27t7 -19q0 -5 -3 -8t-8 -3t-35.5 32t-72.5 70q-5 4 -9.5 8.5t-9.5 8.5q-3 3 -15.5 13.5t-25.5 22.5q-16 14 -29.5 26t-13.5 13v1zM234 227l31 27q23 18 63.5 54.5t84.5 79.5q4 4 8 7.5t8 7.5q7 7 9.5 9t4.5 3h0.5h1.5q6 0 8 -3t2 -8q0 -6 -19 -33
t-42 -59q-2 -2 -3 -3.5t-2 -2.5q-20 -26 -37.5 -49t-24.5 -33q8 -11 19 -24.5t23 -27.5q11 -14 22 -27.5t19 -24.5q4 -5 8 -10.5t8 -10.5q1 -3 3 -5.5t3 -4.5q10 -14 17 -27t7 -19q0 -5 -3 -8t-8 -3t-35.5 32t-72.5 70q-5 4 -9.5 8.5t-9.5 8.5q-3 3 -15.5 13.5t-25.5 22.5
q-16 14 -29.5 26t-13.5 13v1z" />
    <glyph glyph-name="emdash" unicode="&#xac;" 
 />
    <glyph glyph-name="uni00AD" unicode="&#xad;" horiz-adv-x="500" 
 />
    <glyph glyph-name="registered" unicode="&#xae;" horiz-adv-x="760" 
d="M722 330q0 -144 -98.5 -244t-241.5 -100q-145 0 -244.5 100t-99.5 243t99.5 244.5t244.5 101.5q143 0 241.5 -101.5t98.5 -244.5v1zM667 330q0 121 -82.5 212t-202.5 91q-122 0 -205.5 -91.5t-83.5 -212.5q0 -120 84 -211t205 -91q119 0 202 91t83 211v1zM219 505v15h177
q44 -1 79.5 -23t35.5 -69q0 -39 -22.5 -66.5t-56.5 -38.5l57 -78q6 -9 12 -16.5t12 -15.5q14 -17 28 -31.5t24 -22.5v-7h-64q-4 -1 -7.5 0t-6.5 4q-20 12 -43 54.5t-64 102.5l-48 1v-99v-2.5v-0.5q0 -28 4.5 -35t30.5 -10q3 0 6.5 -0.5t7.5 -0.5v-14h-162v15q4 -1 7.5 -0.5
t6.5 0.5q26 3 30.5 10t4.5 35v0.5v1.5v242v0.5v1.5q0 28 -4 35t-30 9q-3 1 -7 1.5t-8 0.5v1zM332 501v-168h43q37 -1 53 24.5t16 65.5q0 43 -21 60t-50 17l-41 1v0z" />
    <glyph glyph-name="glyph263" unicode="&#xaf;" 
 />
    <glyph glyph-name="glyph264" unicode="&#xb0;" 
 />
    <glyph glyph-name="mu" unicode="&#xb1;" horiz-adv-x="564" 
d="M30 0v66h504v-66h-504v0zM249 348v158h66v-158h219v-66h-219v-160h-66v160h-219v66h219v0z" />
    <glyph glyph-name="uni00B2" unicode="&#xb2;" 
 />
    <glyph glyph-name="uni00B3" unicode="&#xb3;" 
 />
    <glyph glyph-name="acute" unicode="&#xb4;" horiz-adv-x="333" 
d="M133 507h-40l147 148q12 11 19 15.5t14 5.5q2 1 5 1h6q13 0 19.5 -5t9.5 -11q3 -5 3.5 -10t0.5 -6q0 -11 -5.5 -19.5t-12.5 -14.5l-6 -4l-6 -4l-154 -96v0z" />
    <glyph glyph-name="oslash" unicode="&#xb5;" horiz-adv-x="500" 
d="M430 450v-358v-12.5t1 -13.5q2 -15 8 -27.5t23 -12.5h2.5h3.5q9 2 19.5 8.5t24.5 19.5v-7q-11 -16 -21 -26.5t-21 -16.5q-13 -8 -27 -11t-29 -3q-35 0 -50.5 23t-17.5 51q-1 3 -1 6v6l-2 1q-21 -38 -55 -61.5t-71 -25.5h-2.5h-3.5q-12 0 -27.5 2.5t-32.5 9.5
q-15 8 -30 21.5t-27 35.5l-2 -1q1 -13 3 -25.5t5 -25.5q2 -9 4.5 -18.5t4.5 -19.5q7 -27 13 -54t6 -52q0 -35 -9.5 -58t-36.5 -23t-36.5 23t-9.5 58q0 22 4 46t8 49q1 3 1.5 6t0.5 6q4 21 7 42t3 41v397h88v-306q0 -41 21.5 -67t66.5 -26q29 0 52.5 13t38.5 29q5 6 9 11
t6 10v336h88v0z" />
    <glyph glyph-name="paragraph" unicode="&#xb6;" horiz-adv-x="453" 
d="M238 640v-794h-154v22q63 3 75.5 24t12.5 77v304q-100 -1 -146.5 52.5t-46.5 147.5q0 99 48 143.5t160 44.5l263 1v-19q-57 -5 -72.5 -21.5t-15.5 -69.5v-594q0 -50 15 -68t73 -22v-22h-154v794h-58v0zM172 295v345q-60 -5 -89 -36.5t-29 -131.5q0 -97 32 -135.5
t86 -42.5v1z" />
    <glyph glyph-name="glyph265" unicode="&#xb7;" 
 />
    <glyph glyph-name="glyph121" unicode="&#xb8;" horiz-adv-x="333" 
d="M98 -99l41 99h35l-25 -65q2 0 4 0.5t3 0.5q5 1 10 1.5t11 0.5q39 0 61.5 -18t22.5 -52v-1.5v-1.5q-1 -30 -30 -55t-91 -25q-26 0 -43.5 3t-29.5 7q-4 2 -8 3.5t-7 2.5l14 31q5 -2 12.5 -4t14.5 -3q12 -3 21.5 -4t13.5 -1q24 0 41 9.5t17 35.5q0 17 -11 26t-34 9h-8h-8
q-6 -1 -11 -1.5t-9 -2.5l-7 5v0z" />
    <glyph glyph-name="uni00B9" unicode="&#xb9;" 
 />
    <glyph glyph-name="Agrave" unicode="&#xba;" horiz-adv-x="310" 
d="M157 676q64 -1 105.5 -37t41.5 -98q0 -9 -1 -18t-3 -18q-11 -42 -47.5 -77t-103.5 -35q-63 0 -103 40.5t-40 97.5q0 59 39 101.5t112 42.5v1zM152 643q-31 -1 -52 -19.5t-21 -51.5q0 -12 1.5 -29t5.5 -35q7 -31 23.5 -56.5t48.5 -25.5q4 0 7.5 0.5t7.5 0.5q22 4 40 21.5
t18 57.5q0 57 -20.5 96.5t-58.5 39.5v1z" />
    <glyph glyph-name="Ydieresis" unicode="&#xbb;" horiz-adv-x="500" 
d="M266 222l-31 -27q-23 -20 -63.5 -56.5t-84.5 -79.5q-4 -4 -8 -7.5t-8 -7.5q-7 -7 -9.5 -9t-3.5 -3h-1.5h-1.5q-6 0 -8 3t-2 8q0 6 19 33t42 59q2 2 3 3.5t2 2.5q20 26 37.5 49t24.5 33q-8 11 -19 24.5t-22 27.5q-12 14 -23 27.5t-19 24.5q-4 5 -8 10.5t-8 10.5
q-1 3 -3 5.5t-3 4.5q-10 14 -17 27t-7 19q0 5 3.5 8t7.5 3q5 0 35.5 -32t72.5 -70q5 -4 9.5 -8.5t9.5 -8.5q3 -3 15.5 -13.5t25.5 -22.5q16 -14 29.5 -26t13.5 -13v1zM458 222l-31 -27q-23 -20 -63.5 -56.5t-84.5 -79.5q-4 -4 -8 -7.5t-8 -7.5q-7 -7 -9.5 -9t-3.5 -3h-1.5
h-1.5q-6 0 -8 3t-2 8q0 6 19 33t42 59q2 2 3 3.5t2 2.5q20 26 37.5 49t24.5 33q-8 11 -19 24.5t-22 27.5q-12 14 -23 27.5t-19 24.5q-4 5 -8 10.5t-8 10.5q-1 3 -3 5.5t-3 4.5q-10 14 -17 27t-7 19q0 5 3.5 8t7.5 3q5 0 35.5 -32t72.5 -70q5 -4 9.5 -8.5t9.5 -8.5
q3 -3 15.5 -13.5t25.5 -22.5q16 -14 29.5 -26t13.5 -13v1z" />
    <glyph glyph-name="onequarter" unicode="&#xbc;" 
 />
    <glyph glyph-name="glyph243" unicode="&#xbd;" horiz-adv-x="750" 
d="M600 676l-450 -690h-49l453 690h46v0zM746 85l-37 -85h-253v23l98 107q38 41 59.5 77t21.5 58q0 6 -1 12.5t-4 13.5q-6 19 -22.5 35t-44.5 16q-32 0 -53.5 -20.5t-33.5 -49.5l-25 15q21 69 58.5 93.5t93.5 24.5q50 0 87 -29t37 -79q0 -34 -16 -62.5t-35 -50.5
q-9 -11 -17.5 -19.5l-15.5 -15.5l-86 -84h121q14 0 24 2t18 12q2 2 4.5 5t4.5 7l17 -6v0zM222 294v-24h-191v24q1 -1 1.5 -1h1.5q21 2 35.5 6.5t14.5 25.5v258v1v3q0 8 -1 15.5t-6 7.5h-2h-2q-4 0 -11 -2.5t-29 -10.5v24l118 55l14 -3v-343q0 -23 14.5 -29t42.5 -8v1z" />
    <glyph glyph-name="threequarters" unicode="&#xbe;" 
 />
    <glyph glyph-name="oe" unicode="&#xbf;" horiz-adv-x="444" 
d="M200 294h17q0 -8 -0.5 -15t-1.5 -14q-2 -19 -5.5 -37t-8.5 -34q-4 -16 -8 -27t-6 -16l-28 -63q-1 -2 -1.5 -4t-1.5 -3q-6 -15 -12 -32.5t-10 -35.5q-5 -20 -8.5 -39.5t-3.5 -34.5v-8.5t1 -8.5q4 -41 30.5 -75.5t78.5 -34.5q5 0 9.5 0.5t9.5 1.5q28 5 51 21.5t23 37.5
q0 8 -3.5 14.5t-9.5 12.5q-1 2 -2.5 3.5l-3.5 3.5q-7 8 -13 17.5t-6 23.5q0 3 0.5 6t1.5 6q3 11 12 20t25 9q30 0 40 -19t10 -44q0 -60 -36.5 -93.5t-80.5 -44.5q-12 -3 -23.5 -4.5t-22.5 -1.5q-8 0 -15.5 0.5t-15.5 2.5q-36 5 -68.5 21t-47.5 34q-5 6 -9.5 12t-7.5 12
q-11 17 -15 36t-4 48q0 13 4 28t10 30q7 17 17 33.5t20 31.5q6 9 12 17t12 15q14 16 25.5 31t21.5 29q18 28 29.5 58t18.5 72v1zM207 466q3 -1 6.5 -1.5t7.5 -1.5q15 -3 28 -15t13 -34t-16 -38t-39 -16q-22 0 -37.5 15.5t-15.5 38.5q0 21 11 32.5t24 15.5q5 2 9.5 2.5
t8.5 0.5v1z" />
    <glyph glyph-name="currency" unicode="&#xc0;" horiz-adv-x="722" 
d="M706 19v-19h-255v19q28 -1 49 4t21 33q0 6 -2 14t-5 16q-1 3 -2 6.5t-2 6.5q-2 6 -4 11t-4 9l-41 97h-262l-46 -117q-1 -3 -2 -5.5t-1 -5.5q-3 -7 -4 -14.5t-1 -13.5q0 -20 12 -29t27 -11q8 -2 15.5 -2h13.5v-18h-198v19q12 0 25 3.5t26 17.5q7 8 14.5 20.5t15.5 27.5
q5 9 9 18l8 18q8 16 14.5 31t11.5 27l208 492h20l249 -568q9 -22 16.5 -36t14.5 -24q12 -16 25 -21.5t34 -6.5v1zM216 257h231l-116 275l-115 -275v0zM437 719h-40l-154 97q-2 0 -4 2t-5 3q-7 7 -13.5 16t-6.5 21q0 1 0.5 5.5t3.5 9.5q3 6 9.5 11t18.5 5h7.5t6.5 -1
q6 -2 12 -6.5t18 -15.5l147 -147v0z" />
    <glyph glyph-name="breve" unicode="&#xc1;" horiz-adv-x="722" 
d="M706 19v-19h-255v19q28 -1 49 4t21 33q0 6 -2 14t-5 16q-1 3 -2 6.5t-2 6.5q-2 6 -4 11t-4 9l-41 97h-262l-46 -117q-1 -3 -2 -5.5t-1 -5.5q-3 -7 -4 -14.5t-1 -13.5q0 -20 12 -29t27 -11q8 -2 15.5 -2h13.5v-18h-198v19q12 0 25 3.5t26 17.5q7 8 14.5 20.5t15.5 27.5
q5 9 9 18l8 18q8 16 14.5 31t11.5 27l208 492h20l249 -568q9 -22 16.5 -36t14.5 -24q12 -16 25 -21.5t34 -6.5v1zM216 257h231l-116 275l-115 -275v0zM328 719h-40l147 148q12 11 19 15.5t14 5.5q2 1 5 1h6q13 0 19.5 -5t9.5 -11q3 -5 3.5 -10t0.5 -6q0 -11 -5.5 -19.5
t-12.5 -14.5l-6 -4l-6 -4l-154 -96v0z" />
    <glyph glyph-name="tilde" unicode="&#xc2;" horiz-adv-x="722" 
d="M706 19v-19h-255v19q28 -1 49 4t21 33q0 6 -2 14t-5 16q-1 3 -2 6.5t-2 6.5q-2 6 -4 11t-4 9l-41 97h-262l-46 -117q-1 -3 -2 -5.5t-1 -5.5q-3 -7 -4 -14.5t-1 -13.5q0 -20 12 -29t27 -11q8 -2 15.5 -2h13.5v-18h-198v19q12 0 25 3.5t26 17.5q7 8 14.5 20.5t15.5 27.5
q5 9 9 18l8 18q8 16 14.5 31t11.5 27l208 492h20l249 -568q9 -22 16.5 -36t14.5 -24q12 -16 25 -21.5t34 -6.5v1zM216 257h231l-116 275l-115 -275v0zM517 719h-34l-122 103l-121 -103h-34l124 167h62l125 -167v0z" />
    <glyph glyph-name="guilsinglleft" unicode="&#xc3;" horiz-adv-x="722" 
d="M706 19v-19h-255v19q28 -1 49 4t21 33q0 6 -2 14t-5 16q-1 3 -2 6.5t-2 6.5q-2 6 -4 11t-4 9l-41 97h-262l-46 -117q-1 -3 -2 -5.5t-1 -5.5q-3 -7 -4 -14.5t-1 -13.5q0 -20 12 -29t27 -11q8 -2 15.5 -2h13.5v-18h-198v19q12 0 25 3.5t26 17.5q7 8 14.5 20.5t15.5 27.5
q5 9 9 18l8 18q8 16 14.5 31t11.5 27l208 492h20l249 -568q9 -22 16.5 -36t14.5 -24q12 -16 25 -21.5t34 -6.5v1zM216 257h231l-116 275l-115 -275v0zM497 850h29q-2 -10 -5.5 -21.5t-9.5 -23.5q-10 -23 -31 -42.5t-59 -19.5q-13 0 -24 2t-21 6q-9 3 -17.5 7t-18.5 9l-23 12
q-4 1 -9 3t-9 4q-5 1 -9.5 2t-9.5 1q-20 0 -31 -9t-17 -20q-2 -5 -4 -9t-3 -8l-29 1q1 5 3 11.5t4 12.5q10 29 33.5 52.5t64.5 23.5q16 0 32.5 -4.5t33.5 -13.5l24 -11q2 -2 5 -3.5l5 -2.5q5 -2 9.5 -3.5t8.5 -2.5q5 -2 10.5 -3t9.5 -1q16 0 27.5 6.5t21.5 24.5q2 4 4.5 8.5
t4.5 10.5v1z" />
    <glyph glyph-name="Adieresis" unicode="&#xc4;" horiz-adv-x="722" 
d="M706 19v-19h-255v19q28 -1 49 4t21 33q0 6 -2 14t-5 16q-1 3 -2 6.5t-2 6.5q-2 6 -4 11t-4 9l-41 97h-262l-46 -117q-1 -3 -2 -5.5t-1 -5.5q-3 -7 -4 -14.5t-1 -13.5q0 -20 12 -29t27 -11q8 -2 15.5 -2h13.5v-18h-198v19q12 0 25 3.5t26 17.5q7 8 14.5 20.5t15.5 27.5
q5 9 9 18l8 18q8 16 14.5 31t11.5 27l208 492h20l249 -568q9 -22 16.5 -36t14.5 -24q12 -16 25 -21.5t34 -6.5v1zM216 257h231l-116 275l-115 -275v0zM213 785q0 3 1 7.5t3 9.5q4 12 15 22t29 10q20 0 35 -15t15 -35q0 -21 -15 -35.5t-35 -14.5q-19 0 -30 10.5t-15 23.5
q-2 4 -2.5 8t-0.5 8v1zM412 785q0 3 1 7.5t3 9.5q4 12 15 22t29 10q20 0 35 -15t15 -35q0 -21 -15 -35.5t-35 -14.5q-19 0 -30 10.5t-15 23.5q-2 4 -2.5 8t-0.5 8v1z" />
    <glyph glyph-name="Aring" unicode="&#xc5;" horiz-adv-x="722" 
d="M706 19v-19h-255v19q28 -1 49 4t21 33q0 6 -2 14t-5 16q-1 3 -2 6.5t-2 6.5q-2 6 -4 11t-4 9l-41 97h-262l-46 -117q-1 -3 -2 -5.5t-1 -5.5q-3 -7 -4 -14.5t-1 -13.5q0 -20 12 -29t27 -11q8 -2 15.5 -2h13.5v-18h-198v19q12 0 25 3.5t26 17.5q7 8 14.5 20.5t15.5 27.5
q5 9 9 18l8 18q8 16 14.5 31t11.5 27l208 492h20l249 -568q9 -22 16.5 -36t14.5 -24q12 -16 25 -21.5t34 -6.5v1zM216 257h231l-116 275l-115 -275v0zM252 798q0 40 28.5 69.5t70.5 29.5q41 0 70.5 -29.5t29.5 -70.5t-29.5 -70t-70.5 -29q-43 0 -71 29.5t-28 69.5v1z
M351 864q-24 -1 -38.5 -14t-21.5 -28q-2 -6 -3.5 -12.5t-1.5 -11.5t1 -11t4 -13q6 -15 20.5 -28.5t38.5 -13.5q29 0 48 19t19 46t-19 46.5t-47 19.5v1z" />
    <glyph glyph-name="Oslash" unicode="&#xc6;" horiz-adv-x="889" 
d="M816 521h-23q-8 73 -46 88.5t-136 15.5l-87 1q-2 -1 -4 -1t-4 -1q-7 -1 -13 -6.5t-6 -22.5v-229h111q83 -1 105.5 21t26.5 75l21 1v-234h-21q0 -1 0 -0.5v1.5q-5 39 -19.5 68.5t-78.5 29.5l-145 1v-238q0 -38 10 -46t59 -8l76 1q60 -1 94.5 11.5t64.5 53.5q9 12 18.5 28
t19.5 36l24 1l-44 -168h-510v19l17 2q42 4 57 18.5t15 67.5v153h-176q-35 -68 -63.5 -127t-28.5 -83q0 -12 11 -18t25 -9q10 -3 19.5 -3.5t13.5 -1.5v-18h-199v19q1 -1 2 -0.5t2 0.5q12 2 21.5 4.5t18.5 9.5q10 8 20.5 22.5t23.5 40.5l245 485q1 0 1.5 1t0.5 2q1 2 2 4.5
t2 4.5q1 3 2 6.5t1 6.5q0 18 -22 26.5t-68 8.5v21h564v-141v0zM239 299h159v313h-3l-156 -313v0z" />
    <glyph glyph-name="Ccedilla" unicode="&#xc7;" horiz-adv-x="667" 
d="M265 -99l41 99h35l-25 -65q2 0 4 0.5t3 0.5q5 1 10 1.5t11 0.5q39 0 61.5 -18t22.5 -52v-1.5v-1.5q-1 -30 -30 -55t-91 -25q-26 0 -43.5 3t-29.5 7q-4 2 -8 3.5t-7 2.5l14 31q5 -2 12.5 -4t14.5 -3q12 -3 21.5 -4t13.5 -1q24 0 41 9.5t17 35.5q0 17 -11 26t-34 9h-8h-8
q-6 -1 -11 -1.5t-9 -2.5l-7 5v0zM620 451h-23q-19 78 -73.5 131t-146.5 53q-12 0 -25.5 -1.5t-26.5 -5.5q-26 -6 -51.5 -19.5t-46.5 -34.5l-6 -6t-6 -7q-27 -29 -49 -82.5t-22 -150.5q0 -159 75.5 -229t169.5 -70q58 0 101.5 18t73.5 39q17 12 29.5 24t21.5 20l18 -17
q0 -2 -16.5 -21.5t-49.5 -42.5q-33 -24 -84 -43.5t-121 -19.5q-8 0 -16 0.5t-15 0.5q-114 9 -208.5 88.5t-94.5 254.5q0 168 105.5 256.5t234.5 88.5q33 0 62 -5t51 -11q23 -7 39 -12t24 -5q2 0 9 0.5t15 4.5q7 3 13 9.5t9 18.5l21 1l9 -225v0z" />
    <glyph glyph-name="ring" unicode="&#xc8;" horiz-adv-x="611" 
d="M597 169l-45 -169h-540v19q48 2 67.5 16.5t19.5 72.5v445q0 58 -20 71.5t-67 17.5v20h531l3 -143h-25q-11 66 -40 85t-112 19l-135 1q-16 -1 -24.5 -5t-8.5 -30v-221h154q66 -1 83.5 19.5t26.5 71.5v1.5v1.5l23 1v-232h-23q-9 59 -28.5 76t-81.5 18l-154 3v-248
q0 -32 18.5 -37.5t130.5 -5.5q94 0 140 27.5t79 103.5l28 1v0zM381 719h-40l-154 97q-2 0 -4 2t-5 3q-7 7 -13.5 16t-6.5 21q0 1 0.5 5.5t3.5 9.5q3 6 9.5 11t18.5 5h7.5t6.5 -1q6 -2 12 -6.5t18 -15.5l147 -147v0z" />
    <glyph glyph-name="Eacute" unicode="&#xc9;" horiz-adv-x="611" 
d="M597 169l-45 -169h-540v19q48 2 67.5 16.5t19.5 72.5v445q0 58 -20 71.5t-67 17.5v20h531l3 -143h-25q-11 66 -40 85t-112 19l-135 1q-16 -1 -24.5 -5t-8.5 -30v-221h154q66 -1 83.5 19.5t26.5 71.5v1.5v1.5l23 1v-232h-23q-9 59 -28.5 76t-81.5 18l-154 3v-248
q0 -32 18.5 -37.5t130.5 -5.5q94 0 140 27.5t79 103.5l28 1v0zM272 719h-40l147 148q12 11 19 15.5t14 5.5q2 1 5 1h6q13 0 19.5 -5t9.5 -11q3 -5 3.5 -10t0.5 -6q0 -11 -5.5 -19.5t-12.5 -14.5l-6 -4l-6 -4l-154 -96v0z" />
    <glyph glyph-name="macron" unicode="&#xca;" horiz-adv-x="611" 
d="M597 169l-45 -169h-540v19q48 2 67.5 16.5t19.5 72.5v445q0 58 -20 71.5t-67 17.5v20h531l3 -143h-25q-11 66 -40 85t-112 19l-135 1q-16 -1 -24.5 -5t-8.5 -30v-221h154q66 -1 83.5 19.5t26.5 71.5v1.5v1.5l23 1v-232h-23q-9 59 -28.5 76t-81.5 18l-154 3v-248
q0 -32 18.5 -37.5t130.5 -5.5q94 0 140 27.5t79 103.5l28 1v0zM461 719h-34l-122 103l-121 -103h-34l124 167h62l125 -167v0z" />
    <glyph glyph-name="dotaccent" unicode="&#xcb;" horiz-adv-x="611" 
d="M597 169l-45 -169h-540v19q48 2 67.5 16.5t19.5 72.5v445q0 58 -20 71.5t-67 17.5v20h531l3 -143h-25q-11 66 -40 85t-112 19l-135 1q-16 -1 -24.5 -5t-8.5 -30v-221h154q66 -1 83.5 19.5t26.5 71.5v1.5v1.5l23 1v-232h-23q-9 59 -28.5 76t-81.5 18l-154 3v-248
q0 -32 18.5 -37.5t130.5 -5.5q94 0 140 27.5t79 103.5l28 1v0zM157 785q0 3 1 7.5t3 9.5q4 12 15 22t29 10q20 0 35 -15t15 -35q0 -21 -15 -35.5t-35 -14.5q-19 0 -30 10.5t-15 23.5q-2 4 -2.5 8t-0.5 8v1zM356 785q0 3 1 7.5t3 9.5q4 12 15 22t29 10q20 0 35 -15t15 -35
q0 -21 -15 -35.5t-35 -14.5q-19 0 -30 10.5t-15 23.5q-2 4 -2.5 8t-0.5 8v1z" />
    <glyph glyph-name="caron" unicode="&#xcc;" horiz-adv-x="333" 
d="M18 0v19q64 1 80.5 18.5t16.5 70.5v445q0 55 -17.5 70.5t-79.5 18.5v20h297v-19q-55 -3 -76.5 -17t-21.5 -74v-443q0 -59 21.5 -74t76.5 -17v-18h-297v0zM242 719h-40l-154 97q-2 0 -4 2t-5 3q-7 7 -13.5 16t-6.5 21q0 1 0.5 5.5t3.5 9.5q3 6 9.5 11t18.5 5h7.5t6.5 -1
q6 -2 12 -6.5t18 -15.5l147 -147v0z" />
    <glyph glyph-name="cedilla" unicode="&#xcd;" horiz-adv-x="333" 
d="M18 0v19q64 1 80.5 18.5t16.5 70.5v445q0 55 -17.5 70.5t-79.5 18.5v20h297v-19q-55 -3 -76.5 -17t-21.5 -74v-443q0 -59 21.5 -74t76.5 -17v-18h-297v0zM133 719h-40l147 148q12 11 19 15.5t14 5.5q2 1 5 1h6q13 0 19.5 -5t9.5 -11q3 -5 3.5 -10t0.5 -6
q0 -11 -5.5 -19.5t-12.5 -14.5l-6 -4l-6 -4l-154 -96v0z" />
    <glyph glyph-name="hungarumlaut" unicode="&#xce;" horiz-adv-x="333" 
d="M18 0v19q64 1 80.5 18.5t16.5 70.5v445q0 55 -17.5 70.5t-79.5 18.5v20h297v-19q-55 -3 -76.5 -17t-21.5 -74v-443q0 -59 21.5 -74t76.5 -17v-18h-297v0zM322 719h-34l-122 103l-121 -103h-34l124 167h62l125 -167v0z" />
    <glyph glyph-name="ogonek" unicode="&#xcf;" horiz-adv-x="333" 
d="M18 0v19q64 1 80.5 18.5t16.5 70.5v445q0 55 -17.5 70.5t-79.5 18.5v20h297v-19q-55 -3 -76.5 -17t-21.5 -74v-443q0 -59 21.5 -74t76.5 -17v-18h-297v0zM18 785q0 3 1 7.5t3 9.5q4 12 15 22t29 10q20 0 35 -15t15 -35q0 -21 -15 -35.5t-35 -14.5q-19 0 -30 10.5
t-15 23.5q-2 4 -2.5 8t-0.5 8v1zM217 785q0 3 1 7.5t3 9.5q4 12 15 22t29 10q20 0 35 -15t15 -35q0 -21 -15 -35.5t-35 -14.5q-19 0 -30 10.5t-15 23.5q-2 4 -2.5 8t-0.5 8v1z" />
    <glyph glyph-name="glyph232" unicode="&#xd0;" horiz-adv-x="722" 
d="M16 643v19h270q180 -1 289.5 -83.5t109.5 -250.5q0 -24 -4 -50.5t-12 -54.5q-27 -84 -111 -153.5t-258 -69.5h-284v19q57 2 72.5 19.5t15.5 69.5v207h-83v44h83v194q0 55 -15 70t-73 19v1zM352 359v-44h-146v-237q0 -26 12 -34t48 -8q20 0 61 3t86 19q61 23 112 83.5
t51 185.5q0 63 -20.5 122t-72.5 105q-36 32 -85.5 51t-144.5 19q-35 0 -41 -12t-6 -27v-226h146v0z" />
    <glyph glyph-name="Ntilde" unicode="&#xd1;" horiz-adv-x="722" 
d="M707 662v-19q-1 -1 -2.5 -1t-2.5 -1q-45 -5 -67.5 -23.5t-22.5 -103.5v-525h-17l-440 548h-2v-390q0 -78 19.5 -102.5t74.5 -26.5v-18h-235v19q57 3 77 24.5t20 102.5v442q-16 18 -27.5 29t-22.5 17q-10 5 -21 6.5t-26 1.5v20h171l383 -481h2v334q0 85 -22.5 104
t-73.5 23v20h235v0zM497 850h29q-2 -10 -5.5 -21.5t-9.5 -23.5q-10 -23 -31 -42.5t-59 -19.5q-13 0 -24 2t-21 6q-9 3 -17.5 7t-18.5 9l-23 12q-4 1 -9 3t-9 4q-5 1 -9.5 2t-9.5 1q-20 0 -31 -9t-17 -20q-2 -5 -4 -9t-3 -8l-29 1q1 5 3 11.5t4 12.5q10 29 33.5 52.5
t64.5 23.5q16 0 32.5 -4.5t33.5 -13.5l24 -11q2 -2 5 -3.5l5 -2.5q5 -2 9.5 -3.5t8.5 -2.5q5 -2 10.5 -3t9.5 -1q16 0 27.5 6.5t21.5 24.5q2 4 4.5 8.5t4.5 10.5v1z" />
    <glyph glyph-name="scaron" unicode="&#xd2;" 
 />
    <glyph glyph-name="Lslash" unicode="&#xd3;" horiz-adv-x="722" 
d="M361 -14q-136 0 -231.5 91.5t-95.5 251.5q0 173 102 259.5t225 86.5t225 -86.5t102 -259.5q0 -160 -95.5 -251.5t-231.5 -91.5v0zM361 22q83 -1 148 71t65 237q0 158 -59.5 228.5t-130.5 79.5q-6 0 -11.5 0.5t-11.5 0.5t-11.5 -0.5t-11.5 -0.5q-71 -9 -130.5 -79.5
t-59.5 -228.5q0 -165 65 -237t148 -72v1zM328 719h-40l147 148q12 11 19 15.5t14 5.5q2 1 5 1h6q13 0 19.5 -5t9.5 -11q3 -5 3.5 -10t0.5 -6q0 -11 -5.5 -19.5t-12.5 -14.5l-6 -4l-6 -4l-154 -96v0z" />
    <glyph glyph-name="lslash" unicode="&#xd4;" horiz-adv-x="722" 
d="M361 -14q-136 0 -231.5 91.5t-95.5 251.5q0 173 102 259.5t225 86.5t225 -86.5t102 -259.5q0 -160 -95.5 -251.5t-231.5 -91.5v0zM361 22q83 -1 148 71t65 237q0 158 -59.5 228.5t-130.5 79.5q-6 0 -11.5 0.5t-11.5 0.5t-11.5 -0.5t-11.5 -0.5q-71 -9 -130.5 -79.5
t-59.5 -228.5q0 -165 65 -237t148 -72v1zM517 719h-34l-122 103l-121 -103h-34l124 167h62l125 -167v0z" />
    <glyph glyph-name="guilsinglright" unicode="&#xd5;" horiz-adv-x="722" 
d="M361 -14q-136 0 -231.5 91.5t-95.5 251.5q0 173 102 259.5t225 86.5t225 -86.5t102 -259.5q0 -160 -95.5 -251.5t-231.5 -91.5v0zM361 22q83 -1 148 71t65 237q0 158 -59.5 228.5t-130.5 79.5q-6 0 -11.5 0.5t-11.5 0.5t-11.5 -0.5t-11.5 -0.5q-71 -9 -130.5 -79.5
t-59.5 -228.5q0 -165 65 -237t148 -72v1zM497 850h29q-2 -10 -5.5 -21.5t-9.5 -23.5q-10 -23 -31 -42.5t-59 -19.5q-13 0 -24 2t-21 6q-9 3 -17.5 7t-18.5 9l-23 12q-4 1 -9 3t-9 4q-5 1 -9.5 2t-9.5 1q-20 0 -31 -9t-17 -20q-2 -5 -4 -9t-3 -8l-29 1q1 5 3 11.5t4 12.5
q10 29 33.5 52.5t64.5 23.5q16 0 32.5 -4.5t33.5 -13.5l24 -11q2 -2 5 -3.5l5 -2.5q5 -2 9.5 -3.5t8.5 -2.5q5 -2 10.5 -3t9.5 -1q16 0 27.5 6.5t21.5 24.5q2 4 4.5 8.5t4.5 10.5v1z" />
    <glyph glyph-name="Odieresis" unicode="&#xd6;" horiz-adv-x="722" 
d="M361 -14q-136 0 -231.5 91.5t-95.5 251.5q0 173 102 259.5t225 86.5t225 -86.5t102 -259.5q0 -160 -95.5 -251.5t-231.5 -91.5v0zM361 22q83 -1 148 71t65 237q0 158 -59.5 228.5t-130.5 79.5q-6 0 -11.5 0.5t-11.5 0.5t-11.5 -0.5t-11.5 -0.5q-71 -9 -130.5 -79.5
t-59.5 -228.5q0 -165 65 -237t148 -72v1zM213 785q0 3 1 7.5t3 9.5q4 12 15 22t29 10q20 0 35 -15t15 -35q0 -21 -15 -35.5t-35 -14.5q-19 0 -30 10.5t-15 23.5q-2 4 -2.5 8t-0.5 8v1zM412 785q0 3 1 7.5t3 9.5q4 12 15 22t29 10q20 0 35 -15t15 -35q0 -21 -15 -35.5
t-35 -14.5q-19 0 -30 10.5t-15 23.5q-2 4 -2.5 8t-0.5 8v1z" />
    <glyph glyph-name="multiply" unicode="&#xd7;" 
 />
    <glyph glyph-name="plusminus" unicode="&#xd8;" horiz-adv-x="722" 
d="M658 734l-88 -130q53 -44 85.5 -112.5t32.5 -162.5q0 -160 -95.5 -251.5t-231.5 -91.5q-49 0 -94 12t-83 37l-79 -115h-49l95 139q-54 43 -85.5 112t-31.5 158q0 173 102 259.5t225 86.5q47 0 91.5 -12t84.5 -37l72 108h49v0zM527 540l-308 -452q29 -35 66 -51t76 -16
q83 0 148 72t65 237q0 70 -12.5 121t-34.5 88v1zM194 123l308 452q-24 27 -53 42t-58 20q-8 1 -15.5 1.5t-14.5 0.5q-6 0 -11.5 -0.5t-11.5 -0.5q-71 -9 -130.5 -79.5t-59.5 -228.5q0 -68 12 -119.5t34 -88.5v1z" />
    <glyph glyph-name="Thorn" unicode="&#xd9;" horiz-adv-x="722" 
d="M705 662v-19q-58 -7 -76 -28.5t-18 -100.5v-260q0 -23 -1.5 -54t-11.5 -63q-16 -57 -69.5 -104t-176.5 -47q-110 0 -161.5 42t-69.5 93q-13 36 -15 68.5t-2 50.5v313q0 55 -16.5 70t-73.5 19v20h283v-19q-59 -5 -75 -21.5t-16 -69.5v-319q0 -18 1 -40.5t6 -46.5
q11 -44 46.5 -80.5t120.5 -36.5q59 0 100.5 22t63.5 57q10 17 16.5 46t6.5 90v271q0 79 -20.5 101.5t-73.5 25.5v20h232v0zM437 719h-40l-154 97q-2 0 -4 2t-5 3q-7 7 -13.5 16t-6.5 21q0 1 0.5 5.5t3.5 9.5q3 6 9.5 11t18.5 5h7.5t6.5 -1q6 -2 12 -6.5t18 -15.5l147 -147v0
z" />
    <glyph glyph-name="Eth" unicode="&#xda;" horiz-adv-x="722" 
d="M705 662v-19q-58 -7 -76 -28.5t-18 -100.5v-260q0 -23 -1.5 -54t-11.5 -63q-16 -57 -69.5 -104t-176.5 -47q-110 0 -161.5 42t-69.5 93q-13 36 -15 68.5t-2 50.5v313q0 55 -16.5 70t-73.5 19v20h283v-19q-59 -5 -75 -21.5t-16 -69.5v-319q0 -18 1 -40.5t6 -46.5
q11 -44 46.5 -80.5t120.5 -36.5q59 0 100.5 22t63.5 57q10 17 16.5 46t6.5 90v271q0 79 -20.5 101.5t-73.5 25.5v20h232v0zM328 719h-40l147 148q12 11 19 15.5t14 5.5q2 1 5 1h6q13 0 19.5 -5t9.5 -11q3 -5 3.5 -10t0.5 -6q0 -11 -5.5 -19.5t-12.5 -14.5l-6 -4l-6 -4
l-154 -96v0z" />
    <glyph glyph-name="eth" unicode="&#xdb;" horiz-adv-x="722" 
d="M705 662v-19q-58 -7 -76 -28.5t-18 -100.5v-260q0 -23 -1.5 -54t-11.5 -63q-16 -57 -69.5 -104t-176.5 -47q-110 0 -161.5 42t-69.5 93q-13 36 -15 68.5t-2 50.5v313q0 55 -16.5 70t-73.5 19v20h283v-19q-59 -5 -75 -21.5t-16 -69.5v-319q0 -18 1 -40.5t6 -46.5
q11 -44 46.5 -80.5t120.5 -36.5q59 0 100.5 22t63.5 57q10 17 16.5 46t6.5 90v271q0 79 -20.5 101.5t-73.5 25.5v20h232v0zM517 719h-34l-122 103l-121 -103h-34l124 167h62l125 -167v0z" />
    <glyph glyph-name="Udieresis" unicode="&#xdc;" horiz-adv-x="722" 
d="M705 662v-19q-58 -7 -76 -28.5t-18 -100.5v-260q0 -23 -1.5 -54t-11.5 -63q-16 -57 -69.5 -104t-176.5 -47q-110 0 -161.5 42t-69.5 93q-13 36 -15 68.5t-2 50.5v313q0 55 -16.5 70t-73.5 19v20h283v-19q-59 -5 -75 -21.5t-16 -69.5v-319q0 -18 1 -40.5t6 -46.5
q11 -44 46.5 -80.5t120.5 -36.5q59 0 100.5 22t63.5 57q10 17 16.5 46t6.5 90v271q0 79 -20.5 101.5t-73.5 25.5v20h232v0zM213 785q0 3 1 7.5t3 9.5q4 12 15 22t29 10q20 0 35 -15t15 -35q0 -21 -15 -35.5t-35 -14.5q-19 0 -30 10.5t-15 23.5q-2 4 -2.5 8t-0.5 8v1z
M412 785q0 3 1 7.5t3 9.5q4 12 15 22t29 10q20 0 35 -15t15 -35q0 -21 -15 -35.5t-35 -14.5q-19 0 -30 10.5t-15 23.5q-2 4 -2.5 8t-0.5 8v1z" />
    <glyph glyph-name="Yacute" unicode="&#xdd;" 
 />
    <glyph glyph-name="glyph236" unicode="&#xde;" horiz-adv-x="556" 
d="M296 19v-19h-280v19q63 4 73.5 25t10.5 75v434q0 52 -14.5 68t-69.5 21v20h277v-19q-55 -5 -73 -21t-18 -72v-9v-10l80 1q116 -1 188 -48t72 -133q0 -36 -10.5 -62t-23.5 -43q-8 -11 -15 -18l-12 -12q-32 -31 -82.5 -45t-129.5 -14h-17t-16 1q-9 0 -17 0.5t-17 1.5v-51
q0 -56 18 -72.5t76 -18.5v1zM202 461v-260q14 -2 29 -3t31 -1q12 0 34 1.5t47 9.5q34 12 62 43.5t28 97.5q0 63 -31.5 93t-69.5 41q-27 7 -51 8.5t-38 1.5q-22 0 -31.5 -4t-9.5 -29v1z" />
    <glyph glyph-name="germandbls" unicode="&#xdf;" horiz-adv-x="500" 
d="M12 0v15q1 -1 2 -1h1q27 2 42.5 12t15.5 57v371q0 17 1.5 44.5t8.5 57.5q13 47 50.5 86.5t120.5 39.5q11 0 22 -1t22 -4q46 -10 84.5 -43.5t38.5 -98.5q0 -41 -15 -71.5t-62 -58.5q-12 -7 -26 -14t-31 -14v-1q14 -3 30.5 -7t33.5 -11q44 -18 80.5 -59.5t36.5 -117.5
q0 -6 -0.5 -11.5t-0.5 -11.5q-8 -63 -54.5 -115t-121.5 -52q-39 0 -60 12.5t-30 27.5q-5 9 -7 17t-2 14q0 22 13 35.5t32 13.5t30 -12.5t12 -27.5l2 -21q0 -3 0.5 -5.5t0.5 -5.5q2 -7 7.5 -13.5t20.5 -6.5q41 0 52.5 45t11.5 107q0 49 -10.5 81t-22.5 51q-7 11 -14 18
t-12 11t-10 7t-10 5q-15 7 -29 9t-26 3q-13 2 -21.5 4.5t-8.5 12.5q0 7 7 10t18 5q8 1 17.5 3t19.5 5q23 9 42.5 34.5t19.5 86.5q0 71 -26 104.5t-62 33.5t-54 -17t-26 -38q-6 -17 -7.5 -32t-1.5 -20v-548h-145v0z" />
    <glyph glyph-name="agrave" unicode="&#xe0;" horiz-adv-x="444" 
d="M442 66v-26q-31 -38 -54 -44t-35 -6q-5 0 -13 0.5t-16 4.5q-12 5 -23 19.5t-13 47.5q-4 -4 -8.5 -7.5t-9.5 -7.5q-26 -22 -59 -39.5t-68 -17.5q-40 0 -73 26.5t-33 76.5q0 52 30.5 84t89.5 60q27 13 59.5 26t70.5 28v62q0 39 -16 56.5t-35 22.5q-7 2 -13.5 2.5t-12.5 0.5
h-6t-6 -1q-22 -2 -40.5 -14.5t-18.5 -33.5q0 -6 1 -11.5t2 -10.5q0 -5 1 -9.5t1 -7.5v-1.5v-1.5q-1 -15 -13.5 -27.5t-31.5 -12.5q-16 0 -25.5 8.5t-14.5 18.5q-1 5 -2 9t-1 8q0 9 3.5 20t10.5 22q16 26 52 47.5t97 21.5q80 0 109.5 -32t36.5 -70q2 -15 2.5 -30t0.5 -28
v-194q0 -23 3.5 -41t25.5 -18q14 0 24 5t18 12q1 0 1.5 0.5l1.5 1.5v1zM287 123v145q-24 -9 -43.5 -17t-35.5 -17q-57 -30 -70 -58.5t-13 -48.5v-1q0 -36 19 -57.5t47 -21.5q5 0 10 1t11 2t12 3t11 4q6 2 10.5 4.5t7.5 3.5q3 2 6 3.5t6 2.5q15 10 18.5 21t3.5 30v1zM298 507
h-40l-154 97q-2 0 -4 2t-5 3q-7 7 -13.5 16t-6.5 21q0 1 0.5 5.5t3.5 9.5q3 6 9.5 11t18.5 5h7.5t6.5 -1q6 -2 12 -6.5t18 -15.5l147 -147v0z" />
    <glyph glyph-name="aacute" unicode="&#xe1;" horiz-adv-x="444" 
d="M442 66v-26q-31 -38 -54 -44t-35 -6q-5 0 -13 0.5t-16 4.5q-12 5 -23 19.5t-13 47.5q-4 -4 -8.5 -7.5t-9.5 -7.5q-26 -22 -59 -39.5t-68 -17.5q-40 0 -73 26.5t-33 76.5q0 52 30.5 84t89.5 60q27 13 59.5 26t70.5 28v62q0 39 -16 56.5t-35 22.5q-7 2 -13.5 2.5t-12.5 0.5
h-6t-6 -1q-22 -2 -40.5 -14.5t-18.5 -33.5q0 -6 1 -11.5t2 -10.5q0 -5 1 -9.5t1 -7.5v-1.5v-1.5q-1 -15 -13.5 -27.5t-31.5 -12.5q-16 0 -25.5 8.5t-14.5 18.5q-1 5 -2 9t-1 8q0 9 3.5 20t10.5 22q16 26 52 47.5t97 21.5q80 0 109.5 -32t36.5 -70q2 -15 2.5 -30t0.5 -28
v-194q0 -23 3.5 -41t25.5 -18q14 0 24 5t18 12q1 0 1.5 0.5l1.5 1.5v1zM287 123v145q-24 -9 -43.5 -17t-35.5 -17q-57 -30 -70 -58.5t-13 -48.5v-1q0 -36 19 -57.5t47 -21.5q5 0 10 1t11 2t12 3t11 4q6 2 10.5 4.5t7.5 3.5q3 2 6 3.5t6 2.5q15 10 18.5 21t3.5 30v1zM189 507
h-40l147 148q12 11 19 15.5t14 5.5q2 1 5 1h6q13 0 19.5 -5t9.5 -11q3 -5 3.5 -10t0.5 -6q0 -11 -5.5 -19.5t-12.5 -14.5l-6 -4l-6 -4l-154 -96v0z" />
    <glyph glyph-name="acircumflex" unicode="&#xe2;" horiz-adv-x="444" 
d="M442 66v-26q-31 -38 -54 -44t-35 -6q-5 0 -13 0.5t-16 4.5q-12 5 -23 19.5t-13 47.5q-4 -4 -8.5 -7.5t-9.5 -7.5q-26 -22 -59 -39.5t-68 -17.5q-40 0 -73 26.5t-33 76.5q0 52 30.5 84t89.5 60q27 13 59.5 26t70.5 28v62q0 39 -16 56.5t-35 22.5q-7 2 -13.5 2.5t-12.5 0.5
h-6t-6 -1q-22 -2 -40.5 -14.5t-18.5 -33.5q0 -6 1 -11.5t2 -10.5q0 -5 1 -9.5t1 -7.5v-1.5v-1.5q-1 -15 -13.5 -27.5t-31.5 -12.5q-16 0 -25.5 8.5t-14.5 18.5q-1 5 -2 9t-1 8q0 9 3.5 20t10.5 22q16 26 52 47.5t97 21.5q80 0 109.5 -32t36.5 -70q2 -15 2.5 -30t0.5 -28
v-194q0 -23 3.5 -41t25.5 -18q14 0 24 5t18 12q1 0 1.5 0.5l1.5 1.5v1zM287 123v145q-24 -9 -43.5 -17t-35.5 -17q-57 -30 -70 -58.5t-13 -48.5v-1q0 -36 19 -57.5t47 -21.5q5 0 10 1t11 2t12 3t11 4q6 2 10.5 4.5t7.5 3.5q3 2 6 3.5t6 2.5q15 10 18.5 21t3.5 30v1zM378 507
h-34l-122 103l-121 -103h-34l124 167h62l125 -167v0z" />
    <glyph glyph-name="atilde" unicode="&#xe3;" horiz-adv-x="444" 
d="M442 66v-26q-31 -38 -54 -44t-35 -6q-5 0 -13 0.5t-16 4.5q-12 5 -23 19.5t-13 47.5q-4 -4 -8.5 -7.5t-9.5 -7.5q-26 -22 -59 -39.5t-68 -17.5q-40 0 -73 26.5t-33 76.5q0 52 30.5 84t89.5 60q27 13 59.5 26t70.5 28v62q0 39 -16 56.5t-35 22.5q-7 2 -13.5 2.5t-12.5 0.5
h-6t-6 -1q-22 -2 -40.5 -14.5t-18.5 -33.5q0 -6 1 -11.5t2 -10.5q0 -5 1 -9.5t1 -7.5v-1.5v-1.5q-1 -15 -13.5 -27.5t-31.5 -12.5q-16 0 -25.5 8.5t-14.5 18.5q-1 5 -2 9t-1 8q0 9 3.5 20t10.5 22q16 26 52 47.5t97 21.5q80 0 109.5 -32t36.5 -70q2 -15 2.5 -30t0.5 -28
v-194q0 -23 3.5 -41t25.5 -18q14 0 24 5t18 12q1 0 1.5 0.5l1.5 1.5v1zM287 123v145q-24 -9 -43.5 -17t-35.5 -17q-57 -30 -70 -58.5t-13 -48.5v-1q0 -36 19 -57.5t47 -21.5q5 0 10 1t11 2t12 3t11 4q6 2 10.5 4.5t7.5 3.5q3 2 6 3.5t6 2.5q15 10 18.5 21t3.5 30v1zM358 638
h29q-2 -10 -5.5 -21.5t-9.5 -23.5q-10 -23 -31 -42.5t-59 -19.5q-13 0 -24 2t-21 6q-9 3 -17.5 7t-18.5 9l-23 12q-4 1 -9 3t-9 4q-5 1 -9.5 2t-9.5 1q-20 0 -31 -9t-17 -20q-2 -5 -4 -9t-3 -8l-29 1q1 5 3 11.5t4 12.5q10 29 33.5 52.5t64.5 23.5q16 0 32.5 -4.5
t33.5 -13.5l24 -11q2 -2 5 -3.5l5 -2.5q5 -2 9.5 -3.5t8.5 -2.5q5 -2 10.5 -3t9.5 -1q16 0 27.5 6.5t21.5 24.5q2 4 4.5 8.5t4.5 10.5v1z" />
    <glyph glyph-name="adieresis" unicode="&#xe4;" horiz-adv-x="444" 
d="M442 66v-26q-31 -38 -54 -44t-35 -6q-5 0 -13 0.5t-16 4.5q-12 5 -23 19.5t-13 47.5q-4 -4 -8.5 -7.5t-9.5 -7.5q-26 -22 -59 -39.5t-68 -17.5q-40 0 -73 26.5t-33 76.5q0 52 30.5 84t89.5 60q27 13 59.5 26t70.5 28v62q0 39 -16 56.5t-35 22.5q-7 2 -13.5 2.5t-12.5 0.5
h-6t-6 -1q-22 -2 -40.5 -14.5t-18.5 -33.5q0 -6 1 -11.5t2 -10.5q0 -5 1 -9.5t1 -7.5v-1.5v-1.5q-1 -15 -13.5 -27.5t-31.5 -12.5q-16 0 -25.5 8.5t-14.5 18.5q-1 5 -2 9t-1 8q0 9 3.5 20t10.5 22q16 26 52 47.5t97 21.5q80 0 109.5 -32t36.5 -70q2 -15 2.5 -30t0.5 -28
v-194q0 -23 3.5 -41t25.5 -18q14 0 24 5t18 12q1 0 1.5 0.5l1.5 1.5v1zM287 123v145q-24 -9 -43.5 -17t-35.5 -17q-57 -30 -70 -58.5t-13 -48.5v-1q0 -36 19 -57.5t47 -21.5q5 0 10 1t11 2t12 3t11 4q6 2 10.5 4.5t7.5 3.5q3 2 6 3.5t6 2.5q15 10 18.5 21t3.5 30v1zM74 573
q0 3 1 7.5t3 9.5q4 12 15 22t29 10q20 0 35 -15t15 -35q0 -21 -15 -35.5t-35 -14.5q-19 0 -30 10.5t-15 23.5q-2 4 -2.5 8t-0.5 8v1zM273 573q0 3 1 7.5t3 9.5q4 12 15 22t29 10q20 0 35 -15t15 -35q0 -21 -15 -35.5t-35 -14.5q-19 0 -30 10.5t-15 23.5q-2 4 -2.5 8t-0.5 8
v1z" />
    <glyph glyph-name="aring" unicode="&#xe5;" horiz-adv-x="444" 
d="M442 66v-26q-31 -38 -54 -44t-35 -6q-5 0 -13 0.5t-16 4.5q-12 5 -23 19.5t-13 47.5q-4 -4 -8.5 -7.5t-9.5 -7.5q-26 -22 -59 -39.5t-68 -17.5q-40 0 -73 26.5t-33 76.5q0 52 30.5 84t89.5 60q27 13 59.5 26t70.5 28v62q0 39 -16 56.5t-35 22.5q-7 2 -13.5 2.5t-12.5 0.5
h-6t-6 -1q-22 -2 -40.5 -14.5t-18.5 -33.5q0 -6 1 -11.5t2 -10.5q0 -5 1 -9.5t1 -7.5v-1.5v-1.5q-1 -15 -13.5 -27.5t-31.5 -12.5q-16 0 -25.5 8.5t-14.5 18.5q-1 5 -2 9t-1 8q0 9 3.5 20t10.5 22q16 26 52 47.5t97 21.5q80 0 109.5 -32t36.5 -70q2 -15 2.5 -30t0.5 -28
v-194q0 -23 3.5 -41t25.5 -18q14 0 24 5t18 12q1 0 1.5 0.5l1.5 1.5v1zM287 123v145q-24 -9 -43.5 -17t-35.5 -17q-57 -30 -70 -58.5t-13 -48.5v-1q0 -36 19 -57.5t47 -21.5q5 0 10 1t11 2t12 3t11 4q6 2 10.5 4.5t7.5 3.5q3 2 6 3.5t6 2.5q15 10 18.5 21t3.5 30v1zM123 611
q0 40 28.5 69.5t70.5 29.5q41 0 70.5 -29.5t29.5 -70.5t-29.5 -70t-70.5 -29q-43 0 -71 29.5t-28 69.5v1zM222 677q-24 -1 -38.5 -14t-21.5 -28q-2 -6 -3.5 -12.5t-1.5 -11.5t1 -11t4 -13q6 -15 20.5 -28.5t38.5 -13.5q29 0 48 19t19 46t-19 46.5t-47 19.5v1z" />
    <glyph glyph-name="Otilde" unicode="&#xe6;" horiz-adv-x="667" 
d="M620 154l12 -5q-17 -42 -37 -69.5t-40 -45.5q-34 -30 -66 -37t-50 -7q-45 0 -71 13.5t-41 30.5q-7 7 -12 14.5l-9 13.5q-7 -6 -14 -11.5t-14 -11.5q-27 -21 -56.5 -35t-68.5 -14q-46 0 -72.5 21.5t-35.5 48.5q-4 9 -5.5 18t-1.5 17q0 43 22.5 70.5t69.5 52.5q27 14 63 29
t80 33q1 17 1.5 32.5t0.5 28.5q0 47 -12 70.5t-50 23.5q-27 0 -48 -12t-20 -39v-2v-3l1 -10v-4t1 -4v-5v-5v-6t-1 -6q-2 -13 -11.5 -24.5t-32.5 -11.5q-3 0 -6.5 0.5t-6.5 1.5q-11 4 -20 14.5t-9 32.5q0 47 47 77t111 30q44 0 69 -12t42 -26q2 -2 4 -3.5t4 -3.5
q11 9 20.5 15.5t19.5 11.5q18 10 37.5 14t44.5 4q66 0 97.5 -31.5t44.5 -69.5q8 -23 11 -45.5t4 -36.5l-262 1v-24v-24q2 -65 24.5 -119t103.5 -54q41 0 77 28.5t61 68.5v1zM125 119q0 -8 1.5 -17t5.5 -18q7 -18 22.5 -32.5t42.5 -14.5q7 0 14.5 1.5t15.5 3.5q13 4 24.5 10
t20.5 13q10 6 15.5 12t5.5 10q0 3 -3 11t-7 23q-3 14 -6 33.5t-3 45.5l-1 53q-28 -11 -49 -19.5t-37 -17.5q-37 -20 -49.5 -42.5t-12.5 -55.5v1zM355 307h166q0 9 -1 22.5t-3 28.5q-6 27 -22 49.5t-51 22.5q-42 0 -60 -23t-24 -51q-3 -14 -4 -27t-1 -23v1z" />
    <glyph glyph-name="ccedilla" unicode="&#xe7;" horiz-adv-x="444" 
d="M154 -99l41 99h35l-25 -65q2 0 4 0.5t3 0.5q5 1 10 1.5t11 0.5q39 0 61.5 -18t22.5 -52v-1.5v-1.5q-1 -30 -30 -55t-91 -25q-26 0 -43.5 3t-29.5 7q-4 2 -8 3.5t-7 2.5l14 31q5 -2 12.5 -4t14.5 -3q12 -3 21.5 -4t13.5 -1q24 0 41 9.5t17 35.5q0 17 -11 26t-34 9h-8h-8
q-6 -1 -11 -1.5t-9 -2.5l-7 5v0zM398 156l14 -9q-40 -86 -89.5 -121.5t-110.5 -35.5q-12 0 -25 2t-26 6q-51 16 -93.5 67.5t-42.5 146.5q0 115 63.5 176.5t139.5 69.5q5 0 10.5 0.5t10.5 0.5q8 0 17 -1t18 -3q20 -4 39 -11.5t32 -15.5q10 -7 17.5 -15t12.5 -16q7 -11 10 -21
t3 -18q0 -17 -11.5 -29.5t-34.5 -14.5h-1.5h-1.5q-16 0 -26.5 11.5t-16.5 25.5q-1 2 -1.5 4.5t-1.5 4.5l-6 23l-0.5 1.5t-0.5 2.5q-6 20 -17 31.5t-48 11.5q-10 0 -25.5 -4t-31.5 -13q-27 -17 -49.5 -54.5t-22.5 -106.5q0 -86 45 -138.5t108 -52.5q54 0 86 28t57 66v1z" />
    <glyph glyph-name="egrave" unicode="&#xe8;" horiz-adv-x="444" 
d="M408 164l16 -7q-3 -11 -13.5 -33.5t-30.5 -47.5q-25 -33 -66 -59.5t-102 -26.5q-83 0 -135 58.5t-52 164.5q0 102 42 157t93 75q18 7 35.5 10.5t33.5 3.5q71 0 119.5 -42.5t56.5 -140.5l-311 1q7 -110 43.5 -157t79.5 -58q9 -2 18 -3t18 -1q46 0 76.5 20t50.5 44
q9 11 16 21.5t12 19.5v1zM97 309h206q-1 7 -2.5 15.5t-3.5 17.5q-7 30 -25.5 55.5t-64.5 25.5q-41 0 -69.5 -24.5t-40.5 -90.5v1zM298 507h-40l-154 97q-2 0 -4 2t-5 3q-7 7 -13.5 16t-6.5 21q0 1 0.5 5.5t3.5 9.5q3 6 9.5 11t18.5 5h7.5t6.5 -1q6 -2 12 -6.5t18 -15.5
l147 -147v0z" />
    <glyph glyph-name="eacute" unicode="&#xe9;" horiz-adv-x="444" 
d="M408 164l16 -7q-3 -11 -13.5 -33.5t-30.5 -47.5q-25 -33 -66 -59.5t-102 -26.5q-83 0 -135 58.5t-52 164.5q0 102 42 157t93 75q18 7 35.5 10.5t33.5 3.5q71 0 119.5 -42.5t56.5 -140.5l-311 1q7 -110 43.5 -157t79.5 -58q9 -2 18 -3t18 -1q46 0 76.5 20t50.5 44
q9 11 16 21.5t12 19.5v1zM97 309h206q-1 7 -2.5 15.5t-3.5 17.5q-7 30 -25.5 55.5t-64.5 25.5q-41 0 -69.5 -24.5t-40.5 -90.5v1zM189 507h-40l147 148q12 11 19 15.5t14 5.5q2 1 5 1h6q13 0 19.5 -5t9.5 -11q3 -5 3.5 -10t0.5 -6q0 -11 -5.5 -19.5t-12.5 -14.5l-6 -4l-6 -4
l-154 -96v0z" />
    <glyph glyph-name="ecircumflex" unicode="&#xea;" horiz-adv-x="444" 
d="M408 164l16 -7q-3 -11 -13.5 -33.5t-30.5 -47.5q-25 -33 -66 -59.5t-102 -26.5q-83 0 -135 58.5t-52 164.5q0 102 42 157t93 75q18 7 35.5 10.5t33.5 3.5q71 0 119.5 -42.5t56.5 -140.5l-311 1q7 -110 43.5 -157t79.5 -58q9 -2 18 -3t18 -1q46 0 76.5 20t50.5 44
q9 11 16 21.5t12 19.5v1zM97 309h206q-1 7 -2.5 15.5t-3.5 17.5q-7 30 -25.5 55.5t-64.5 25.5q-41 0 -69.5 -24.5t-40.5 -90.5v1zM378 507h-34l-122 103l-121 -103h-34l124 167h62l125 -167v0z" />
    <glyph glyph-name="edieresis" unicode="&#xeb;" horiz-adv-x="444" 
d="M408 164l16 -7q-3 -11 -13.5 -33.5t-30.5 -47.5q-25 -33 -66 -59.5t-102 -26.5q-83 0 -135 58.5t-52 164.5q0 102 42 157t93 75q18 7 35.5 10.5t33.5 3.5q71 0 119.5 -42.5t56.5 -140.5l-311 1q7 -110 43.5 -157t79.5 -58q9 -2 18 -3t18 -1q46 0 76.5 20t50.5 44
q9 11 16 21.5t12 19.5v1zM97 309h206q-1 7 -2.5 15.5t-3.5 17.5q-7 30 -25.5 55.5t-64.5 25.5q-41 0 -69.5 -24.5t-40.5 -90.5v1zM74 573q0 3 1 7.5t3 9.5q4 12 15 22t29 10q20 0 35 -15t15 -35q0 -21 -15 -35.5t-35 -14.5q-19 0 -30 10.5t-15 23.5q-2 4 -2.5 8t-0.5 8v1z
M273 573q0 3 1 7.5t3 9.5q4 12 15 22t29 10q20 0 35 -15t15 -35q0 -21 -15 -35.5t-35 -14.5q-19 0 -30 10.5t-15 23.5q-2 4 -2.5 8t-0.5 8v1z" />
    <glyph glyph-name="igrave" unicode="&#xec;" horiz-adv-x="278" 
d="M16 0v15q47 1 63 14.5t16 71.5v233q0 37 -9 47.5t-19 11.5h-3.5h-3.5q-10 0 -20 -1t-20 -3v16l155 55l4 -3v-355q0 -50 11 -67.5t63 -20.5v-14h-237v0zM215 507h-40l-154 97q-2 0 -4 2t-5 3q-7 7 -13 16t-6 21q0 1 0.5 5.5t3.5 9.5q3 6 9 11t18 5h7.5t6.5 -1
q6 -2 12 -6.5t18 -15.5l147 -147v0z" />
    <glyph glyph-name="iacute" unicode="&#xed;" horiz-adv-x="278" 
d="M16 0v15q47 1 63 14.5t16 71.5v233q0 37 -9 47.5t-19 11.5h-3.5h-3.5q-10 0 -20 -1t-20 -3v16l155 55l4 -3v-355q0 -50 11 -67.5t63 -20.5v-14h-237v0zM106 507h-40l147 148q12 11 19 15.5t14 5.5q2 1 5 1h6q13 0 19.5 -5t9.5 -11q3 -5 3.5 -10t0.5 -6q0 -11 -5.5 -19.5
t-12.5 -14.5l-6 -4l-6 -4l-154 -96v0z" />
    <glyph glyph-name="icircumflex" unicode="&#xee;" horiz-adv-x="278" 
d="M16 0v15q47 1 63 14.5t16 71.5v233q0 37 -9 47.5t-19 11.5h-3.5h-3.5q-10 0 -20 -1t-20 -3v16l155 55l4 -3v-355q0 -50 11 -67.5t63 -20.5v-14h-237v0zM295 507h-34l-122 103l-121 -103h-34l124 167h62l125 -167v0z" />
    <glyph glyph-name="idieresis" unicode="&#xef;" horiz-adv-x="278" 
d="M16 0v15q47 1 63 14.5t16 71.5v233q0 37 -9 47.5t-19 11.5h-3.5h-3.5q-10 0 -20 -1t-20 -3v16l155 55l4 -3v-355q0 -50 11 -67.5t63 -20.5v-14h-237v0zM-9 573q1 3 2 7.5t3 9.5q4 12 14.5 22t28.5 10q20 0 35 -15t15 -35q0 -21 -15 -35.5t-35 -14.5q-19 0 -29.5 10.5
t-14.5 23.5q-2 4 -2.5 8t-0.5 8zM190 573q0 3 1 7.5t3 9.5q4 12 15 22t29 10q20 0 35 -15t15 -35q0 -21 -15 -35.5t-35 -14.5q-19 0 -30 10.5t-15 23.5q-2 4 -2.5 8t-0.5 8v1z" />
    <glyph glyph-name="glyph233" unicode="&#xf0;" horiz-adv-x="500" 
d="M270 575l-123 -65l-33 30l121 64q-30 21 -63.5 35.5t-69.5 19.5l42 24q44 -4 82.5 -16t69.5 -32l95 51l33 -30l-91 -48q60 -51 93.5 -124t41.5 -151q2 -12 2.5 -24.5t0.5 -25.5q0 -12 -1 -25l-2 -26q-12 -91 -65.5 -166.5t-153.5 -75.5q-97 0 -158.5 67t-61.5 162
q0 98 58 169t158 71q15 0 28.5 -3t27.5 -9q15 -6 30.5 -17.5t32.5 -27.5l2 3q-1 2 -1.5 5.5t-1.5 7.5q-9 41 -33.5 81.5t-59.5 74.5v1zM263 18q7 -1 15 0t16 4q32 10 59.5 49.5t27.5 126.5q0 116 -44 174.5t-99 58.5q-47 0 -83 -38.5t-36 -115.5q0 -21 3 -51.5t10 -62.5
q14 -55 44 -100.5t87 -45.5v1z" />
    <glyph glyph-name="ntilde" unicode="&#xf1;" horiz-adv-x="500" 
d="M80 90v248q0 40 -9 51t-19 12h-3.5h-3.5q-10 0 -18 -1t-11 -3v18q23 6 46 13t46 15q11 4 23 8t23 8l7 -1v-79q13 11 24.5 21.5t23.5 20.5q22 17 45.5 27.5t52.5 10.5q9 0 19 -1.5t20 -5.5q29 -10 53.5 -42.5t24.5 -100.5v-228q0 -36 12 -50t49 -17v-14h-208v15
q28 1 45.5 13.5t17.5 69.5v210q0 45 -16.5 70.5t-60.5 25.5q-22 0 -46 -14.5t-53 -42.5v-280q0 -26 13.5 -38.5t52.5 -14.5v-14h-212v15q35 1 48.5 15.5t13.5 58.5v1zM386 638h29q-2 -10 -5.5 -21.5t-9.5 -23.5q-10 -23 -31 -42.5t-59 -19.5q-13 0 -24 2t-21 6q-9 3 -17.5 7
t-18.5 9l-23 12q-4 1 -9 3t-9 4q-5 1 -9.5 2t-9.5 1q-20 0 -31 -9t-17 -20q-2 -5 -4 -9t-3 -8l-29 1q1 5 3 11.5t4 12.5q10 29 33.5 52.5t64.5 23.5q16 0 32.5 -4.5t33.5 -13.5l24 -11q2 -2 5 -3.5l5 -2.5q5 -2 9.5 -3.5t8.5 -2.5q5 -2 10.5 -3t9.5 -1q16 0 27.5 6.5
t21.5 24.5q2 4 4.5 8.5t4.5 10.5v1z" />
    <glyph glyph-name="ograve" unicode="&#xf2;" horiz-adv-x="500" 
d="M245 460q98 -1 161.5 -62.5t63.5 -170.5q0 -17 -2.5 -34.5t-8.5 -35.5q-18 -63 -70 -115t-141 -52q-97 0 -158 68t-61 169q0 92 58 162t158 70v1zM262 18q7 -1 15 0t16 4q32 10 59.5 49.5t27.5 126.5q0 93 -37 163t-106 70q-47 0 -82.5 -39t-35.5 -117q0 -21 3 -51.5
t11 -62.5q12 -54 42.5 -99t86.5 -45v1zM326 507h-40l-154 97q-2 0 -4 2t-5 3q-7 7 -13.5 16t-6.5 21q0 1 0.5 5.5t3.5 9.5q3 6 9.5 11t18.5 5h7.5t6.5 -1q6 -2 12 -6.5t18 -15.5l147 -147v0z" />
    <glyph glyph-name="oacute" unicode="&#xf3;" horiz-adv-x="500" 
d="M245 460q98 -1 161.5 -62.5t63.5 -170.5q0 -17 -2.5 -34.5t-8.5 -35.5q-18 -63 -70 -115t-141 -52q-97 0 -158 68t-61 169q0 92 58 162t158 70v1zM262 18q7 -1 15 0t16 4q32 10 59.5 49.5t27.5 126.5q0 93 -37 163t-106 70q-47 0 -82.5 -39t-35.5 -117q0 -21 3 -51.5
t11 -62.5q12 -54 42.5 -99t86.5 -45v1zM217 507h-40l147 148q12 11 19 15.5t14 5.5q2 1 5 1h6q13 0 19.5 -5t9.5 -11q3 -5 3.5 -10t0.5 -6q0 -11 -5.5 -19.5t-12.5 -14.5l-6 -4l-6 -4l-154 -96v0z" />
    <glyph glyph-name="ocircumflex" unicode="&#xf4;" horiz-adv-x="500" 
d="M245 460q98 -1 161.5 -62.5t63.5 -170.5q0 -17 -2.5 -34.5t-8.5 -35.5q-18 -63 -70 -115t-141 -52q-97 0 -158 68t-61 169q0 92 58 162t158 70v1zM262 18q7 -1 15 0t16 4q32 10 59.5 49.5t27.5 126.5q0 93 -37 163t-106 70q-47 0 -82.5 -39t-35.5 -117q0 -21 3 -51.5
t11 -62.5q12 -54 42.5 -99t86.5 -45v1zM406 507h-34l-122 103l-121 -103h-34l124 167h62l125 -167v0z" />
    <glyph glyph-name="otilde" unicode="&#xf5;" horiz-adv-x="500" 
d="M245 460q98 -1 161.5 -62.5t63.5 -170.5q0 -17 -2.5 -34.5t-8.5 -35.5q-18 -63 -70 -115t-141 -52q-97 0 -158 68t-61 169q0 92 58 162t158 70v1zM262 18q7 -1 15 0t16 4q32 10 59.5 49.5t27.5 126.5q0 93 -37 163t-106 70q-47 0 -82.5 -39t-35.5 -117q0 -21 3 -51.5
t11 -62.5q12 -54 42.5 -99t86.5 -45v1zM386 638h29q-2 -10 -5.5 -21.5t-9.5 -23.5q-10 -23 -31 -42.5t-59 -19.5q-13 0 -24 2t-21 6q-9 3 -17.5 7t-18.5 9l-23 12q-4 1 -9 3t-9 4q-5 1 -9.5 2t-9.5 1q-20 0 -31 -9t-17 -20q-2 -5 -4 -9t-3 -8l-29 1q1 5 3 11.5t4 12.5
q10 29 33.5 52.5t64.5 23.5q16 0 32.5 -4.5t33.5 -13.5l24 -11q2 -2 5 -3.5l5 -2.5q5 -2 9.5 -3.5t8.5 -2.5q5 -2 10.5 -3t9.5 -1q16 0 27.5 6.5t21.5 24.5q2 4 4.5 8.5t4.5 10.5v1z" />
    <glyph glyph-name="odieresis" unicode="&#xf6;" horiz-adv-x="500" 
d="M245 460q98 -1 161.5 -62.5t63.5 -170.5q0 -17 -2.5 -34.5t-8.5 -35.5q-18 -63 -70 -115t-141 -52q-97 0 -158 68t-61 169q0 92 58 162t158 70v1zM262 18q7 -1 15 0t16 4q32 10 59.5 49.5t27.5 126.5q0 93 -37 163t-106 70q-47 0 -82.5 -39t-35.5 -117q0 -21 3 -51.5
t11 -62.5q12 -54 42.5 -99t86.5 -45v1zM102 573q0 3 1 7.5t3 9.5q4 12 15 22t29 10q20 0 35 -15t15 -35q0 -21 -15 -35.5t-35 -14.5q-19 0 -30 10.5t-15 23.5q-2 4 -2.5 8t-0.5 8v1zM301 573q0 3 1 7.5t3 9.5q4 12 15 22t29 10q20 0 35 -15t15 -35q0 -21 -15 -35.5
t-35 -14.5q-19 0 -30 10.5t-15 23.5q-2 4 -2.5 8t-0.5 8v1z" />
    <glyph glyph-name="Aacute" unicode="&#xf7;" 
 />
    <glyph glyph-name="OE" unicode="&#xf8;" horiz-adv-x="500" 
d="M437 551l-65 -125q46 -29 72 -79.5t26 -119.5q0 -17 -2.5 -34.5t-8.5 -35.5q-18 -63 -70 -115t-141 -52q-25 0 -48.5 5t-45.5 15l-65 -122h-37l73 140q-45 31 -70.5 83t-25.5 116q0 92 58 162t158 70q26 0 50 -4.5t46 -13.5l57 110h39v0zM340 366l-161 -306
q15 -20 35.5 -31.5t47.5 -11.5q7 0 15 1t16 4q32 10 59.5 49.5t27.5 126.5q0 48 -10 91.5t-30 75.5v1zM158 92l159 304q-16 16 -36 25.5t-44 9.5q-47 0 -82.5 -39t-35.5 -117q0 -20 3 -50t10 -62q5 -19 11 -37.5t15 -34.5v1z" />
    <glyph glyph-name="ugrave" unicode="&#xf9;" horiz-adv-x="500" 
d="M479 50v-14q-26 -8 -48 -14.5t-43 -14.5q-11 -4 -23 -7.5t-25 -8.5l-2 2v83l-43 -43q-7 -8 -14 -13.5t-14 -9.5q-24 -13 -45.5 -16.5t-31.5 -3.5t-22 2t-25 7q-27 10 -49.5 38t-22.5 82v253q0 41 -17.5 51t-39.5 12h-2.5h-2.5v15h146v-326q0 -6 2 -16t7 -22
q7 -14 22.5 -26.5t43.5 -12.5q23 0 45 10t42 26q7 6 11.5 16t4.5 35v236q0 29 -10.5 45t-63.5 17v18h158v-343q0 -27 7.5 -42.5t47.5 -15.5h2h2h1h2v1zM326 507h-40l-154 97q-2 0 -4 2t-5 3q-7 7 -13.5 16t-6.5 21q0 1 0.5 5.5t3.5 9.5q3 6 9.5 11t18.5 5h7.5t6.5 -1
q6 -2 12 -6.5t18 -15.5l147 -147v0z" />
    <glyph glyph-name="uacute" unicode="&#xfa;" horiz-adv-x="500" 
d="M479 50v-14q-26 -8 -48 -14.5t-43 -14.5q-11 -4 -23 -7.5t-25 -8.5l-2 2v83l-43 -43q-7 -8 -14 -13.5t-14 -9.5q-24 -13 -45.5 -16.5t-31.5 -3.5t-22 2t-25 7q-27 10 -49.5 38t-22.5 82v253q0 41 -17.5 51t-39.5 12h-2.5h-2.5v15h146v-326q0 -6 2 -16t7 -22
q7 -14 22.5 -26.5t43.5 -12.5q23 0 45 10t42 26q7 6 11.5 16t4.5 35v236q0 29 -10.5 45t-63.5 17v18h158v-343q0 -27 7.5 -42.5t47.5 -15.5h2h2h1h2v1zM217 507h-40l147 148q12 11 19 15.5t14 5.5q2 1 5 1h6q13 0 19.5 -5t9.5 -11q3 -5 3.5 -10t0.5 -6q0 -11 -5.5 -19.5
t-12.5 -14.5l-6 -4l-6 -4l-154 -96v0z" />
    <glyph glyph-name="ucircumflex" unicode="&#xfb;" horiz-adv-x="500" 
d="M479 50v-14q-26 -8 -48 -14.5t-43 -14.5q-11 -4 -23 -7.5t-25 -8.5l-2 2v83l-43 -43q-7 -8 -14 -13.5t-14 -9.5q-24 -13 -45.5 -16.5t-31.5 -3.5t-22 2t-25 7q-27 10 -49.5 38t-22.5 82v253q0 41 -17.5 51t-39.5 12h-2.5h-2.5v15h146v-326q0 -6 2 -16t7 -22
q7 -14 22.5 -26.5t43.5 -12.5q23 0 45 10t42 26q7 6 11.5 16t4.5 35v236q0 29 -10.5 45t-63.5 17v18h158v-343q0 -27 7.5 -42.5t47.5 -15.5h2h2h1h2v1zM406 507h-34l-122 103l-121 -103h-34l124 167h62l125 -167v0z" />
    <glyph glyph-name="udieresis" unicode="&#xfc;" horiz-adv-x="500" 
d="M479 50v-14q-26 -8 -48 -14.5t-43 -14.5q-11 -4 -23 -7.5t-25 -8.5l-2 2v83l-43 -43q-7 -8 -14 -13.5t-14 -9.5q-24 -13 -45.5 -16.5t-31.5 -3.5t-22 2t-25 7q-27 10 -49.5 38t-22.5 82v253q0 41 -17.5 51t-39.5 12h-2.5h-2.5v15h146v-326q0 -6 2 -16t7 -22
q7 -14 22.5 -26.5t43.5 -12.5q23 0 45 10t42 26q7 6 11.5 16t4.5 35v236q0 29 -10.5 45t-63.5 17v18h158v-343q0 -27 7.5 -42.5t47.5 -15.5h2h2h1h2v1zM102 573q0 3 1 7.5t3 9.5q4 12 15 22t29 10q20 0 35 -15t15 -35q0 -21 -15 -35.5t-35 -14.5q-19 0 -30 10.5t-15 23.5
q-2 4 -2.5 8t-0.5 8v1zM301 573q0 3 1 7.5t3 9.5q4 12 15 22t29 10q20 0 35 -15t15 -35q0 -21 -15 -35.5t-35 -14.5q-19 0 -30 10.5t-15 23.5q-2 4 -2.5 8t-0.5 8v1z" />
    <glyph glyph-name="yacute" unicode="&#xfd;" 
 />
    <glyph glyph-name="glyph237" unicode="&#xfe;" horiz-adv-x="500" 
d="M75 -131v704q0 22 -5.5 36t-38.5 14h-5h-6t-6 -0.5t-5 -0.5v17q18 4 36 9t37 11q18 5 36 11l36 12l5 -2v-295h-1l2 -2q5 5 11.5 12.5t14.5 15.5q20 18 49.5 33t69.5 15q67 0 116 -57.5t49 -157.5q0 -13 -1 -26.5t-4 -26.5q-14 -76 -65.5 -138.5t-139.5 -62.5
q-21 0 -38.5 4.5t-34.5 14.5q-7 4 -14 10t-14 13v-156q0 -48 17 -61.5t71 -13.5v-18h-242v18q50 3 60 19.5t10 48.5v0zM159 334v-246q0 -6 3.5 -13t9.5 -14q13 -15 37 -27.5t52 -12.5q10 0 25 3t31 13q25 17 46 57t21 120q0 8 -2 34.5t-12 56.5q-12 35 -38 64.5t-75 29.5
q-8 0 -16.5 -1.5t-17.5 -4.5q-22 -8 -41.5 -24t-22.5 -36v1z" />
    <glyph glyph-name="Egrave" unicode="&#xff;" horiz-adv-x="500" 
d="M475 450v-15q-6 -2 -13 -4t-15 -8q-5 -5 -10 -13t-10 -21l-154 -407q-7 -19 -14 -35.5t-14 -31.5q-30 -67 -63 -100t-79 -33q-32 0 -49.5 14t-21.5 31q-1 4 -1.5 7t-0.5 6q0 2 1 8.5t4 13.5q5 8 14.5 15t28.5 7q4 0 7.5 -0.5t7.5 -1.5q7 -1 13.5 -3t12.5 -4q9 -3 17 -6
t13 -3q21 0 38.5 24.5t29.5 53.5q12 26 18 47.5t6 27.5t-9.5 27.5t-21.5 45.5q0 1 -0.5 2.5t-1.5 2.5l-17 34t-12 26l-114 247q-5 9 -12 15t-14 9t-13.5 4.5t-11.5 2.5v15h206v-15q-4 -1 -9 -1.5t-10 -0.5q-15 -2 -27 -7.5t-12 -20.5q0 -2 0.5 -5t0.5 -5l2 -8t3 -7
q1 -4 2 -6.5t2 -4.5l115 -252l78 222q1 3 2.5 7t3.5 8q6 17 11.5 32t5.5 20q0 14 -11 21t-33 7h-2h-2v16h135v0zM102 573q0 3 1 7.5t3 9.5q4 12 15 22t29 10q20 0 35 -15t15 -35q0 -21 -15 -35.5t-35 -14.5q-19 0 -30 10.5t-15 23.5q-2 4 -2.5 8t-0.5 8v1zM301 573
q0 3 1 7.5t3 9.5q4 12 15 22t29 10q20 0 35 -15t15 -35q0 -21 -15 -35.5t-35 -14.5q-19 0 -30 10.5t-15 23.5q-2 4 -2.5 8t-0.5 8v1z" />
    <glyph glyph-name="Abreve" unicode="&#x102;" 
 />
    <glyph glyph-name="abreve" unicode="&#x103;" 
 />
    <glyph glyph-name="Aogonek" unicode="&#x104;" 
 />
    <glyph glyph-name="aogonek" unicode="&#x105;" 
 />
    <glyph glyph-name="Cacute" unicode="&#x106;" 
 />
    <glyph glyph-name="cacute" unicode="&#x107;" 
 />
    <glyph glyph-name="Ccaron" unicode="&#x10c;" 
 />
    <glyph glyph-name="ccaron" unicode="&#x10d;" 
 />
    <glyph glyph-name="Dcaron" unicode="&#x10e;" 
 />
    <glyph glyph-name="dcaron" unicode="&#x10f;" 
 />
    <glyph glyph-name="Dcroat" unicode="&#x110;" 
 />
    <glyph glyph-name="dcroat" unicode="&#x111;" 
 />
    <glyph glyph-name="Eogonek" unicode="&#x118;" 
 />
    <glyph glyph-name="eogonek" unicode="&#x119;" 
 />
    <glyph glyph-name="Ecaron" unicode="&#x11a;" 
 />
    <glyph glyph-name="ecaron" unicode="&#x11b;" 
 />
    <glyph glyph-name="Gbreve" unicode="&#x11e;" 
 />
    <glyph glyph-name="gbreve" unicode="&#x11f;" 
 />
    <glyph glyph-name="Idotaccent" unicode="&#x130;" 
 />
    <glyph glyph-name="thorn" unicode="&#x131;" horiz-adv-x="278" 
d="M16 0v15q47 1 63 14.5t16 71.5v233q0 37 -9 47.5t-19 11.5h-3.5h-3.5q-10 0 -20 -1t-20 -3v16l155 55l4 -3v-355q0 -50 11 -67.5t63 -20.5v-14h-237v0z" />
    <glyph glyph-name="Lacute" unicode="&#x139;" 
 />
    <glyph glyph-name="lacute" unicode="&#x13a;" 
 />
    <glyph glyph-name="Lcaron" unicode="&#x13d;" 
 />
    <glyph glyph-name="lcaron" unicode="&#x13e;" 
 />
    <glyph glyph-name="Ldot" unicode="&#x13f;" 
 />
    <glyph glyph-name="ldot" unicode="&#x140;" 
 />
    <glyph glyph-name="glyph225" unicode="&#x141;" horiz-adv-x="611" 
d="M598 174l-48 -174h-538v19q48 2 67.5 16.5t19.5 72.5v171l-87 -53v49l87 54v224q0 58 -20 71.5t-67 17.5v20h282v-19q-51 -4 -72 -18t-21 -73v-174l155 95v-49l-155 -94v-250q0 -31 19.5 -36.5t81.5 -5.5q113 0 170.5 18.5t100.5 116.5l25 1v0z" />
    <glyph glyph-name="glyph226" unicode="&#x142;" horiz-adv-x="278" 
d="M21 0v15q44 2 60.5 16t16.5 55v230l-78 -52v44l78 53v203q0 33 -8 46.5t-37 13.5h-10.5t-9.5 -1q-3 0 -6.5 -0.5t-7.5 -0.5v17q40 9 79.5 19.5t79.5 23.5l4 -1v-262l77 53v-44l-77 -52v-292q0 -44 16 -56t59 -14v-14h-236v0z" />
    <glyph glyph-name="Nacute" unicode="&#x143;" 
 />
    <glyph glyph-name="nacute" unicode="&#x144;" 
 />
    <glyph glyph-name="Ncaron" unicode="&#x147;" 
 />
    <glyph glyph-name="ncaron" unicode="&#x148;" 
 />
    <glyph glyph-name="Ohungarumlaut" unicode="&#x150;" 
 />
    <glyph glyph-name="ohungarumlaut" unicode="&#x151;" 
 />
    <glyph glyph-name="fi" unicode="&#x152;" horiz-adv-x="889" 
d="M838 521h-23q-8 73 -46 88.5t-122 15.5l-51 1q-46 -1 -55.5 -6t-9.5 -19v-235q152 -1 186 10t43 75q1 3 1.5 5.5t0.5 5.5l22 1v-234h-22q-4 36 -13.5 58.5t-33.5 29.5q-2 1 -4 1.5t-4 1.5q-15 5 -45 6.5t-131 1.5v-244q0 -34 14.5 -40.5t41.5 -6.5l124 3q7 -1 14 0t15 3
q28 6 57.5 32t63.5 92l24 1l-44 -168h-350h-22.5t-22.5 -1q-12 0 -23.5 -0.5t-22.5 -1.5q-7 0 -14.5 -0.5t-15.5 -0.5q-3 0 -7 -0.5t-7 -0.5q-12 0 -23 -0.5t-22 -0.5q-112 0 -196.5 81.5t-84.5 237.5q0 188 92.5 271t228.5 83q5 0 19.5 -0.5t36.5 -2.5q7 0 15 -0.5t16 -0.5
q17 -1 36 -1.5t38 -0.5l326 1v-141v0zM431 131v396v5v7q-2 34 -20 63t-79 29q-103 0 -146.5 -91t-43.5 -211q0 -127 42 -213t149 -86q63 0 80.5 30t17.5 70v1z" />
    <glyph glyph-name="fl" unicode="&#x153;" horiz-adv-x="722" 
d="M679 145l11 -6q-4 -9 -7.5 -17t-8.5 -16q-23 -44 -61 -80t-100 -36q-49 0 -80 23.5t-50 70.5q-12 -25 -27 -42t-30 -27q-27 -17 -51 -21t-35 -4t-22.5 1t-23.5 4q-62 12 -113 65t-51 160q0 18 4.5 48t17.5 62q19 49 62 89t121 40q17 0 48 -6.5t64 -32.5q10 -8 19 -17
t18 -20q4 6 8.5 12t9.5 12q17 19 43.5 35.5t69.5 16.5q12 0 31.5 -3.5t41.5 -13.5q32 -16 59 -54t27 -112l-254 1q1 -17 3 -45t9 -58q11 -45 37.5 -81.5t81.5 -36.5q32 0 57 16t42 36q9 10 16.5 19.5t12.5 16.5v1zM227 431q-8 -1 -17.5 -2.5t-18.5 -5.5q-27 -11 -49 -44
t-22 -99q0 -22 1 -52t5 -62q8 -56 33 -103.5t80 -47.5q59 0 81.5 52.5t22.5 137.5q0 17 -1.5 45t-7.5 58q-10 46 -34 84t-73 38v1zM419 307h160v27v0.5v1.5q-1 35 -21 64.5t-56 29.5t-53 -20.5t-24 -45.5q-4 -17 -5 -33t-1 -25v1z" />
    <glyph glyph-name="Racute" unicode="&#x154;" 
 />
    <glyph glyph-name="racute" unicode="&#x155;" 
 />
    <glyph glyph-name="Rcaron" unicode="&#x158;" 
 />
    <glyph glyph-name="rcaron" unicode="&#x159;" 
 />
    <glyph glyph-name="Sacute" unicode="&#x15a;" 
 />
    <glyph glyph-name="sacute" unicode="&#x15b;" 
 />
    <glyph glyph-name="Scedilla" unicode="&#x15e;" 
 />
    <glyph glyph-name="scedilla" unicode="&#x15f;" 
 />
    <glyph glyph-name="glyph227" unicode="&#x160;" horiz-adv-x="556" 
d="M447 676l22 -213h-25q-1 4 -2.5 9t-2.5 10q-17 57 -63 104.5t-118 47.5h-1.5h-1.5q-37 -1 -67.5 -24t-30.5 -69t37 -79t87 -62q10 -7 21 -13t22 -13q63 -37 115 -84t52 -124q0 -7 -0.5 -13.5t-1.5 -12.5q-10 -58 -61.5 -106t-147.5 -48q-28 0 -52 5.5t-43 10.5
q-19 6 -34 11.5t-26 5.5q-15 0 -22.5 -9.5t-8.5 -19.5v-1.5v-1.5h-22l-30 212h23q6 -15 15.5 -36.5t24.5 -44.5q24 -36 63.5 -66.5t101.5 -30.5q57 0 87 32t33 71v4v4q0 13 -1.5 25t-6.5 23q-11 26 -45 55t-110 74q-10 6 -19 11.5t-18 10.5q-54 33 -86.5 71.5t-32.5 102.5
q0 85 55.5 127t122.5 43h1.5h1.5q23 0 44 -5.5t39 -11.5t32.5 -11.5t23.5 -5.5q14 0 21 6t10 14q2 4 2.5 7.5t1.5 6.5l21 1v0zM434 886l-125 -167h-62l-124 167h34l121 -103l122 103h34v0z" />
    <glyph glyph-name="glyph228" unicode="&#x161;" horiz-adv-x="389" 
d="M315 314h-15q-16 72 -45 96.5t-60 25.5h-3.5h-2.5q-31 0 -48 -13.5t-24 -30.5q-2 -5 -3 -10.5t-1 -10.5q0 -8 2 -18.5t8 -20.5q5 -9 13 -17t20 -15l108 -63q2 -2 4 -3.5t4 -2.5q34 -21 55 -46t21 -67q0 -54 -34.5 -85t-76.5 -39q-8 -2 -17 -3t-17 -1q-16 0 -32 3t-31 6
q-15 2 -27.5 5t-23.5 3h-0.5h-0.5h-0.5h-0.5q-7 0 -11 -1.5t-8 -5.5l-1 -1.5t-2 -2.5h-13v156h16q3 -12 6 -25t7 -26q12 -34 37.5 -62t78.5 -28q6 0 11.5 0.5t11.5 2.5q22 4 40 20.5t18 49.5q0 24 -14 42.5t-38 31.5l-58 34q-46 25 -81.5 57.5t-35.5 87.5q0 6 0.5 11.5
t1.5 10.5q8 38 41.5 69t96.5 31q17 0 31 -3t25 -7l21 -7t15 -3q5 0 8 2t6 5q1 1 1.5 2t1.5 2l11 1l4 -137v0zM350 674l-125 -167h-62l-124 167h34l121 -103l122 103h34v0z" />
    <glyph glyph-name="uni0162" unicode="&#x162;" 
 />
    <glyph glyph-name="uni0163" unicode="&#x163;" 
 />
    <glyph glyph-name="Tcaron" unicode="&#x164;" 
 />
    <glyph glyph-name="tcaron" unicode="&#x165;" 
 />
    <glyph glyph-name="Uring" unicode="&#x16e;" 
 />
    <glyph glyph-name="uring" unicode="&#x16f;" 
 />
    <glyph glyph-name="Uhungarumlaut" unicode="&#x170;" 
 />
    <glyph glyph-name="uhungarumlaut" unicode="&#x171;" 
 />
    <glyph glyph-name="Iacute" unicode="&#x178;" horiz-adv-x="722" 
d="M703 662v-19q-2 -1 -4 -1.5t-4 -0.5q-25 -3 -53.5 -21.5t-76.5 -91.5l-148 -225v-194q0 -55 18 -72.5t85 -18.5v-18h-306v19q74 1 87.5 22t13.5 78v175l-131 192q-57 83 -84 113t-47 38q-7 2 -14.5 3t-15.5 2h-0.5h-0.5v20h280v-19q-1 -1 -2.5 -1h-2.5q-32 -2 -49 -6.5
t-17 -24.5q0 -5 2 -11t5 -13q2 -5 4.5 -10t5.5 -9l148 -221l143 226q5 7 9.5 16.5t4.5 19.5q0 20 -17 26t-37 7h-7.5h-7.5v20h219v0zM213 785q0 3 1 7.5t3 9.5q4 12 15 22t29 10q20 0 35 -15t15 -35q0 -21 -15 -35.5t-35 -14.5q-19 0 -30 10.5t-15 23.5q-2 4 -2.5 8t-0.5 8
v1zM412 785q0 3 1 7.5t3 9.5q4 12 15 22t29 10q20 0 35 -15t15 -35q0 -21 -15 -35.5t-35 -14.5q-19 0 -30 10.5t-15 23.5q-2 4 -2.5 8t-0.5 8v1z" />
    <glyph glyph-name="Zacute" unicode="&#x179;" 
 />
    <glyph glyph-name="zacute" unicode="&#x17a;" 
 />
    <glyph glyph-name="Zdotaccent" unicode="&#x17b;" 
 />
    <glyph glyph-name="zdotaccent" unicode="&#x17c;" 
 />
    <glyph glyph-name="Zcaron" unicode="&#x17d;" 
 />
    <glyph glyph-name="zcaron" unicode="&#x17e;" 
 />
    <glyph glyph-name="quotedblright" unicode="&#x192;" horiz-adv-x="500" 
d="M432 407l-10 -31h-120q-7 -52 -12.5 -95.5t-10.5 -82.5q-4 -30 -8 -57.5t-9 -53.5q-25 -130 -64.5 -203t-111.5 -73q-37 0 -58 20.5t-21 49.5q0 17 8 26t18 14q5 2 10.5 3t9.5 1q17 0 26.5 -10t9.5 -27q0 -7 -2.5 -13t-4.5 -10q-3 -5 -5.5 -9t-2.5 -8q0 -5 5.5 -9
t13.5 -4q41 0 58.5 48t23.5 106q1 5 1.5 9.5t0.5 9.5l15 173q1 14 2.5 29t3.5 30q3 30 7.5 60.5t9.5 59.5l2 16h-111l10 31h107q2 15 9 51.5t21 76.5q19 53 55.5 96.5t98.5 43.5q32 0 53 -15.5t27 -34.5q2 -4 2.5 -8t0.5 -8q0 -22 -14.5 -34.5t-32.5 -12.5q-13 0 -21.5 6.5
t-11.5 14.5q-2 3 -3 6.5t-1 6.5q0 6 2 11.5t5 9.5q2 5 4 9t2 7q0 8 -7 10.5t-15 2.5q-49 0 -65.5 -70.5t-25.5 -169.5l126 1v0z" />
    <glyph glyph-name="uni02BA" unicode="&#x2ba;" horiz-adv-x="333" 
d="M37 507h-40l147 148q12 11 19 15.5t14 5.5q2 1 5 1h6q13 0 19.5 -5t9.5 -11q3 -5 3.5 -10t0.5 -6q0 -11 -5.5 -19.5t-12.5 -14.5l-6 -4l-6 -4l-154 -96v0zM193 507h-40l147 148q12 11 19 15.5t14 5.5q2 1 5 1h6q13 0 19.5 -5t9.5 -11q3 -5 3.5 -10t0.5 -6
q0 -11 -5.5 -19.5t-12.5 -14.5l-6 -4l-6 -4l-154 -96v0z" />
    <glyph glyph-name="arrowright" unicode="&#x2c6;" horiz-adv-x="333" 
d="M302 638h29q-2 -10 -5.5 -21.5t-9.5 -23.5q-10 -23 -31 -42.5t-59 -19.5q-13 0 -24 2t-21 6q-9 3 -17.5 7t-18.5 9l-23 12q-4 1 -9 3t-9 4q-5 1 -9.5 2t-9.5 1q-20 0 -31 -9t-17 -20q-2 -5 -4 -9t-3 -8l-29 1q1 5 3 11.5t4 12.5q10 29 33.5 52.5t64.5 23.5
q16 0 32.5 -4.5t33.5 -13.5l24 -11q2 -2 5 -3.5l5 -2.5q5 -2 9.5 -3.5t8.5 -2.5q5 -2 10.5 -3t9.5 -1q16 0 27.5 6.5t21.5 24.5q2 4 4.5 8.5t4.5 10.5v1z" />
    <glyph glyph-name="glyph224" unicode="&#x2c7;" horiz-adv-x="333" 
d="M322 674l-125 -167h-62l-124 167h34l121 -103l122 103h34v0z" />
    <glyph glyph-name="house" unicode="&#x2c9;" horiz-adv-x="333" 
d="M11 601h311v-54h-311v54v0z" />
    <glyph glyph-name="endash" unicode="&#x2d8;" horiz-adv-x="333" 
d="M278 664h29q-1 -11 -4.5 -32t-12.5 -44q-13 -31 -42 -56.5t-84 -25.5q-53 0 -95.5 37t-42.5 116v0.5v1.5v1.5v0.5l29 1q8 -47 35.5 -72.5t75.5 -25.5q55 0 75.5 28t34.5 64q1 1 1.5 2.5t0.5 2.5v1z" />
    <glyph glyph-name="sfthyphen" unicode="&#x2d9;" horiz-adv-x="333" 
d="M118 573q0 3 1 7.5t3 9.5q4 12 15 22t29 10q20 0 35 -15t15 -35q0 -21 -15 -35.5t-35 -14.5q-19 0 -30 10.5t-15 23.5q-2 4 -2.5 8t-0.5 8v1z" />
    <glyph glyph-name="filledbox" unicode="&#x2da;" horiz-adv-x="333" 
d="M67 611q0 40 28.5 69.5t70.5 29.5q41 0 70.5 -29.5t29.5 -70.5t-29.5 -70t-70.5 -29q-43 0 -71 29.5t-28 69.5v1zM166 677q-24 -1 -38.5 -14t-21.5 -28q-2 -6 -3.5 -12.5t-1.5 -11.5t1 -11t4 -13q6 -15 20.5 -28.5t38.5 -13.5q29 0 48 19t19 46t-19 46.5t-47 19.5v1z" />
    <glyph glyph-name="glyph223" unicode="&#x2db;" horiz-adv-x="333" 
d="M229 -73l20 -16q-19 -29 -47.5 -52.5t-62.5 -23.5q-32 0 -53.5 20.5t-21.5 60.5q0 4 0.5 8t1.5 8q5 16 15.5 30.5t21.5 25.5q4 3 7.5 6.5t7.5 5.5h46q-3 -2 -6.5 -5t-7.5 -7q-11 -10 -20.5 -25t-9.5 -32q0 -19 11.5 -29.5t24.5 -10.5q20 0 36 9t30 21l3.5 3.5t3.5 2.5v0z
" />
    <glyph glyph-name="onehalf" unicode="&#x2dc;" horiz-adv-x="333" 
d="M322 507h-34l-122 103l-121 -103h-34l124 167h62l125 -167v0z" />
    <glyph glyph-name="Gamma" unicode="&#x393;" 
 />
    <glyph glyph-name="Theta" unicode="&#x398;" 
 />
    <glyph glyph-name="exclamdown" unicode="&#x3a3;" 
 />
    <glyph glyph-name="Phi" unicode="&#x3a6;" 
 />
    <glyph glyph-name="Atilde" unicode="&#x3a9;" 
 />
    <glyph glyph-name="alpha" unicode="&#x3b1;" 
 />
    <glyph glyph-name="delta" unicode="&#x3b4;" 
 />
    <glyph glyph-name="epsilon" unicode="&#x3b5;" 
 />
    <glyph glyph-name="guillemotleft" unicode="&#x3c0;" 
 />
    <glyph glyph-name="sigma" unicode="&#x3c3;" 
 />
    <glyph glyph-name="tau" unicode="&#x3c4;" 
 />
    <glyph glyph-name="phi" unicode="&#x3c6;" 
 />
    <glyph glyph-name="glyph259" unicode="&#x2013;" horiz-adv-x="500" 
d="M0 250h500v-49h-500v49v0z" />
    <glyph glyph-name="periodcentered" unicode="&#x2014;" horiz-adv-x="1000" 
d="M0 250h1000v-49h-1000v49v0z" />
    <glyph glyph-name="underscoredbl" unicode="&#x2017;" 
 />
    <glyph glyph-name="Acircumflex" unicode="&#x2018;" horiz-adv-x="333" 
d="M227 676l9 -19q-5 -4 -10 -7.5t-9 -6.5q-38 -29 -50.5 -54.5t-12.5 -38.5q0 -7 4.5 -10.5t9.5 -3.5q2 0 4 0.5t5 1.5q2 1 6 1.5t9 0.5q4 0 8.5 -0.5t9.5 -1.5q16 -3 30 -14t14 -34q0 -26 -13.5 -39t-29.5 -17q-4 -1 -7.5 -1.5t-7.5 -0.5q-6 0 -16 2t-20 7q-17 8 -31 28
t-14 59q0 33 19 62.5t42 50.5q15 13 28.5 22t22.5 12v1z" />
    <glyph glyph-name="Ecircumflex" unicode="&#x2019;" horiz-adv-x="333" 
d="M106 433l-9 19q5 2 10 5.5t9 6.5q38 29 50.5 54.5t12.5 38.5q0 7 -4.5 10.5t-9.5 3.5q-1 0 -3.5 -0.5t-5.5 -1.5q-2 -1 -6 -1.5t-9 -0.5q-4 0 -8.5 0.5t-9.5 1.5q-16 3 -30 14t-14 34q0 26 13.5 39t29.5 17q4 1 7.5 1.5t7.5 0.5q6 0 16 -2t20 -7q17 -8 31 -28t14 -59
q0 -33 -19 -62.5t-42 -50.5q-15 -13 -28.5 -22t-22.5 -12v1z" />
    <glyph glyph-name="Ugrave" unicode="&#x201a;" 
 />
    <glyph glyph-name="quotedblbase" unicode="&#x201c;" horiz-adv-x="444" 
d="M155 676l9 -19q-5 -4 -10 -7.5t-9 -6.5q-38 -29 -50.5 -54.5t-12.5 -38.5q0 -7 4.5 -10.5t9.5 -3.5q2 0 4 0.5t5 1.5q2 1 6 1.5t9 0.5q4 0 8.5 -0.5t9.5 -1.5q16 -3 30 -14t14 -34q0 -26 -13.5 -39t-29.5 -17q-4 -1 -7.5 -1.5t-7.5 -0.5q-6 0 -16 2t-20 7q-17 8 -31 28
t-14 59q0 33 19 62.5t42 50.5q15 13 28.5 22t22.5 12v1zM387 676l9 -19q-5 -4 -10 -7.5t-9 -6.5q-38 -29 -50.5 -54.5t-12.5 -38.5q0 -7 4.5 -10.5t9.5 -3.5q2 0 4 0.5t5 1.5q2 1 6 1.5t9 0.5q4 0 8.5 -0.5t9.5 -1.5q16 -3 30 -14t14 -34q0 -26 -13.5 -39t-29.5 -17
q-4 -1 -7.5 -1.5t-7.5 -0.5q-6 0 -16 2t-20 7q-17 8 -31 28t-14 59q0 33 19 62.5t42 50.5q15 13 28.5 22t22.5 12v1z" />
    <glyph glyph-name="perthousand" unicode="&#x201d;" horiz-adv-x="444" 
d="M57 433l-9 19q5 2 10 5.5t9 6.5q38 29 50.5 54.5t12.5 38.5q0 7 -4.5 10.5t-9.5 3.5q-1 0 -3.5 -0.5t-5.5 -1.5q-2 -1 -6 -1.5t-9 -0.5q-4 0 -8.5 0.5t-9.5 1.5q-16 3 -30 14t-14 34q0 26 13.5 39t29.5 17q4 1 7.5 1.5t7.5 0.5q6 0 16 -2t20 -7q17 -8 31 -28t14 -59
q0 -33 -19 -62.5t-42 -50.5q-15 -13 -28.5 -22t-22.5 -12v1zM289 433l-9 19q5 2 10 5.5t9 6.5q38 29 50.5 54.5t12.5 38.5q0 7 -4.5 10.5t-9.5 3.5q-1 0 -3.5 -0.5t-5.5 -1.5q-2 -1 -6 -1.5t-9 -0.5q-4 0 -8.5 0.5t-9.5 1.5q-16 3 -30 14t-14 34q0 26 13.5 39t29.5 17
q4 1 7.5 1.5t7.5 0.5q6 0 16 -2t20 -7q17 -8 31 -28t14 -59q0 -33 -19 -62.5t-42 -50.5q-15 -13 -28.5 -22t-22.5 -12v1z" />
    <glyph glyph-name="dotlessi" unicode="&#x201e;" horiz-adv-x="444" 
d="M72 -141l-9 19q5 3 10 6.5t9 6.5q38 29 50.5 54.5t12.5 38.5q0 7 -4.5 10.5t-9.5 3.5q-1 0 -3.5 -0.5t-5.5 -1.5q-2 -1 -6 -1.5t-9 -0.5q-4 0 -8.5 0.5t-9.5 1.5q-16 3 -30 13.5t-14 33.5q0 26 13.5 39t29.5 17q4 1 7.5 1.5t7.5 0.5q6 0 16 -2t20 -7q17 -8 31 -28t14 -59
q0 -32 -19 -61.5t-42 -50.5q-15 -13 -28.5 -22t-22.5 -12v0zM304 -141l-9 19q5 3 10 6.5t9 6.5q38 29 50.5 54.5t12.5 38.5q0 7 -4.5 10.5t-9.5 3.5q-1 0 -3.5 -0.5t-5.5 -1.5q-2 -1 -6 -1.5t-9 -0.5q-4 0 -8.5 0.5t-9.5 1.5q-16 3 -30 13.5t-14 33.5q0 26 13.5 39t29.5 17
q4 1 7.5 1.5t7.5 0.5q6 0 16 -2t20 -7q17 -8 31 -28t14 -59q0 -32 -19 -61.5t-42 -50.5q-15 -13 -28.5 -22t-22.5 -12v0z" />
    <glyph glyph-name="dagger" unicode="&#x2020;" horiz-adv-x="500" 
d="M262 -149h-21l-1 123q-1 71 -10 135.5t-20 105.5q-3 12 -6 21.5t-6 15.5q16 17 24.5 42t12.5 52q4 26 4.5 50t0.5 41q-28 -2 -46.5 -6.5t-31.5 -9.5q-7 -3 -13 -5.5t-12 -5.5q-8 -3 -17 -5t-20 -2h-4.5t-5.5 1q-12 2 -21.5 11.5t-9.5 31.5q0 19 9.5 29t21.5 13
q3 0 5.5 0.5t4.5 0.5q11 0 20 -2.5t17 -5.5q5 -2 9.5 -4.5t10.5 -5.5q13 -6 32.5 -11t50.5 -6q0 46 -5.5 72t-12.5 43q-3 7 -6 13t-5 12q-3 8 -5 15.5t-2 17.5q0 19 14 33t33 14q18 0 32 -14t14 -33q0 -10 -2 -17.5t-5 -15.5q-2 -6 -5 -12t-6 -13q-7 -17 -12.5 -43t-5.5 -72
q31 1 50.5 6t32.5 11q6 3 10.5 5.5t9.5 4.5q8 3 17 5.5t20 2.5q2 0 4.5 -0.5t5.5 -0.5q12 -3 21.5 -13t9.5 -29q0 -22 -9.5 -31.5t-21.5 -11.5q-3 -1 -5.5 -1h-4.5q-11 0 -20 2t-17 5q-6 3 -12 5.5t-13 5.5q-13 5 -31.5 9.5t-46.5 6.5q0 -17 0.5 -41t4.5 -50q4 -27 12.5 -52
t24.5 -42q-1 -3 -2.5 -6t-2.5 -6q-13 -36 -24 -109.5t-11 -156.5l-1 -123v0z" />
    <glyph glyph-name="Uacute" unicode="&#x2021;" horiz-adv-x="500" 
d="M442 448q0 -23 -9.5 -32.5t-21.5 -11.5q-3 -1 -5.5 -1h-4.5q-11 0 -20 2t-17 5q-6 3 -12 5.5t-13 5.5q-13 5 -31.5 9.5t-46.5 6.5v-5v-6q0 -17 0.5 -40.5t5.5 -49.5q4 -21 12 -41t22 -36q-15 -16 -23.5 -37.5t-12.5 -44.5t-4.5 -44.5t-0.5 -38.5v-5.5v-4.5q28 2 46.5 6.5
t31.5 9.5q7 3 13 5.5t12 5.5q8 3 17 5t20 2h4.5t5.5 -1q12 -2 21.5 -11.5t9.5 -31.5q0 -19 -9.5 -29t-21.5 -13q-3 0 -5.5 -0.5t-4.5 -0.5q-11 0 -20 2.5t-17 5.5q-5 2 -9.5 4.5t-10.5 5.5q-13 6 -32.5 11t-50.5 6q0 -46 5.5 -71.5t12.5 -42.5q3 -7 6 -13t5 -12
q3 -8 5 -15.5t2 -17.5q0 -19 -14 -33t-32 -14q-19 0 -33 14t-14 33q0 10 2 17.5t5 15.5q2 6 5 12t6 13q7 17 12.5 42.5t5.5 71.5q-31 -1 -50.5 -6t-32.5 -11q-6 -3 -10.5 -5.5t-9.5 -4.5q-8 -3 -17 -5.5t-20 -2.5q-2 0 -4.5 0.5t-5.5 0.5q-12 3 -21.5 13t-9.5 29
q0 22 9.5 31.5t21.5 11.5q3 1 5.5 1h4.5q11 0 20 -2t17 -5q6 -3 12 -5.5t13 -5.5q13 -5 31.5 -9.5t46.5 -6.5v4v4q0 15 -0.5 35.5t-3.5 42.5q-3 26 -11 50t-25 39q13 16 20.5 35.5t12.5 39.5q6 28 7 54.5t1 43.5v2.5v2.5q-28 -2 -46.5 -6.5t-31.5 -9.5q-7 -3 -13 -5.5
t-12 -5.5q-8 -3 -17 -5t-20 -2h-4.5t-5.5 1q-12 2 -21.5 11.5t-9.5 31.5q0 19 9.5 29t21.5 13q3 0 5.5 0.5t4.5 0.5q11 0 20 -2.5t17 -5.5q5 -2 9.5 -4.5t10.5 -5.5q13 -6 32.5 -11t50.5 -6q0 46 -5.5 72t-12.5 43q-3 7 -6 13t-5 12q-3 8 -5 15.5t-2 17.5q0 19 14 33t33 14
q18 0 32 -14t14 -33q0 -10 -2 -17.5t-5 -15.5q-2 -6 -5 -12t-6 -13q-7 -17 -12.5 -43t-5.5 -72q31 1 50.5 6t32.5 11q6 3 10.5 5.5t9.5 4.5q8 3 17 5.5t20 2.5q2 0 4.5 -0.5t5.5 -0.5q12 -3 21.5 -13t9.5 -29v1z" />
    <glyph glyph-name="glyph262" unicode="&#x2022;" horiz-adv-x="350" 
d="M310 331q0 -56 -39.5 -96t-95.5 -40t-95.5 39.5t-39.5 95.5q-1 56 38.5 95.5t96.5 39.5q56 0 95.5 -39.5t39.5 -95.5v1z" />
    <glyph glyph-name="fraction" unicode="&#x2026;" horiz-adv-x="1000" 
d="M166 -11q-4 0 -9 1t-10 3q-14 5 -25 16.5t-11 32.5q0 24 16.5 40.5t38.5 16.5q23 0 39.5 -17t16.5 -40q0 -20 -11 -31.5t-25 -17.5q-5 -2 -10 -3t-10 -1v0zM499 -11q-4 0 -9 1t-10 3q-14 5 -25 16.5t-11 32.5q0 24 16.5 40.5t38.5 16.5q23 0 39.5 -17t16.5 -40
q0 -20 -11 -31.5t-25 -17.5q-5 -2 -10 -3t-10 -1v0zM832 -11q-4 0 -9 1t-10 3q-14 5 -25 16.5t-11 32.5q0 24 16.5 40.5t38.5 16.5q23 0 39.5 -17t16.5 -40q0 -20 -11 -31.5t-25 -17.5q-5 -2 -10 -3t-10 -1v0z" />
    <glyph glyph-name="circumflex" unicode="&#x2030;" horiz-adv-x="1000" 
d="M535 330q48 -1 72.5 -32.5t24.5 -76.5q0 -98 -44 -161.5t-97 -75.5q-5 -2 -11 -2.5t-11 -0.5q-10 0 -23.5 3t-28.5 10q-26 12 -48 42.5t-22 85.5q0 75 55.5 138t121.5 69h5.5h5.5v1zM547 302q-36 -1 -63 -38t-43 -81q-11 -30 -16.5 -58t-5.5 -44q0 -28 14 -51t40 -23
q44 0 73.5 36t45.5 78q8 25 12.5 47.5t4.5 39.5q0 47 -18 70t-44 23v1zM897 330q48 -1 72.5 -32.5t24.5 -76.5q0 -98 -44 -161.5t-97 -75.5q-5 -2 -11 -2.5t-11 -0.5q-10 0 -23.5 3t-28.5 10q-26 12 -48 42.5t-22 85.5q0 75 55.5 138t121.5 69h5.5h5.5v1zM909 302
q-36 -1 -63 -38t-43 -81q-11 -30 -16.5 -58t-5.5 -44q0 -28 14 -51t40 -23q44 0 73.5 36t45.5 78q8 25 12.5 47.5t4.5 39.5q0 47 -18 70t-44 23v1zM567 706l-430 -724h-47l387 647l-2 2q-1 -2 -2 -3.5t-3 -2.5q-14 -16 -39 -29.5t-80 -13.5h-3.5h-2.5q-9 0 -20 2.5t-38 11.5
q2 -8 3 -17.5t1 -22.5q0 -15 -2 -31.5t-6 -32.5q-15 -63 -56 -115t-102 -52q-7 0 -23 3t-34 13q-23 13 -42 43.5t-19 88.5q0 14 2.5 28.5t8.5 29.5q19 54 67.5 99t113.5 45q19 0 31.5 -7t23.5 -16q3 -3 6 -5.5t6 -4.5q15 -13 36 -23.5t59 -10.5q20 0 36 3.5t30 11.5
q20 11 42 30.5t54 51.5l44 1v0zM78 428q0 -6 0.5 -11t1.5 -10q3 -21 15.5 -38t41.5 -17q43 0 75 42.5t46 94.5q4 16 6.5 32.5t2.5 31.5q0 32 -3.5 42.5t-16.5 16.5q-1 0 -2.5 0.5t-2.5 1.5q-2 1 -4.5 2t-4.5 2q-7 4 -12 8l-10 8q-3 3 -6 6.5t-7 7.5q-36 -11 -59.5 -43.5
t-37.5 -69.5q-12 -33 -17.5 -63.5t-5.5 -44.5v1z" />
    <glyph glyph-name="Igrave" unicode="&#x2039;" horiz-adv-x="333" 
d="M63 227l31 27q23 18 63.5 54.5t84.5 79.5q4 4 8 7.5t8 7.5q7 7 9.5 9t4.5 3h0.5h1.5q6 0 8 -3t2 -8q0 -6 -19 -33t-42 -59q-2 -2 -3 -3.5t-2 -2.5q-20 -26 -37.5 -49t-24.5 -33q8 -11 19 -24.5t23 -27.5q11 -14 22 -27.5t19 -24.5q4 -5 8 -10.5t8 -10.5q1 -3 3 -5.5
t3 -4.5q10 -14 17 -27t7 -19q0 -5 -3 -8t-8 -3t-35.5 32t-72.5 70q-5 4 -9.5 8.5t-9.5 8.5q-3 3 -15.5 13.5t-25.5 22.5q-16 14 -29.5 26t-13.5 13v1z" />
    <glyph glyph-name="Oacute" unicode="&#x203a;" horiz-adv-x="333" 
d="M270 222l-31 -27q-23 -20 -63.5 -56.5t-84.5 -79.5q-4 -4 -8 -7.5t-8 -7.5q-7 -7 -9.5 -9t-3.5 -3h-1.5h-1.5q-6 0 -8 3t-2 8q0 6 19 33t42 59q2 2 3 3.5t2 2.5q20 26 37.5 49t24.5 33q-8 11 -19 24.5t-22 27.5q-12 14 -23 27.5t-19 24.5q-4 5 -8 10.5t-8 10.5
q-1 3 -3 5.5t-3 4.5q-10 14 -17 27t-7 19q0 5 3.5 8t7.5 3q5 0 35.5 -32t72.5 -70q5 -4 9.5 -8.5t9.5 -8.5q3 -3 15.5 -13.5t25.5 -22.5q16 -14 29.5 -26t13.5 -13v1z" />
    <glyph glyph-name="exclamdbl" unicode="&#x203c;" 
 />
    <glyph glyph-name="uni207F" unicode="&#x207f;" 
 />
    <glyph glyph-name="franc" unicode="&#x20a3;" 
 />
    <glyph glyph-name="peseta" unicode="&#x20a7;" 
 />
    <glyph glyph-name="trademark" unicode="&#x2122;" horiz-adv-x="980" 
d="M665 256l-149 306h-2v-219q0 -34 9.5 -48.5t43.5 -17.5v-19h-131v20q33 2 42.5 16.5t9.5 47.5v250q-9 22 -28 35.5t-41 13.5v21h121l154 -309l160 309h103v-20q-33 -2 -44.5 -16t-11.5 -40v-254v-3.5v-2.5q0 -29 4.5 -36.5t30.5 -10.5q3 -1 7 -1t8 -1v-19h-170v20h8t7 1
q26 3 30 10.5t4 34.5v3.5v3.5v233h-2l-152 -308h-11v0zM238 642v-310v-3.5v-2.5q0 -29 4.5 -36.5t30.5 -10.5q3 -1 7 -1t8 -1v-19h-171v20h8t7 1q26 3 30.5 10.5t4.5 36.5v2.5v2.5v311h-49q-31 -1 -46 -21t-22 -48l-20 1v88h345v-88h-20q-7 27 -21.5 47t-45.5 20l-50 1v0z
" />
    <glyph glyph-name="arrowleft" unicode="&#x2190;" 
 />
    <glyph glyph-name="arrowup" unicode="&#x2191;" 
 />
    <glyph glyph-name="glyph257" unicode="&#x2192;" horiz-adv-x="500" 
 />
    <glyph glyph-name="arrowdown" unicode="&#x2193;" 
 />
    <glyph glyph-name="arrowboth" unicode="&#x2194;" 
 />
    <glyph glyph-name="arrowupdn" unicode="&#x2195;" 
 />
    <glyph glyph-name="arrowupdnbse" unicode="&#x21a8;" 
 />
    <glyph glyph-name="questiondown" unicode="&#x2202;" 
 />
    <glyph glyph-name="quoteright" unicode="&#x2206;" 
 />
    <glyph glyph-name="florin" unicode="&#x220f;" 
 />
    <glyph glyph-name="minus" unicode="&#x2212;" 
 />
    <glyph glyph-name="Icircumflex" unicode="&#x2215;" horiz-adv-x="167" 
d="M331 676l-450 -690h-49l453 690h46v0z" />
    <glyph glyph-name="Ucircumflex" unicode="&#x2219;" 
d="M125 199q-4 -1 -9 0t-10 3q-14 5 -25 17t-11 33q0 24 16.5 40.5t38.5 16.5q23 0 39.5 -17t16.5 -40q0 -20 -11 -32t-25 -18q-5 -2 -10 -3t-10 -1v1z" />
    <glyph glyph-name="quotedblleft" unicode="&#x221a;" 
 />
    <glyph glyph-name="yen" unicode="&#x221e;" 
 />
    <glyph glyph-name="orthogonal" unicode="&#x221f;" 
 />
    <glyph glyph-name="intersection" unicode="&#x2229;" 
 />
    <glyph glyph-name="guillemotright" unicode="&#x222b;" 
 />
    <glyph glyph-name="quoteleft" unicode="&#x2248;" 
 />
    <glyph glyph-name="AE" unicode="&#x2260;" 
 />
    <glyph glyph-name="equivalence" unicode="&#x2261;" 
 />
    <glyph glyph-name="ordfeminine" unicode="&#x2264;" 
 />
    <glyph glyph-name="ordmasculine" unicode="&#x2265;" 
 />
    <glyph glyph-name="glyph258" unicode="&#x2302;" 
 />
    <glyph glyph-name="revlogicalnot" unicode="&#x2310;" 
 />
    <glyph glyph-name="integraltp" unicode="&#x2320;" 
 />
    <glyph glyph-name="integralbt" unicode="&#x2321;" 
 />
    <glyph glyph-name="SF100000" unicode="&#x2500;" 
 />
    <glyph glyph-name="SF110000" unicode="&#x2502;" 
 />
    <glyph glyph-name="SF010000" unicode="&#x250c;" 
 />
    <glyph glyph-name="SF030000" unicode="&#x2510;" 
 />
    <glyph glyph-name="SF020000" unicode="&#x2514;" 
 />
    <glyph glyph-name="SF040000" unicode="&#x2518;" 
 />
    <glyph glyph-name="SF080000" unicode="&#x251c;" 
 />
    <glyph glyph-name="SF090000" unicode="&#x2524;" 
 />
    <glyph glyph-name="SF060000" unicode="&#x252c;" 
 />
    <glyph glyph-name="SF070000" unicode="&#x2534;" 
 />
    <glyph glyph-name="SF050000" unicode="&#x253c;" 
 />
    <glyph glyph-name="SF430000" unicode="&#x2550;" 
 />
    <glyph glyph-name="SF240000" unicode="&#x2551;" 
 />
    <glyph glyph-name="SF510000" unicode="&#x2552;" 
 />
    <glyph glyph-name="SF520000" unicode="&#x2553;" 
 />
    <glyph glyph-name="SF390000" unicode="&#x2554;" 
 />
    <glyph glyph-name="SF220000" unicode="&#x2555;" 
 />
    <glyph glyph-name="SF210000" unicode="&#x2556;" 
 />
    <glyph glyph-name="SF250000" unicode="&#x2557;" 
 />
    <glyph glyph-name="SF500000" unicode="&#x2558;" 
 />
    <glyph glyph-name="SF490000" unicode="&#x2559;" 
 />
    <glyph glyph-name="SF380000" unicode="&#x255a;" 
 />
    <glyph glyph-name="SF280000" unicode="&#x255b;" 
 />
    <glyph glyph-name="SF270000" unicode="&#x255c;" 
 />
    <glyph glyph-name="SF260000" unicode="&#x255d;" 
 />
    <glyph glyph-name="SF360000" unicode="&#x255e;" 
 />
    <glyph glyph-name="SF370000" unicode="&#x255f;" 
 />
    <glyph glyph-name="SF420000" unicode="&#x2560;" 
 />
    <glyph glyph-name="SF190000" unicode="&#x2561;" 
 />
    <glyph glyph-name="SF200000" unicode="&#x2562;" 
 />
    <glyph glyph-name="SF230000" unicode="&#x2563;" 
 />
    <glyph glyph-name="SF470000" unicode="&#x2564;" 
 />
    <glyph glyph-name="SF480000" unicode="&#x2565;" 
 />
    <glyph glyph-name="SF410000" unicode="&#x2566;" 
 />
    <glyph glyph-name="SF450000" unicode="&#x2567;" 
 />
    <glyph glyph-name="SF460000" unicode="&#x2568;" 
 />
    <glyph glyph-name="SF400000" unicode="&#x2569;" 
 />
    <glyph glyph-name="SF540000" unicode="&#x256a;" 
 />
    <glyph glyph-name="SF530000" unicode="&#x256b;" 
 />
    <glyph glyph-name="SF440000" unicode="&#x256c;" 
 />
    <glyph glyph-name="upblock" unicode="&#x2580;" 
 />
    <glyph glyph-name="dnblock" unicode="&#x2584;" 
 />
    <glyph glyph-name="block" unicode="&#x2588;" 
 />
    <glyph glyph-name="lfblock" unicode="&#x258c;" 
 />
    <glyph glyph-name="rtblock" unicode="&#x2590;" 
 />
    <glyph glyph-name="ltshade" unicode="&#x2591;" 
 />
    <glyph glyph-name="shade" unicode="&#x2592;" 
 />
    <glyph glyph-name="dkshade" unicode="&#x2593;" 
 />
    <glyph glyph-name="glyph261" unicode="&#x25a0;" horiz-adv-x="500" 
 />
    <glyph glyph-name="filledrect" unicode="&#x25ac;" 
 />
    <glyph glyph-name="triagup" unicode="&#x25b2;" 
 />
    <glyph glyph-name="triagrt" unicode="&#x25ba;" 
 />
    <glyph glyph-name="triagdn" unicode="&#x25bc;" 
 />
    <glyph glyph-name="triaglf" unicode="&#x25c4;" 
 />
    <glyph glyph-name="Edieresis" unicode="&#x25ca;" 
 />
    <glyph glyph-name="circle" unicode="&#x25cb;" 
 />
    <glyph glyph-name="invbullet" unicode="&#x25d8;" 
 />
    <glyph glyph-name="invcircle" unicode="&#x25d9;" 
 />
    <glyph glyph-name="smileface" unicode="&#x263a;" 
 />
    <glyph glyph-name="invsmileface" unicode="&#x263b;" 
 />
    <glyph glyph-name="sun" unicode="&#x263c;" 
 />
    <glyph glyph-name="female" unicode="&#x2640;" 
 />
    <glyph glyph-name="male" unicode="&#x2642;" 
 />
    <glyph glyph-name="spade" unicode="&#x2660;" 
 />
    <glyph glyph-name="club" unicode="&#x2663;" 
 />
    <glyph glyph-name="heart" unicode="&#x2665;" 
 />
    <glyph glyph-name="diamond" unicode="&#x2666;" 
 />
    <glyph glyph-name="musicalnote" unicode="&#x266a;" 
 />
    <glyph glyph-name="musicalnotedbl" unicode="&#x266b;" 
 />
    <glyph glyph-name="Scaron" unicode="&#xf000;" 
 />
    <glyph glyph-name="Ocircumflex" unicode="&#xf001;" horiz-adv-x="556" 
d="M31 418v32h69q4 110 58.5 171t159.5 61q49 0 87.5 -16.5t38.5 -55.5q0 -15 -10.5 -26t-24.5 -11q-17 0 -27.5 9.5t-19.5 22.5q-1 3 -3 5.5t-4 4.5q-11 16 -26 29t-43 13q-30 0 -52.5 -16t-33.5 -35q-2 -3 -4 -6.5t-3 -6.5q-9 -22 -10.5 -58t-0.5 -86l157 1q10 -1 21 -0.5
t22 1.5q19 1 37 3t33 5l4 -2q0 -10 -0.5 -19t-0.5 -19q0 -17 -0.5 -33t-0.5 -28v-261q0 -52 14.5 -66t52.5 -17v-14h-220v15q50 2 59.5 19t9.5 62v265q0 28 -5.5 38.5t-30.5 14.5q-3 0 -14 0.5t-26 0.5q-9 0 -18 0.5t-19 0.5q-24 0 -45 0.5t-29 0.5v-329q0 -31 9.5 -51.5
t59.5 -22.5v-14h-220v15q37 0 52 13t15 65v325h-68v0z" />
    <glyph glyph-name="Ograve" unicode="&#xf002;" horiz-adv-x="556" 
d="M32 418v32h71q0 95 28.5 143.5t62.5 67.5q22 14 43 17.5t34 3.5q24 0 40 -4t28 -8q10 -4 17 -7t15 -5q2 0 4.5 -0.5t4.5 -0.5q5 0 15 3.5t20 8.5h1.5t1.5 1q11 4 20.5 8t13.5 4l5 -1v-600q0 -35 10.5 -50t53.5 -17v-14h-215v15q26 1 46.5 11.5t20.5 56.5v335h-188v-339
q0 -42 20 -52t51 -13v-14h-224v15q1 -1 2.5 -1h2.5q35 3 49.5 15.5t14.5 74.5v314h-69v0zM373 450v141q0 -1 -0.5 -1.5l-1.5 -1.5q-2 -2 -5 -3.5t-8 -1.5q-23 0 -34.5 11.5t-20.5 24.5l-0.5 0.5l-0.5 0.5q-9 14 -19.5 24.5t-31.5 10.5q-43 0 -55 -47.5t-12 -105.5v-4v-4v-12
t1 -11v-11.5v-10.5l188 1v0z" />
    <glyph glyph-name="degree" horiz-adv-x="400" 
d="M200 390q-60 -1 -101.5 40.5t-41.5 101.5t41.5 101.5t101.5 41.5t101.5 -41.5t41.5 -101.5t-41.5 -101.5t-101.5 -41.5v1zM200 424q44 -1 74 32t30 76q0 44 -30 76.5t-74 32.5q-43 0 -73.5 -32.5t-30.5 -76.5q0 -43 30.5 -76t73.5 -33v1z" />
    <glyph glyph-name="bullet" horiz-adv-x="350" 
d="M310 331q0 -56 -39.5 -96t-95.5 -40t-95.5 39.5t-39.5 95.5q-1 56 38.5 95.5t96.5 39.5q56 0 95.5 -39.5t39.5 -95.5v1z" />
    <glyph glyph-name="daggerdbl" horiz-adv-x="500" 
d="M0 250h500v-49h-500v49v0z" />
    </font>
</defs>
</svg>
